<?xml version="1.0" encoding="utf-8"?>
<!-- Generator: Adobe Illustrator 25.2.3, SVG Export Plug-In . SVG Version: 6.00 Build 0)  -->
<svg version="1.1" id="bacshark-bits-logo-dark-solid"
	 xmlns="http://www.w3.org/2000/svg" xmlns:xlink="http://www.w3.org/1999/xlink" x="0px" y="0px"
	 viewBox="0 0 468.5710144 218.052002" enable-background="new 0 0 468.5710144 218.052002" xml:space="preserve">
<g>
	<g>
		<path fill="#E5E5E5" d="M190.6490021,112.2549973c3.904007,0,6.897995,0.9980011,8.9819946,2.9940033
			c2.0829926,1.9960022,3.125,4.814003,3.125,8.4550018c0,1.9309998-0.4389954,3.7070007-1.3159943,5.3299942
			c-0.878006,1.6230011-2.1609955,2.9170074-3.8500061,3.8820038c-1.6889954,0.9649963-3.7830048,1.4909973-6.2839966,1.5789948
			l-0.0659943-1.8430023c1.5350037,0,3.1139984,0.220993,4.7380066,0.6580048
			c1.621994,0.4389954,3.1139984,1.1419983,4.473999,2.1049957c1.3589935,0.9660034,2.4779968,2.2369995,3.3560028,3.8159943
			c0.8769989,1.5789948,1.3159943,3.5319977,1.3159943,5.8560028c0,2.5-0.4170074,4.6060028-1.25,6.3159943
			c-0.8339996,1.7109985-1.9409943,3.0709991-3.322998,4.0800018c-1.3820038,1.0099945-2.9170074,1.7330017-4.6060028,2.1710052
			c-1.6889954,0.4389954-3.4109955,0.6580048-5.1649933,0.6580048h-17.2400055c-0.746994,0-1.3820038-0.2630005-1.9080048-0.7890015
			s-0.7899933-1.1620026-0.7899933-1.9080048v-40.6649933c0-0.7450027,0.2630005-1.3820038,0.7899933-1.9079971
			s1.1620026-0.7890015,1.9080048-0.7890015h17.1089935V112.2549973z M189.9250031,117.4530029h-14.1470032l0.7899933-1.1190033
			v16.3180084l-0.723999-0.8549957h14.1470032c1.9299927,0,3.5859985-0.625,4.9680023-1.875s2.072998-3.0810013,2.072998-5.4940033
			c0-2.2369995-0.625-3.9580002-1.875-5.1650009C193.9060059,118.0569992,192.1629944,117.4530029,189.9250031,117.4530029z
			 M190.3860016,137.0619965h-14.2779999l0.4600067-0.4609985v17.173996l-0.526001-0.5919952h14.6069946
			c2.5440063,0,4.6389923-0.6580048,6.2839966-1.9750061c1.6450043-1.3150024,2.4669952-3.3549957,2.4669952-6.1190033
			c0-2.147995-0.4389954-3.7940063-1.3159943-4.9349976c-0.878006-1.1410065-2.0070038-1.9409943-3.3889923-2.4019928
			C193.3139954,137.2920074,191.8769989,137.0619965,190.3860016,137.0619965z"/>
		<path fill="#E5E5E5" d="M229.8000031,119.0979996l-15.4629974,37.6379929
			c-0.1759949,0.526001-0.4830017,0.9539948-0.9210052,1.2830048c-0.4389954,0.3289948-0.8990021,0.4929962-1.3809967,0.4929962
			c-0.8339996,0-1.447998-0.2290039-1.8430023-0.6900024s-0.6150055-0.996994-0.6580048-1.6119995
			c0-0.3070068,0.0429993-0.6360016,0.1309967-0.9869995l17.0420074-41.3880005
			c0.2630005-0.6139984,0.625-1.0739975,1.0850067-1.3820038c0.4600067-0.3069992,0.9759979-0.4380035,1.5460052-0.3949966
			c0.5690002,0,1.0850067,0.1539993,1.5460052,0.4599991c0.4600067,0.3079987,0.7779999,0.7470016,0.9539948,1.3160019
			l16.9759979,40.9930038c0.1320038,0.352005,0.197998,0.7019958,0.197998,1.0529938
			c0,0.7899933-0.2630005,1.4259949-0.7899933,1.9080048c-0.526001,0.4830017-1.1190033,0.723999-1.7769928,0.723999
			c-0.5700073,0-1.0749969-0.1640015-1.5130005-0.4929962c-0.4389954-0.3289948-0.7680054-0.7779999-0.9869995-1.348999
			l-15.6600037-37.6380005L229.8000031,119.0979996z M217.6269989,146.0099945l2.2369995-5.1320038h19.5420074l0.9869995,5.1320038
			H217.6269989z"/>
		<path fill="#E5E5E5" d="M289.3479919,115.2809982c0.7460022,0.3960037,1.1849976,0.9869995,1.3160095,1.776001
			c0.1319885,0.7900009-0.0650024,1.5360031-0.5920105,2.2369995c-0.3959961,0.526001-0.8999939,0.822998-1.5140076,0.8889999
			c-0.6149902,0.0650024-1.2290039-0.0550003-1.8429871-0.3619995c-1.446991-0.8769989-3.0050049-1.5670013-4.6719971-2.0719986
			c-1.6669922-0.5039978-3.42099-0.7570038-5.2640076-0.7570038c-2.5889893,0-4.9580078,0.439003-7.1059875,1.3160019
			c-2.1489868,0.8779984-4.0140076,2.1389999-5.5929871,3.7829971s-2.8080139,3.5859985-3.6849976,5.822998
			c-0.8789978,2.2370071-1.3160095,4.6939926-1.3160095,7.3700027c0,2.8950043,0.4609985,5.4830017,1.3819885,7.7640076
			s2.1820068,4.2230072,3.7829895,5.822998c1.6010132,1.6029968,3.4649963,2.8190002,5.5929871,3.6519928
			c2.1279907,0.8339996,4.4419861,1.25,6.9419861,1.25c1.7980042,0,3.5299988-0.2400055,5.197998-0.723999
			c1.6659851-0.4819946,3.223999-1.1849976,4.6719971-2.1049957c0.6130066-0.3070068,1.2380066-0.4170074,1.875-0.3289948
			c0.6359863,0.0879974,1.151001,0.3950043,1.5469971,0.9210052c0.5690002,0.7019958,0.7770081,1.4380035,0.625,2.2039948
			c-0.1539917,0.7689972-0.5820007,1.3500061-1.2829895,1.7440033c-1.0979919,0.6580048-2.3479919,1.25-3.7510071,1.776001
			c-1.4039917,0.526001-2.8619995,0.9440002-4.3760071,1.25c-1.5130005,0.3070068-3.0169983,0.4609985-4.5069885,0.4609985
			c-3.1579895,0-6.1419983-0.548996-8.9490051-1.6450043c-2.8080139-1.0970001-5.2969971-2.6649933-7.4679871-4.7050018
			c-2.17099-2.0399933-3.8720093-4.5180054-5.1000061-7.4360046c-1.2290039-2.9170074-1.8419952-6.2180023-1.8419952-9.9020081
			c0-3.378006,0.5919952-6.503006,1.7769928-9.3769989c1.1839905-2.8730011,2.82901-5.3619995,4.9349976-7.4690018
			c2.105011-2.1050034,4.572998-3.7389984,7.4020081-4.901001s5.9110107-1.7440033,9.2449951-1.7440033
			c2.2799988,0,4.4960022,0.2959976,6.6459961,0.8889999C285.5759888,113.2740021,287.5490112,114.1419983,289.3479919,115.2809982z
			"/>
		<path fill="#E5E5E5" d="M302.3200073,152.9019928c-0.3529968-0.5709991-0.5180054-1.177002-0.4949951-1.8139954
			c0.0209961-0.6380005,0.3850098-1.197998,1.0889893-1.6840057c0.4830017-0.3070068,1.0230103-0.4380035,1.6170044-0.3959961
			c0.5939941,0.0440063,1.1319885,0.3300018,1.6170044,0.8569946c1.2309875,1.4519958,2.6400146,2.6069946,4.223999,3.4660034
			c1.5840149,0.8569946,3.519989,1.2870026,5.8089905,1.2870026c1.0119934-0.0440063,2.0559998-0.2200012,3.1350098-0.5279999
			c1.0769958-0.3079987,1.9790039-0.8470001,2.7059937-1.6170044c0.7260132-0.7700043,1.0889893-1.7920074,1.0889893-3.0690002
			c0-1.2299957-0.3739929-2.2109985-1.1220093-2.9369965c-0.7489929-0.727005-1.7279968-1.3200073-2.9379883-1.7819977
			s-2.4970093-0.8679962-3.8599854-1.220993c-1.4519958-0.3959961-2.8829956-0.8359985-4.2900085-1.3200073
			c-1.4089966-0.4830017-2.6730042-1.1100006-3.7950134-1.8809967c-1.1220093-0.7700043-2.0239868-1.7369995-2.7059937-2.904007
			c-0.6830139-1.1649933-1.0230103-2.6060028-1.0230103-4.3220062c0-1.9799957,0.5390015-3.6959991,1.6170044-5.1480026
			s2.5190125-2.5739975,4.322998-3.3659973s3.8049927-1.1880035,6.006012-1.1880035
			c1.2309875,0,2.5190125,0.1439972,3.8609924,0.4290009c1.3420105,0.2870026,2.6499939,0.7710037,3.927002,1.4520035
			c1.2749939,0.6829987,2.3970032,1.6169968,3.3659973,2.8049927c0.3959961,0.4400024,0.6149902,0.9900055,0.6600037,1.6499939
			c0.0429993,0.6600037-0.2430115,1.2539978-0.8580017,1.7819977c-0.4840088,0.3529968-1.0230103,0.5180054-1.6170044,0.4940033
			c-0.5939941-0.0209961-1.0889893-0.2299957-1.4849854-0.6269989c-0.9679871-1.1439972-2.144989-2.0130005-3.5299988-2.6060028
			c-1.3869934-0.5939941-2.9159851-0.8919983-4.5870056-0.8919983c-1.0130005,0-2.0239868,0.1650009-3.0360107,0.4949951
			c-1.0130005,0.3300018-1.8590088,0.8480072-2.5409851,1.552002c-0.6830139,0.7039948-1.0230103,1.6940002-1.0230103,2.9700012
			c0.0440063,1.1880035,0.4389954,2.1560059,1.1879883,2.904007c0.7470093,0.7480011,1.7590027,1.3529968,3.0360107,1.8139954
			c1.2749939,0.4620056,2.6830139,0.9140015,4.223999,1.3540039c1.4070129,0.3529968,2.7609863,0.7590027,4.0589905,1.220993
			s2.4760132,1.0670013,3.5310059,1.8139954c1.0570068,0.7489929,1.8919983,1.7059937,2.5079956,2.8710022
			c0.6159973,1.1670074,0.9249878,2.6300049,0.9249878,4.3899994c0,2.0240021-0.572998,3.772995-1.7170105,5.246994
			c-1.144989,1.4750061-2.651001,2.5970001-4.5209961,3.3650055c-1.8710022,0.7700043-3.8840027,1.1549988-6.0390015,1.1549988
			c-2.42099,0-4.8179932-0.451004-7.1940002-1.3529968S304.0360107,155.1459961,302.3200073,152.9019928z"/>
		<path fill="#E5E5E5" d="M352.0840149,123.6650009c2.9039917,0,5.2019958,0.6269989,6.8959961,1.8809967
			c1.6929932,1.2539978,2.9039917,2.9269943,3.631012,5.0159988c0.7260132,2.0910034,1.0889893,4.4120026,1.0889893,6.9629974
			v18.0839996c0,0.7489929-0.2539978,1.3869934-0.7590027,1.9140015c-0.5069885,0.5279999-1.1340027,0.7920074-1.8819885,0.7920074
			c-0.7919922,0-1.4299927-0.2640076-1.9140015-0.7920074c-0.4840088-0.5269928-0.7260132-1.1649933-0.7260132-1.9140015
			v-18.0839996c0-1.6269989-0.2420044-3.1230011-0.7260132-4.4869995c-0.4849854-1.3630066-1.2869873-2.4530029-2.4089966-3.2680054
			c-1.1220093-0.8130035-2.651001-1.220993-4.5870056-1.220993c-1.8049927,0-3.4549866,0.4069977-4.9500122,1.220993
			c-1.4960022,0.8139954-2.6849976,1.904007-3.5639954,3.2680054c-0.8800049,1.3639984-1.3190002,2.8600006-1.3190002,4.4869995
			v18.0839996c0,0.7489929-0.2539978,1.3869934-0.7600098,1.9140015c-0.506012,0.5279999-1.1329956,0.7920074-1.881012,0.7920074
			s-1.375-0.2640076-1.881012-0.7920074c-0.506012-0.5269928-0.7590027-1.1649933-0.7590027-1.9140015v-43.4280014
			c0-0.7480011,0.2529907-1.3860016,0.7590027-1.9140015s1.1329956-0.7919998,1.881012-0.7919998
			c0.7919922,0,1.4299927,0.2639999,1.9140015,0.7919998s0.7269897,1.1660004,0.7269897,1.9140015v19.6680069l-1.3200073,1.4519958
			c0.2200012-1.1439972,0.7030029-2.298996,1.4519958-3.4649963c0.7470093-1.1660004,1.6929932-2.2109985,2.8380127-3.1350021
			c1.1440125-0.9250031,2.4190063-1.6610031,3.8280029-2.211998
			C349.0690002,123.9400024,350.5429993,123.6650009,352.0840149,123.6650009z"/>
		<path fill="#E5E5E5" d="M401.2529907,123.8619995c0.7919922,0,1.4299927,0.2539978,1.9140015,0.7600021
			s0.7269897,1.1330032,0.7269897,1.8809967v29.1050034c0,0.7489929-0.2539978,1.3869934-0.7600098,1.9140015
			c-0.506012,0.5279999-1.1329956,0.7920074-1.881012,0.7920074c-0.7919922,0-1.4299927-0.2640076-1.9140015-0.7920074
			c-0.4840088-0.5269928-0.7260132-1.1649933-0.7260132-1.9140015v-6.2700043l1.2539978-0.1320038
			c0,1.0130005-0.3299866,2.0789948-0.9899902,3.1999969c-0.6600037,1.121994-1.5620117,2.1790009-2.7059937,3.1690063
			c-1.144989,0.9889984-2.4970093,1.8049927-4.0589905,2.4409943c-1.5620117,0.6380005-3.223999,0.9570007-4.9830017,0.9570007
			c-3.0360107,0-5.7409973-0.7799988-8.1170044-2.3430023c-2.3770142-1.5619965-4.2579956-3.6849976-5.6440125-6.3690033
			c-1.3859863-2.6840057-2.07901-5.7420044-2.07901-9.173996c0-3.4759979,0.6929932-6.5449982,2.07901-9.2070007
			s3.2669983-4.7519989,5.6440125-6.2709961c2.3760071-1.5179977,5.0159912-2.276001,7.9200134-2.276001
			c1.8909912,0,3.651001,0.3079987,5.2789917,0.9240036s3.0469971,1.4520035,4.2569885,2.5080032
			s2.1560059,2.2230072,2.8389893,3.4980011c0.6820068,1.276001,1.0220032,2.5529938,1.0220032,3.8280029l-1.7160034-0.3959961
			v-7.1930008c0-0.7480011,0.2409973-1.375,0.7260132-1.8809967S400.4609985,123.8619995,401.2529907,123.8619995z
			 M387.6570129,154.0910034c2.1990051,0,4.1459961-0.5709991,5.8410034-1.7160034
			c1.6929932-1.1439972,3.0140076-2.6950073,3.9599915-4.6529999c0.9460144-1.9570007,1.4190063-4.1679993,1.4190063-6.6329956
			c0-2.4199982-0.4729919-4.5980072-1.4190063-6.5339966c-0.9460144-1.9360046-2.2669983-3.4759979-3.9599915-4.6199951
			c-1.6940002-1.1439972-3.6419983-1.7160034-5.8410034-1.7160034c-2.1560059,0-4.0820007,0.5610046-5.7749939,1.6829987
			c-1.6940002,1.121994-3.0249939,2.651001-3.9920044,4.5870056c-0.9689941,1.9380035-1.4519958,4.1369934-1.4519958,6.6009979
			c0,2.4649963,0.4830017,4.6759949,1.4519958,6.6329956c0.9670105,1.9579926,2.2980042,3.5099945,3.9920044,4.6529999
			C383.5750122,153.5200043,385.5010071,154.0910034,387.6570129,154.0910034z"/>
		<path fill="#E5E5E5" d="M416.2999878,158.3139954c-0.7489929,0-1.3760071-0.2640076-1.881012-0.7920074
			c-0.5069885-0.5269928-0.7600098-1.1649933-0.7600098-1.9140015v-28.7099991c0-0.7919998,0.2529907-1.4400024,0.7600098-1.9459991
			c0.5050049-0.5059967,1.1319885-0.7600021,1.881012-0.7600021c0.7919922,0,1.4289856,0.2539978,1.9140015,0.7600021
			c0.4830017,0.5059967,0.7260132,1.1539993,0.7260132,1.9459991v8.6460037l-0.7919922-1.3860016
			c0.2650146-1.3639984,0.7359924-2.6950073,1.4190063-3.9929962c0.6820068-1.2980042,1.5509949-2.4639969,2.6069946-3.4980011
			c1.0559998-1.0329971,2.2659912-1.848999,3.6300049-2.4420013c1.3630066-0.5940018,2.8590088-0.8909988,4.4880066-0.8909988
			c0.9670105,0,1.8580017,0.2300034,2.6730042,0.6920013c0.8129883,0.461998,1.2210083,1.1119995,1.2210083,1.9469986
			c0,0.9240036-0.2420044,1.6169968-0.7260132,2.0789948c-0.4849854,0.4620056-1.0350037,0.6929932-1.6499939,0.6929932
			c-0.571991,0-1.1220093-0.1329956-1.6499939-0.3959961c-0.5270081-0.2640076-1.1879883-0.3960037-1.9790039-0.3960037
			c-1.1010132,0-2.1889954,0.3080063-3.2669983,0.9240036c-1.07901,0.6159973-2.0690002,1.4629974-2.9710083,2.5410004
			s-1.6279907,2.3099976-2.178009,3.6950073c-0.5509949,1.3869934-0.8250122,2.8710022-0.8250122,4.4550018v16.0379944
			c0,0.7489929-0.2539978,1.3869934-0.7590027,1.9140015C417.6740112,158.0509949,417.0480042,158.3139954,416.2999878,158.3139954z
			"/>
		<path fill="#E5E5E5" d="M443.2929993,158.3139954c-0.7919922,0-1.4410095-0.2640076-1.9460144-0.7920074
			c-0.5069885-0.5269928-0.7590027-1.1649933-0.7590027-1.9140015v-43.4279861c0-0.7480011,0.2520142-1.3860016,0.7590027-1.9140015
			c0.5050049-0.5279999,1.1539917-0.7919998,1.9460144-0.7919998c0.7479858,0,1.375,0.2639999,1.8819885,0.7919998
			c0.5050049,0.5279999,0.7590027,1.1660004,0.7590027,1.9140015v43.4280014c0,0.7489929-0.2539978,1.3869934-0.7590027,1.9140015
			C444.6679993,158.0509949,444.0409851,158.3139954,443.2929993,158.3139954z M465.2049866,123.9950027
			c0.70401,0,1.3089905,0.2750015,1.8150024,0.8239975c0.5050049,0.5510025,0.7590027,1.1340027,0.7590027,1.7490005
			c0,0.7050018-0.3529968,1.3639984-1.0559998,1.9800034l-21.3840027,18.6779938l-0.197998-6.2039948l18.1489868-16.2350006
			C463.8619995,124.2590027,464.5010071,123.9950027,465.2049866,123.9950027z M465.9309998,158.2489929
			c-0.7919922,0-1.4519958-0.2859955-1.980011-0.8580017l-14.0580139-14.9810028l3.9599915-3.6309967l13.9259949,14.9160004
			c0.5280151,0.5720062,0.7919922,1.2319946,0.7919922,1.9799957c0,0.7920074-0.3089905,1.4190063-0.9240112,1.8809967
			C467.0310059,158.0180054,466.4590149,158.2489929,465.9309998,158.2489929z"/>
	</g>
</g>
<path fill="#69C7C3" d="M179.9559937,23.2989998c-7.5440063-18.1490002-41.1609955-23.9039993-70.1100006-23.25
	C66.3209991,1.0420001,14.3479996,16.2360001,3.089,47.2459984c-5.7259998,15.7709999-2.9849999,30.4989967,4.0749998,52.1629982
	c6.3400002,19.4530029,17.1490002,38.6829987,32.1259995,57.1539917
	c5.6030006,6.9100037,50.7260056,61.4889984,77.9629974,61.4889984c3.2089996,0,6.1699982-0.7579956,8.7900009-2.4400024
	c6.1829987-3.973999,5.1860046-12.7059937,3.6759949-25.923996c-2.1139984-18.5099945-5.3089981-46.4819946,8.3350067-79.5149994
	c9.7079926-23.5039978,21.1009979-39.5870056,29.4190063-51.3289986
	C177.4459991,44.7669983,184.651001,34.5960007,179.9559937,23.2989998z"/>
<g>
	<path fill="#E5E5E5" d="M386.1328125,184.7011719c-0.1064453,0-0.1884766-0.0341797-0.2460938-0.1035156
		c-0.0585938-0.0683594-0.0771484-0.1552734-0.0556641-0.2617188l1.4111328-6.6132812h-1.3476562
		c-0.1054688,0-0.1855469-0.0341797-0.2382812-0.1035156c-0.0527344-0.0683594-0.0683594-0.1552734-0.046875-0.2617188
		l0.1103516-0.5390625c0.0214844-0.1054688,0.0742188-0.1923828,0.1591797-0.2617188
		c0.0839844-0.0683594,0.1796875-0.1025391,0.2851562-0.1025391h1.3486328l0.1738281-0.7939453
		c0.1162109-0.5390625,0.3095703-1.0117188,0.5791016-1.4189453s0.6181641-0.7216797,1.046875-0.9433594
		c0.4277344-0.2226562,0.9384766-0.3339844,1.5302734-0.3339844h1.0791016c0.1054688,0,0.1845703,0.0351562,0.2373047,0.1035156
		c0.0527344,0.0693359,0.0693359,0.15625,0.0478516,0.2617188l-0.1113281,0.5390625
		c-0.0214844,0.1064453-0.0742188,0.1933594-0.1582031,0.2617188c-0.0849609,0.0693359-0.1796875,0.1035156-0.2861328,0.1035156
		h-0.8242188c-0.4970703,0-0.8798828,0.1289062-1.1503906,0.3886719c-0.2695312,0.2587891-0.4511719,0.6318359-0.546875,1.1181641
		l-0.1582031,0.7138672h2.0458984c0.1054688,0,0.1845703,0.0341797,0.2373047,0.1025391
		c0.0537109,0.0693359,0.0693359,0.15625,0.0478516,0.2617188l-0.1113281,0.5390625
		c-0.0205078,0.1064453-0.0712891,0.1933594-0.1503906,0.2617188c-0.0791016,0.0693359-0.1767578,0.1035156-0.2929688,0.1035156
		h-2.0302734l-1.4121094,6.6132812c-0.0205078,0.1064453-0.0712891,0.1933594-0.1503906,0.2617188
		c-0.0791016,0.0693359-0.171875,0.1035156-0.2773438,0.1035156H386.1328125z"/>
	<path fill="#E5E5E5" d="M391.265625,184.7011719c-0.1054688,0-0.1875-0.0341797-0.2451172-0.1035156
		c-0.0585938-0.0683594-0.0771484-0.1552734-0.0556641-0.2617188l1.6015625-7.5019531
		c0.0214844-0.1054688,0.0742188-0.1953125,0.1591797-0.2695312c0.0839844-0.0732422,0.1796875-0.1103516,0.2851562-0.1103516
		h0.7294922c0.1054688,0,0.1875,0.0371094,0.2460938,0.1103516c0.0576172,0.0742188,0.0761719,0.1640625,0.0556641,0.2695312
		l-0.1591797,0.6982422c0.2431641-0.359375,0.5683594-0.6289062,0.9755859-0.8085938s0.8798828-0.2695312,1.4199219-0.2695312
		h0.6816406c0.1054688,0,0.1826172,0.0341797,0.2304688,0.1025391c0.046875,0.0693359,0.0605469,0.15625,0.0390625,0.2617188
		l-0.1269531,0.6503906c-0.0214844,0.1054688-0.0712891,0.1904297-0.1503906,0.2539062s-0.1767578,0.0947266-0.2939453,0.0947266
		h-0.9355469c-0.5703125,0-1.0576172,0.1669922-1.4589844,0.5c-0.4023438,0.3330078-0.6660156,0.7851562-0.7929688,1.3564453
		l-0.9833984,4.6621094c-0.0214844,0.1064453-0.0742188,0.1933594-0.1582031,0.2617188
		c-0.0849609,0.0693359-0.1806641,0.1035156-0.2861328,0.1035156H391.265625z"/>
	<path fill="#E5E5E5" d="M400.0869141,184.859375c-0.7724609,0-1.40625-0.1533203-1.9033203-0.4599609
		c-0.4970703-0.3056641-0.84375-0.7314453-1.0390625-1.2763672s-0.2353516-1.1660156-0.1191406-1.8632812
		c0.0214844-0.1796875,0.0634766-0.4101562,0.1269531-0.6904297s0.1210938-0.5048828,0.1748047-0.6738281
		c0.1689453-0.7080078,0.4443359-1.3320312,0.8242188-1.8720703c0.3808594-0.5390625,0.8671875-0.9619141,1.4599609-1.2685547
		c0.5917969-0.3066406,1.2841797-0.4599609,2.0771484-0.4599609c0.7822266,0,1.421875,0.1533203,1.9189453,0.4599609
		s0.8457031,0.7294922,1.046875,1.2685547c0.2011719,0.5400391,0.2382812,1.1640625,0.1113281,1.8720703
		c-0.0322266,0.1689453-0.0771484,0.3935547-0.1347656,0.6738281c-0.0585938,0.2802734-0.1083984,0.5107422-0.1503906,0.6904297
		c-0.1806641,0.6972656-0.4580078,1.3183594-0.8330078,1.8632812c-0.3759766,0.5449219-0.859375,0.9707031-1.4511719,1.2763672
		C401.6035156,184.7060547,400.9003906,184.859375,400.0869141,184.859375z M400.1503906,183.6386719
		c0.6660156,0,1.2529297-0.2089844,1.7607422-0.6269531c0.5068359-0.4169922,0.8613281-1.0283203,1.0625-1.8320312
		c0.0419922-0.1582031,0.0898438-0.359375,0.1425781-0.6025391s0.0947266-0.4433594,0.1269531-0.6025391
		c0.1367188-0.8037109,0.0683594-1.4140625-0.2060547-1.8320312c-0.2753906-0.4169922-0.7460938-0.6259766-1.4121094-0.6259766
		c-0.6552734,0-1.2373047,0.2089844-1.7441406,0.6259766c-0.5078125,0.4179688-0.8623047,1.0283203-1.0634766,1.8320312
		c-0.0419922,0.1591797-0.0898438,0.359375-0.1425781,0.6025391s-0.0898438,0.4443359-0.1103516,0.6025391
		c-0.1484375,0.8037109-0.0878906,1.4150391,0.1816406,1.8320312
		C399.015625,183.4296875,399.484375,183.6386719,400.1503906,183.6386719z"/>
	<path fill="#E5E5E5" d="M406.0332031,184.7011719c-0.1054688,0-0.1875-0.0341797-0.2451172-0.1035156
		c-0.0585938-0.0683594-0.0771484-0.1552734-0.0556641-0.2617188l1.6015625-7.5175781
		c0.0214844-0.1054688,0.0742188-0.1923828,0.1591797-0.2617188c0.0839844-0.0683594,0.1796875-0.1025391,0.2851562-0.1025391
		h0.7138672c0.1054688,0,0.1845703,0.0341797,0.2373047,0.1025391c0.0537109,0.0693359,0.0693359,0.15625,0.0478516,0.2617188
		l-0.1103516,0.5556641c0.2109375-0.2226562,0.4248047-0.4130859,0.6416016-0.5712891
		c0.2167969-0.1591797,0.4628906-0.2832031,0.7373047-0.3730469c0.2753906-0.0898438,0.5976562-0.1347656,0.9677734-0.1347656
		c0.6025391,0,1.1103516,0.125,1.5224609,0.3730469c0.4130859,0.2480469,0.6875,0.6103516,0.8251953,1.0859375
		c0.3378906-0.4433594,0.7373047-0.7978516,1.1972656-1.0625c0.4599609-0.2636719,0.9970703-0.3964844,1.6103516-0.3964844
		c0.5595703,0,1.0488281,0.1269531,1.4667969,0.3808594s0.7138672,0.6367188,0.8876953,1.1494141
		c0.1748047,0.5136719,0.1826172,1.1552734,0.0244141,1.9277344l-0.9833984,4.5830078
		c-0.0214844,0.1064453-0.0712891,0.1933594-0.1503906,0.2617188c-0.0800781,0.0693359-0.1728516,0.1035156-0.2783203,0.1035156
		h-0.7451172c-0.1054688,0-0.1855469-0.0341797-0.2382812-0.1035156c-0.0527344-0.0683594-0.0683594-0.1552734-0.046875-0.2617188
		l0.9355469-4.4404297c0.1269531-0.5917969,0.1533203-1.0576172,0.0791016-1.3955078
		c-0.0742188-0.3388672-0.2294922-0.5761719-0.4677734-0.7138672s-0.5205078-0.2060547-0.8486328-0.2060547
		c-0.2851562,0-0.5947266,0.0683594-0.9277344,0.2060547s-0.6396484,0.375-0.9199219,0.7138672
		c-0.2802734,0.3378906-0.4833984,0.8037109-0.6103516,1.3955078l-0.9521484,4.4404297
		c-0.0214844,0.1064453-0.0712891,0.1933594-0.1503906,0.2617188c-0.0791016,0.0693359-0.171875,0.1035156-0.2773438,0.1035156
		h-0.7460938c-0.1054688,0-0.1875-0.0341797-0.2451172-0.1035156c-0.0585938-0.0683594-0.0771484-0.1552734-0.0556641-0.2617188
		l0.9511719-4.4404297c0.1269531-0.5917969,0.1484375-1.0576172,0.0634766-1.3955078
		c-0.0849609-0.3388672-0.2431641-0.5761719-0.4755859-0.7138672s-0.5126953-0.2060547-0.8408203-0.2060547
		c-0.2753906,0-0.5791016,0.0683594-0.9121094,0.2060547s-0.6396484,0.375-0.9199219,0.7138672
		c-0.2802734,0.3378906-0.4833984,0.7978516-0.6103516,1.3798828l-0.9511719,4.4560547
		c-0.0214844,0.1064453-0.0722656,0.1933594-0.1513672,0.2617188c-0.0791016,0.0693359-0.171875,0.1035156-0.2773438,0.1035156
		H406.0332031z"/>
	<path fill="#E5E5E5" d="M424.5839844,184.7011719c-0.1455078,0-0.2539062-0.046875-0.3271484-0.1416016
		c-0.0722656-0.0947266-0.0947266-0.2148438-0.0654297-0.359375l3.03125-14.2373047
		c0.0283203-0.1601562,0.0976562-0.2871094,0.2070312-0.3818359s0.2363281-0.1416016,0.3818359-0.1416016h5.9082031
		c0.9882812,0,1.7988281,0.1777344,2.4306641,0.5341797c0.6328125,0.3564453,1.0791016,0.8388672,1.3408203,1.4492188
		c0.2617188,0.6113281,0.3125,1.2939453,0.1533203,2.0498047c-0.1455078,0.6396484-0.3603516,1.1738281-0.6435547,1.6025391
		s-0.5957031,0.7705078-0.9375,1.0244141c-0.3417969,0.2548828-0.6728516,0.4472656-0.9921875,0.578125
		c0.5087891,0.3203125,0.9228516,0.78125,1.2431641,1.3847656c0.3193359,0.6035156,0.3847656,1.3476562,0.1962891,2.234375
		c-0.1748047,0.7998047-0.4833984,1.5341797-0.9267578,2.2021484c-0.4433594,0.6689453-1.0537109,1.203125-1.8320312,1.6025391
		c-0.7773438,0.4003906-1.7470703,0.5996094-2.9101562,0.5996094H424.5839844z M426.5898438,182.9355469h4.2080078
		c0.9013672,0,1.6757812-0.2548828,2.3222656-0.7636719s1.0498047-1.1337891,1.2099609-1.875
		c0.1601562-0.7705078,0.0722656-1.40625-0.2617188-1.9072266c-0.3339844-0.5019531-1.0390625-0.7529297-2.1142578-0.7529297
		h-4.2304688L426.5898438,182.9355469z M428.0947266,175.8925781h3.9248047c0.9003906,0,1.65625-0.2138672,2.2666016-0.6425781
		c0.6113281-0.4287109,0.9960938-1.0146484,1.15625-1.7558594c0.1738281-0.7412109,0.0869141-1.3076172-0.2617188-1.7001953
		s-0.9814453-0.5888672-1.8974609-0.5888672h-4.1855469L428.0947266,175.8925781z"/>
	<path fill="#E5E5E5" d="M439.0068359,184.7011719c-0.1601562,0-0.2763672-0.046875-0.3486328-0.1416016
		c-0.0732422-0.0947266-0.0947266-0.2148438-0.0654297-0.359375l3.0527344-14.2597656
		c0.0283203-0.1445312,0.0976562-0.2646484,0.2070312-0.359375s0.2363281-0.1416016,0.3818359-0.1416016h1.1767578
		c0.1455078,0,0.2578125,0.046875,0.3378906,0.1416016s0.1054688,0.2148438,0.0761719,0.359375l-3.0517578,14.2597656
		c-0.0292969,0.1445312-0.0986328,0.2646484-0.2070312,0.359375c-0.109375,0.0947266-0.2363281,0.1416016-0.3818359,0.1416016
		H439.0068359z"/>
	<path fill="#E5E5E5" d="M447.8310547,184.7011719c-0.1601562,0-0.2763672-0.046875-0.3496094-0.1416016
		c-0.0722656-0.0947266-0.0947266-0.2148438-0.0654297-0.359375l2.7255859-12.8203125h-4.1855469
		c-0.1455078,0-0.2548828-0.046875-0.3271484-0.1416016c-0.0732422-0.0947266-0.0947266-0.2148438-0.0654297-0.3603516
		l0.1962891-0.9150391c0.0283203-0.1601562,0.0976562-0.2871094,0.2070312-0.3818359
		c0.1083984-0.0947266,0.2431641-0.1416016,0.4033203-0.1416016h10.5087891c0.1591797,0,0.2724609,0.046875,0.3378906,0.1416016
		s0.0830078,0.2216797,0.0546875,0.3818359l-0.1962891,0.9150391c-0.0292969,0.1455078-0.0986328,0.265625-0.2070312,0.3603516
		c-0.109375,0.0947266-0.2441406,0.1416016-0.4033203,0.1416016h-4.1650391l-2.7246094,12.8203125
		c-0.0292969,0.1445312-0.0986328,0.2646484-0.2070312,0.359375c-0.109375,0.0947266-0.2441406,0.1416016-0.4033203,0.1416016
		H447.8310547z"/>
	<path fill="#E5E5E5" d="M461.0771484,184.9189453c-1.2646484,0-2.296875-0.1884766-3.0957031-0.5664062
		c-0.7998047-0.3779297-1.3779297-0.8798828-1.7333984-1.5048828c-0.3564453-0.6240234-0.4833984-1.2861328-0.3818359-1.9833984
		c0.0146484-0.1162109,0.0654297-0.2216797,0.1523438-0.3164062c0.0878906-0.0947266,0.1962891-0.1416016,0.3271484-0.1416016
		h1.1992188c0.1601562,0,0.2724609,0.0429688,0.3378906,0.1308594c0.0654297,0.0869141,0.1123047,0.1884766,0.1416016,0.3046875
		c0,0.3496094,0.1054688,0.6943359,0.3164062,1.0361328s0.5449219,0.625,1.0029297,0.8496094
		c0.4580078,0.2255859,1.0644531,0.3388672,1.8203125,0.3388672c1.25,0,2.2314453-0.2216797,2.9433594-0.6650391
		c0.7128906-0.4433594,1.1484375-1.0361328,1.3085938-1.7773438c0.1162109-0.5087891,0.0507812-0.9189453-0.1962891-1.2314453
		s-0.6650391-0.5927734-1.2539062-0.8398438c-0.5878906-0.2470703-1.3623047-0.515625-2.3212891-0.8066406
		c-0.9892578-0.3056641-1.7880859-0.6542969-2.3984375-1.046875s-1.0253906-0.875-1.2431641-1.4492188
		s-0.2392578-1.2753906-0.0654297-2.1044922c0.2617188-1.1767578,0.9013672-2.1259766,1.9189453-2.8447266
		c1.0175781-0.7197266,2.3613281-1.0800781,4.0332031-1.0800781c0.8867188,0,1.6494141,0.1201172,2.2890625,0.3603516
		c0.6396484,0.2392578,1.1630859,0.5595703,1.5703125,0.9589844c0.40625,0.4003906,0.6865234,0.8291016,0.8388672,1.2861328
		c0.1533203,0.4580078,0.1933594,0.9052734,0.1201172,1.3417969c-0.0146484,0.1015625-0.0576172,0.1992188-0.1308594,0.2939453
		c-0.0722656,0.0947266-0.1884766,0.1416016-0.3486328,0.1416016h-1.2421875c-0.0878906,0-0.1826172-0.0292969-0.2841797-0.0869141
		c-0.1015625-0.0585938-0.1601562-0.1669922-0.1738281-0.3271484c0.0429688-0.5957031-0.1894531-1.0976562-0.6982422-1.5048828
		c-0.5087891-0.40625-1.1845703-0.6103516-2.0273438-0.6103516c-0.9453125,0-1.7626953,0.1816406-2.453125,0.5449219
		c-0.6904297,0.3642578-1.1230469,0.9306641-1.296875,1.7011719c-0.1015625,0.4941406-0.0517578,0.9042969,0.1523438,1.2314453
		c0.203125,0.3271484,0.5742188,0.6142578,1.1123047,0.8613281c0.5371094,0.2470703,1.2646484,0.5087891,2.1796875,0.7851562
		c1.0908203,0.3193359,1.9628906,0.6757812,2.6162109,1.0683594c0.6542969,0.3925781,1.1044922,0.8681641,1.3525391,1.4277344
		c0.2470703,0.5595703,0.2753906,1.2539062,0.0869141,2.0820312c-0.2763672,1.3671875-0.9775391,2.3984375-2.1035156,3.0966797
		C464.3222656,184.5703125,462.8652344,184.9189453,461.0771484,184.9189453z"/>
</g>
</svg>
