<?xml version="1.0" encoding="utf-8"?>
<!-- Generator: Adobe Illustrator 25.2.3, SVG Export Plug-In . SVG Version: 6.00 Build 0)  -->
<svg version="1.1" id="bits-logo-icon-dark-solid" xmlns="http://www.w3.org/2000/svg" xmlns:xlink="http://www.w3.org/1999/xlink"
	 x="0px" y="0px" viewBox="0 0 181.3999939 218.1000061" enable-background="new 0 0 181.3999939 218.1000061" xml:space="preserve"
	>
<g>
	<path fill="#69C7C3" d="M180,23.2999992C172.3999939,5.0999999,138.8000031-0.6,109.8000031,0
		c-43.5,1-95.5,16.2000008-106.7000046,47.2000008c-5.6999998,15.7999992-3,30.4999962,4.0999999,52.2000008
		c6.3000002,19.5,17.0999985,38.7000046,32.0999985,57.2000046c5.5999985,6.8999939,50.7000008,61.5,78,61.5
		c3.1999969,0,6.1999969-0.8000031,8.8000031-2.3999939c6.1999969-4,5.1999969-12.6999969,3.6999969-25.8999939
		c-2.0999985-18.5-5.3000031-46.5,8.3000031-79.5c9.6999969-23.5,21.1000061-39.5999985,29.3999939-51.2999992
		C177.3999939,44.7999992,184.6999969,34.5999985,180,23.2999992z"/>
</g>
</svg>
