<?xml version="1.0" encoding="utf-8"?>
<!-- Generator: Adobe Illustrator 25.2.3, SVG Export Plug-In . SVG Version: 6.00 Build 0)  -->
<svg version="1.1" id="bits-logo-icon-light-solid" xmlns="http://www.w3.org/2000/svg" xmlns:xlink="http://www.w3.org/1999/xlink"
	 x="0px" y="0px" viewBox="0 0 181.423996 218.052002" enable-background="new 0 0 181.423996 218.052002" xml:space="preserve">
<g>
	<path fill="#256868" d="M179.9559937,23.2989998c-7.5440063-18.1490002-41.1609955-23.9039993-70.1100006-23.25
		C66.3209991,1.0420001,14.3479996,16.2360001,3.089,47.2459984c-5.7259998,15.7709999-2.9849999,30.4989967,4.0749998,52.1629982
		c6.3400002,19.4530029,17.1490002,38.6829987,32.1259995,57.1539917
		c5.6030006,6.9100037,50.7260056,61.4889984,77.9629974,61.4889984c3.2089996,0,6.1699982-0.7579956,8.7900009-2.4400024
		c6.1829987-3.973999,5.1860046-12.7059937,3.6759949-25.923996c-2.1139984-18.5099945-5.3089981-46.4819946,8.3350067-79.5149994
		c9.7079926-23.5039978,21.1009979-39.5870056,29.4190063-51.3289986
		C177.4459991,44.7669983,184.651001,34.5960007,179.9559937,23.2989998z"/>
</g>
</svg>
