<?xml version="1.0" encoding="utf-8"?>
<!-- Generator: Adobe Illustrator 25.2.3, SVG Export Plug-In . SVG Version: 6.00 Build 0)  -->
<svg version="1.1" id="bits-logo-dark" xmlns="http://www.w3.org/2000/svg" xmlns:xlink="http://www.w3.org/1999/xlink" x="0px"
	 y="0px" viewBox="0 0 345.9221191 218.0522766" enable-background="new 0 0 345.9221191 218.0522766" xml:space="preserve">
<path fill="#FFFFFF" d="M179.955658,23.299284c-7.5440063-18.1490002-41.1609955-23.9039993-70.1100082-23.25
	C66.3206558,1.042285,14.3476582,16.2362843,3.0886583,47.2462845c-5.7259998,15.7709999-2.9849999,30.4989929,4.0749993,52.1629944
	c6.3400006,19.4530029,17.1490002,38.6830063,32.1259995,57.1539993
	c5.6030006,6.9100037,50.7260056,61.4889984,77.9629974,61.4889984c3.2089996,0,6.1699982-0.7579956,8.7900009-2.4400024
	c6.1830063-3.973999,5.1860123-12.7059937,3.6760025-25.923996c-2.114006-18.5099945-5.3090057-46.4819946,8.3350067-79.515007
	c9.7079926-23.5039978,21.1009979-39.5870056,29.4190063-51.3289948
	C177.4456635,44.7672844,184.6506653,34.5962868,179.955658,23.299284z M45.5036583,151.524292
	c-14.3579998-17.7080078-24.698-36.0760117-30.7339993-54.5940094c-6.507-19.965004-9.0979996-33.3609962-4.1620007-46.9539948
	C20.139658,23.7212868,67.8376541,9.0102873,110.028656,8.047286c1.5080032-0.0340004,2.9980011-0.0520005,4.4720001-0.0520005
	c9.0299988,0,17.4080048,0.6430001,24.8560028,1.8340001c1.6649933,1.592,2.8800049,3.2849998,3.6159973,5.0559998
	c2.8699951,6.9049997-1.7489929,13.9110003-11.6230011,27.8490028
	c-8.5390091,12.0540009-20.2330093,28.5620003-30.2860031,52.8999977
	c-14.4319992,34.942009-11.0960007,64.1490097-8.8889999,83.4769974c0.9110031,7.970993,1.9420013,17.0050049-0.0530014,18.2859955
	c-0.1620026,0.1040039-0.3320007,0.1920013-0.5,0.2830048C76.0956573,185.8162842,58.4356575,167.475296,45.5036583,151.524292z
	 M160.9456635,54.2192879c-8.5390015,12.053997-20.2330017,28.5620003-30.2859955,52.8989906
	c-14.4320068,34.942009-11.0960083,64.1500168-8.8890076,83.4780045c0.9100037,7.9700012,1.9420013,17.003006-0.0530014,18.2850037
	c-1.3590012,0.8730011-2.9779968,1.2819977-4.8170013,1.2819977c-4.8929977-0.0010071-11.3440018-2.9109955-18.5400009-7.6679993
	c4.0179977-4.496994,3.0920029-12.6529999,1.7630005-24.2919922c-2.1139984-18.5099945-5.3089981-46.4819946,8.3349991-79.515007
	c9.7080002-23.5049973,21.1010056-39.586998,29.4200058-51.329998
	c9.8540039-13.9099998,16.9980011-24.0070019,12.6369934-35.1430016c11.5870056,3.21,19.5370026,8.0989981,22.0529938,14.1529989
	C175.4386597,33.2752876,170.8196716,40.2812843,160.9456635,54.2192879z"/>
<g>
	<path fill="#FFFFFF" d="M187.9250031,130.1482697c4.8440247,0,8.5593567,1.2386475,11.1448059,3.7159424
		c2.5848541,2.4772949,3.878479,5.9745026,3.878479,10.4916382c0,2.3963318-0.5444031,4.6005249-1.6325989,6.6137695
		c-1.0900116,2.0144653-2.6821136,3.6204834-4.776947,4.8168335c-2.0960236,1.198761-4.6947784,1.8513184-7.7974396,1.960083
		l-0.0815582-2.2863617c1.9044952,0,3.8645782,0.2731018,5.8790436,0.8169098
		c2.0126495,0.5437927,3.8639679,1.416275,5.5521545,2.6126251c1.6863708,1.1975708,3.0742645,2.7757874,4.1636658,4.7358704
		c1.0888062,1.9588776,1.6332092,4.3817902,1.6332092,7.2663269c0,3.1032562-0.5178223,5.7158966-1.5510406,7.8379211
		c-1.0350189,2.1232147-2.4090118,3.8114014-4.1237793,5.0633392c-1.7141724,1.2519379-3.6204834,2.1510162-5.7153015,2.6936035
		c-2.0960388,0.5450134-4.2331543,0.8169098-6.4095459,0.8169098h-21.3923492c-0.9262543,0-1.7147675-0.3262787-2.3679199-0.9800415
		c-0.6531677-0.6525574-0.9794464-1.4416656-0.9794464-2.3673248v-50.4594727c0-0.9256592,0.3262787-1.7147675,0.9794464-2.3685303
		c0.6531525-0.6525574,1.4416656-0.9800415,2.3679199-0.9800415H187.9250031z M187.026535,136.5989075h-17.5543518
		l0.9794464-1.388504v20.2497711l-0.8978729-1.0610046h17.5543518c2.3951263,0,4.450058-0.7758179,6.1648407-2.3274536
		c1.7147675-1.5516357,2.5721588-3.8234863,2.5721588-6.8179932c0-2.7757721-0.7758179-4.911087-2.3274536-6.4095459
		C191.966629,137.3481293,189.8029175,136.5989075,187.026535,136.5989075z M187.5981293,160.9307709h-17.7180939
		l0.5715942-0.5715942v21.3107758l-0.6531677-0.7347412h18.1265411c3.1564484,0,5.7563934-0.8168945,7.7974396-2.4494934
		c2.0410461-1.6338043,3.0615692-4.1642761,3.0615692-7.593811c0-2.6658173-0.5443878-4.7080688-1.6325836-6.1231537
		c-1.0894165-1.4150696-2.4906006-2.4096222-4.205368-2.9812012
		C191.2319031,161.2159576,189.4482422,160.9307709,187.5981293,160.9307709z"/>
	<path fill="#FFFFFF" d="M223.6385345,183.9563141c0,0.9256592-0.3407898,1.7147675-1.0205231,2.3673248
		c-0.6815643,0.6537628-1.483963,0.9800415-2.4090271,0.9800415c-1.0344238,0-1.8652191-0.3262787-2.489975-0.9800415
		c-0.6265717-0.6525574-0.9389648-1.4416656-0.9389648-2.3673248v-50.4594727c0-0.9256592,0.3262787-1.7147675,0.9794464-2.3685303
		c0.6531525-0.6525574,1.4966431-0.9800415,2.5310669-0.9800415c0.9250641,0,1.7147675,0.3274841,2.3679352,0.9800415
		c0.6531525,0.6537628,0.9800415,1.4428711,0.9800415,2.3685303V183.9563141z"/>
	<path fill="#FFFFFF" d="M235.7530975,136.4357605c-0.9256592,0-1.7147675-0.2984772-2.3673248-0.8978577
		c-0.6531525-0.5981903-0.9794312-1.3607025-0.9794312-2.2863617c0-0.9256744,0.3262787-1.6736908,0.9794312-2.245285
		c0.6525574-0.571579,1.4416656-0.8579865,2.3673248-0.8579865h37.9678497c0.924469,0,1.7147827,0.2996979,2.3673401,0.8990784
		c0.6537476,0.5993805,0.9800415,1.3607025,0.9800415,2.2851562c0,0.9268646-0.3262939,1.674881-0.9800415,2.2452698
		c-0.6525574,0.5715942-1.4428711,0.8579865-2.3673401,0.8579865H235.7530975z M254.6965485,187.3036804
		c-1.0344238,0-1.8658295-0.3262787-2.4905853-0.9800415c-0.6259766-0.6525574-0.9389648-1.4416656-0.9389648-2.3673248v-50.3784943
		h6.9400635v50.3784943c0,0.9256592-0.3262939,1.7147675-0.9800415,2.3673248
		C256.5744629,186.9774017,255.7297668,187.3036804,254.6965485,187.3036804z"/>
	<path fill="#FFFFFF" d="M301.6527405,188.120575c-4.0289001,0-7.5660095-0.6005859-10.613678-1.796936
		c-3.0488892-1.1963501-5.9890137-3.102066-8.8179626-5.7147064c-0.3818665-0.3274841-0.6948547-0.7359314-0.9389648-1.2253418
		c-0.2453003-0.4894257-0.3673706-1.0066376-0.3673706-1.5516357c0-0.8700714,0.3117981-1.6458893,0.9389648-2.3262482
		c0.6247559-0.6803436,1.4005737-1.0211182,2.3262329-1.0211182c0.761322,0,1.4416809,0.2996826,2.0410461,0.8978577
		c2.12323,2.0700531,4.4228821,3.6482697,6.900177,4.7358704c2.4761047,1.0900116,5.2663574,1.6325989,8.3684387,1.6325989
		c2.3951111,0,4.5449219-0.3794556,6.4506226-1.141983c1.90448-0.7625122,3.4295349-1.8235168,4.5727234-3.1854248
		c1.1431885-1.3594971,1.7147827-2.9389191,1.7147827-4.7346649c0-2.177597-0.6127014-3.9733276-1.8380432-5.3896179
		c-1.2241516-1.4150848-2.912323-2.5848389-5.0621338-3.5105133c-2.1510315-0.9256592-4.6404114-1.7413483-7.4705505-2.4494934
		c-2.5038757-0.598175-4.8047485-1.3196106-6.8989868-2.1643066c-2.0966187-0.8434906-3.920166-1.9044952-5.4705811-3.1842346
		c-1.5516357-1.2785187-2.749176-2.828949-3.5926819-4.6536865c-0.844696-1.8235321-1.266449-3.9866333-1.266449-6.4917145
		c0-3.102066,0.816925-5.80896,2.4495239-8.1243286c1.6337891-2.3129425,3.9056702-4.1231842,6.8179932-5.4294891
		c2.9111023-1.3063202,6.2463989-1.9588776,10.0022278-1.9588776c3.3195801,0,6.4639282,0.5437927,9.4306335,1.6325989
		c2.9667053,1.0899963,5.3485413,2.5860443,7.1442566,4.4905396c1.0888062,1.0344238,1.6338196,2.0700531,1.6338196,3.1032715
		c0,0.7625122-0.3407898,1.4827423-1.0211182,2.1631012c-0.6815796,0.6815491-1.4573975,1.0211182-2.3274536,1.0211182
		c-0.5993958,0-1.1431885-0.1909332-1.6325989-0.571579c-0.9256592-1.0332184-2.1099243-1.960083-3.5516052-2.7757874
		c-1.4428711-0.8168945-2.9945068-1.4706573-4.6536865-1.960083c-1.6615906-0.4894104-3.3352661-0.734726-5.0222473-0.734726
		c-2.5038757,0-4.7092896,0.3673706-6.6137695,1.1020966c-1.9057007,0.734726-3.3884583,1.7558594-4.4494629,3.0621796
		s-1.5927124,2.8857422-1.5927124,4.7358551c0,2.0688477,0.598175,3.7691193,1.796936,5.1032257
		c1.1963501,1.3341217,2.8023682,2.4217072,4.8168335,3.2651978c2.0132446,0.844696,4.2464294,1.5927124,6.6959229,2.2452698
		c2.6658325,0.6537628,5.1298218,1.4029999,7.3883972,2.245285c2.2585449,0.844696,4.2053528,1.8924103,5.8391418,3.1443481
		c1.6325989,1.2519379,2.8978577,2.8446503,3.7957153,4.7757416c0.8990784,1.9334869,1.3474121,4.3153229,1.3474121,7.1442719
		c0,2.9945068-0.844696,5.662735-2.5304871,8.0022583c-1.6881714,2.340744-3.9890442,4.1920624-6.9001465,5.5515594
		C308.5794983,187.4390259,305.2998047,188.120575,301.6527405,188.120575z"/>
</g>
</svg>
