<?xml version="1.0" encoding="utf-8"?>
<!-- Generator: Adobe Illustrator 25.2.3, SVG Export Plug-In . SVG Version: 6.00 Build 0)  -->
<svg version="1.1" id="bits-logo-icon-light" xmlns="http://www.w3.org/2000/svg" xmlns:xlink="http://www.w3.org/1999/xlink"
	 x="0px" y="0px" viewBox="0 0 181.4250031 218.052002" enable-background="new 0 0 181.4250031 218.052002" xml:space="preserve">
<path fill="#00133A" d="M179.9559937,23.2989998c-7.5440063-18.1490002-41.1609955-23.9039993-70.1100006-23.25
	C66.3209991,1.0420001,14.3479996,16.2360001,3.089,47.2459984c-5.7259998,15.7709999-2.9849999,30.4989967,4.0749998,52.1629982
	c6.3400002,19.4530029,17.1490002,38.6829987,32.1259995,57.1539917
	c5.6030006,6.9100037,50.7260056,61.4889984,77.9629974,61.4889984c3.2089996,0,6.1699982-0.7579956,8.7900009-2.4400024
	c6.1829987-3.973999,5.1860046-12.7059937,3.6759949-25.923996c-2.1139984-18.5099945-5.3089981-46.4819946,8.3350067-79.5149994
	c9.7079926-23.5039978,21.1009979-39.5870056,29.4190063-51.3289986
	C177.4459991,44.7669983,184.651001,34.5960007,179.9559937,23.2989998z M45.5040016,151.5240021
	c-14.3580017-17.7080078-24.6980019-36.076004-30.7340012-54.5940018c-6.507-19.965004-9.0979996-33.3610001-4.1620007-46.9539986
	c9.5319996-26.2550011,57.2299957-40.9660034,99.4209976-41.9290009c1.5080032-0.0340004,2.9980011-0.052,4.4720001-0.052
	c9.0299988,0,17.4079971,0.6429996,24.8559952,1.8339996c1.6649933,1.592,2.8800049,3.2849998,3.6159973,5.0560007
	c2.8699951,6.9050007-1.7489929,13.9110012-11.6230011,27.8490009
	c-8.5390015,12.0540009-20.2330017,28.5620041-30.2859955,52.9000015
	c-14.4319992,34.9420013-11.0960007,64.1490021-8.8889999,83.4769897c0.9110031,7.970993,1.9420013,17.0050049-0.0530014,18.2859955
	c-0.1620026,0.1040039-0.3320007,0.1920013-0.5,0.2830048C76.0960007,185.8159943,58.4360008,167.4750061,45.5040016,151.5240021z
	 M160.9459991,54.2190018c-8.5390015,12.0540009-20.2330017,28.5620041-30.2859955,52.8989944
	c-14.4319992,34.9420013-11.0960007,64.1500092-8.8889999,83.4779968c0.9100037,7.9700012,1.9420013,17.003006-0.0530014,18.2850037
	c-1.3590012,0.8730011-2.9779968,1.2819977-4.8170013,1.2819977c-4.8929977-0.0010071-11.3440018-2.9109955-18.5400009-7.6679993
	c4.0179977-4.496994,3.0920029-12.6529999,1.7630005-24.2919922c-2.1139984-18.5099945-5.3089981-46.4819946,8.3349991-79.5149994
	c9.7080002-23.5049973,21.1009979-39.5870018,29.4199982-51.3300018c9.8540039-13.9099998,16.9980011-24.007,12.6369934-35.1430016
	c11.5870056,3.21,19.5370026,8.098999,22.0529938,14.1529999C175.4389954,33.2750015,170.8200073,40.2809982,160.9459991,54.2190018
	z"/>
</svg>
