<?xml version="1.0" encoding="utf-8"?>
<!-- Generator: Adobe Illustrator 25.2.3, SVG Export Plug-In . SVG Version: 6.00 Build 0)  -->
<svg version="1.1" id="full-bacnet-logo-light" xmlns="http://www.w3.org/2000/svg" xmlns:xlink="http://www.w3.org/1999/xlink"
	 x="0px" y="0px" viewBox="0 0 665.9980469 218.0522766" enable-background="new 0 0 665.9980469 218.0522766" xml:space="preserve"
	>
<path fill="#00133A" d="M179.955658,23.299284c-7.5440063-18.1490002-41.1609955-23.9039993-70.1100082-23.25
	C66.3206558,1.0422857,14.3476582,16.2362843,3.0886583,47.2462845
	c-5.7259998,15.7709999-2.9849999,30.4989929,4.0749993,52.1629944
	c6.3400006,19.4530029,17.1490002,38.6830063,32.1259995,57.1539993
	c5.6030006,6.9100037,50.7260056,61.4889984,77.9629974,61.4889984c3.2089996,0,6.1699982-0.7579956,8.7900009-2.4400024
	c6.1830063-3.973999,5.1860123-12.7059937,3.6760025-25.923996c-2.114006-18.5099945-5.3090057-46.4819946,8.3350067-79.515007
	c9.7079926-23.5039978,21.1009979-39.5870056,29.4190063-51.3289948
	C177.4456635,44.7672844,184.6506653,34.5962868,179.955658,23.299284z M45.5036583,151.524292
	c-14.3579998-17.7080078-24.698-36.0760117-30.7339993-54.5940094c-6.507-19.965004-9.0979996-33.3609962-4.1620007-46.9539948
	C20.139658,23.7212868,67.8376541,9.0102882,110.028656,8.047287c1.5080032-0.0340004,2.9980011-0.052001,4.4720001-0.052001
	c9.0299988,0,17.4080048,0.6430006,24.8560028,1.8340006c1.6649933,1.592,2.8800049,3.2849998,3.6159973,5.0559998
	c2.8699951,6.9049988-1.7489929,13.9109993-11.6230011,27.8490009
	c-8.5390091,12.0540009-20.2330093,28.5620003-30.2860031,52.8999977
	c-14.4319992,34.942009-11.0960007,64.1490097-8.8889999,83.4769974c0.9110031,7.970993,1.9420013,17.0050049-0.0530014,18.2859955
	c-0.1620026,0.1040039-0.3320007,0.1920013-0.5,0.2830048C76.0956573,185.8162842,58.4356575,167.475296,45.5036583,151.524292z
	 M160.9456635,54.2192879c-8.5390015,12.053997-20.2330017,28.5620003-30.2859955,52.8989906
	c-14.4320068,34.942009-11.0960083,64.1500168-8.8890076,83.4780045c0.9100037,7.9700012,1.9420013,17.003006-0.0530014,18.2850037
	c-1.3590012,0.8730011-2.9779968,1.2819977-4.8170013,1.2819977c-4.8929977-0.0010071-11.3440018-2.9109955-18.5400009-7.6679993
	c4.0179977-4.496994,3.0920029-12.6529999,1.7630005-24.2919922c-2.1139984-18.5099945-5.3089981-46.4819946,8.3349991-79.515007
	c9.7080002-23.5049973,21.1010056-39.586998,29.4200058-51.329998
	c9.8540039-13.9099998,16.9980011-24.0070019,12.6369934-35.1430016c11.5870056,3.21,19.5370026,8.0989981,22.0529938,14.1529989
	C175.4386597,33.2752876,170.8196716,40.2812843,160.9456635,54.2192879z"/>
<g>
	<path fill="#00133A" d="M160.7392578,138.7636719c-0.3520508,0-0.6240234-0.1035156-0.815918-0.3115234
		s-0.2880859-0.4726562-0.2880859-0.7919922v-31.3447266c0-0.3515625,0.0961914-0.6308594,0.2880859-0.8398438
		c0.1918945-0.2080078,0.4638672-0.3115234,0.815918-0.3115234h13.1523438c2.3999023,0,4.3603516,0.3916016,5.8798828,1.1757812
		s2.640625,1.8476562,3.3603516,3.1914062c0.7197266,1.3447266,1.0800781,2.8486328,1.0800781,4.5126953
		c0,1.3125-0.2158203,2.4404297-0.6484375,3.3837891c-0.4316406,0.9443359-0.9677734,1.7119141-1.6074219,2.3037109
		c-0.640625,0.5927734-1.2646484,1.0488281-1.8720703,1.3681641c1.2480469,0.6083984,2.359375,1.6005859,3.3359375,2.9755859
		c0.9755859,1.3769531,1.4638672,3.0410156,1.4638672,4.9921875c0,1.7607422-0.4003906,3.3769531-1.2001953,4.8486328
		s-1.9921875,2.6474609-3.5761719,3.5273438c-1.5839844,0.8808594-3.5444336,1.3203125-5.8798828,1.3203125H160.7392578z
		 M164.3393555,119.3720703h8.8320312c2.0473633,0,3.6000977-0.4716797,4.6567383-1.4160156
		c1.0556641-0.9443359,1.5839844-2.2324219,1.5839844-3.8642578s-0.5283203-2.8798828-1.5839844-3.7441406
		c-1.0566406-0.8642578-2.609375-1.2958984-4.6567383-1.2958984h-8.8320312V119.3720703z M164.3393555,134.8759766h9.2641602
		c2.0795898,0,3.6796875-0.5595703,4.7998047-1.6806641c1.1201172-1.1191406,1.6806641-2.4960938,1.6806641-4.1279297
		c0-1.6953125-0.5605469-3.0957031-1.6806641-4.2001953c-1.1201172-1.1035156-2.7202148-1.6552734-4.7998047-1.6552734h-9.2641602
		V134.8759766z"/>
	<path fill="#00133A" d="M197.8242188,139.2441406c-1.6005859,0-3.0566406-0.3203125-4.3681641-0.9609375
		c-1.3125-0.6396484-2.3681641-1.5029297-3.1679688-2.5917969c-0.7998047-1.0869141-1.2001953-2.3193359-1.2001953-3.6953125
		c0-2.2080078,0.8955078-3.9677734,2.6884766-5.2802734c1.7919922-1.3115234,4.1279297-2.1757812,7.0078125-2.5917969
		l7.1523438-1.0087891v-1.3916016c0-1.5361328-0.4404297-2.7363281-1.3203125-3.5996094
		c-0.8808594-0.8642578-2.3125-1.2958984-4.2958984-1.2958984c-1.0556641,0-1.9521484,0.1601562-2.6884766,0.4794922
		c-0.7363281,0.3203125-1.3193359,0.7041016-1.7519531,1.1523438c-0.4316406,0.4482422-0.7753906,0.8955078-1.03125,1.34375
		c-0.1289062,0.2880859-0.2646484,0.4960938-0.4082031,0.6240234c-0.1445312,0.1279297-0.3291016,0.1923828-0.5517578,0.1923828
		h-2.0644531c-0.2880859,0-0.5361328-0.1035156-0.7441406-0.3125c-0.2080078-0.2080078-0.3115234-0.4560547-0.3115234-0.7441406
		c0-0.4794922,0.1835938-1.0712891,0.5517578-1.7753906c0.3671875-0.7041016,0.9355469-1.3925781,1.7041016-2.0644531
		c0.7675781-0.671875,1.7519531-1.2392578,2.9521484-1.7041016c1.1992188-0.4628906,2.6640625-0.6962891,4.3916016-0.6962891
		c1.9199219,0,3.5351562,0.2490234,4.8476562,0.7441406c1.3125,0.4970703,2.34375,1.1601562,3.0966797,1.9921875
		c0.7509766,0.8330078,1.2958984,1.7763672,1.6318359,2.8320312s0.5039062,2.1289062,0.5039062,3.2158203v15.5527344
		c0,0.3193359-0.1044922,0.5839844-0.3115234,0.7919922c-0.2089844,0.2080078-0.4726562,0.3115234-0.7919922,0.3115234h-2.2080078
		c-0.3525391,0-0.6240234-0.1035156-0.8164062-0.3115234s-0.2880859-0.4726562-0.2880859-0.7919922v-2.0644531
		c-0.4160156,0.5761719-0.9765625,1.1445312-1.6796875,1.7041016c-0.7041016,0.5605469-1.5839844,1.0244141-2.640625,1.3916016
		C200.65625,139.0595703,199.3603516,139.2441406,197.8242188,139.2441406z M198.8320312,135.6435547
		c1.3115234,0,2.5117188-0.2792969,3.6005859-0.8398438c1.0869141-0.5595703,1.9433594-1.4316406,2.5673828-2.6162109
		c0.6240234-1.1835938,0.9365234-2.6708984,0.9365234-4.4638672v-1.34375l-5.5683594,0.8154297
		c-2.2724609,0.3203125-3.984375,0.8564453-5.1357422,1.6083984c-1.1523438,0.7519531-1.7285156,1.7041016-1.7285156,2.8564453
		c0,0.8955078,0.2646484,1.6396484,0.7919922,2.2314453c0.5283203,0.5927734,1.2001953,1.0322266,2.0166016,1.3203125
		C197.1279297,135.5,197.9677734,135.6435547,198.8320312,135.6435547z"/>
	<path fill="#00133A" d="M226.7050781,139.2441406c-2.2714844,0-4.2324219-0.4404297-5.8789062-1.3203125
		c-1.6484375-0.8798828-2.921875-2.1435547-3.8164062-3.7919922c-0.8964844-1.6474609-1.3769531-3.6240234-1.4404297-5.9277344
		c-0.0322266-0.4804688-0.0478516-1.1201172-0.0478516-1.9208984c0-0.7988281,0.015625-1.4394531,0.0478516-1.9199219
		c0.0634766-2.3037109,0.5439453-4.2792969,1.4404297-5.9277344c0.8945312-1.6474609,2.1679688-2.9111328,3.8164062-3.7919922
		c1.6464844-0.8798828,3.6074219-1.3203125,5.8789062-1.3203125c1.8554688,0,3.4492188,0.2568359,4.7773438,0.7685547
		c1.3261719,0.5117188,2.4238281,1.1679688,3.2871094,1.9677734c0.8632812,0.8007812,1.5117188,1.6640625,1.9433594,2.5917969
		c0.4335938,0.9287109,0.6640625,1.8085938,0.6972656,2.640625c0.03125,0.3203125-0.0644531,0.5751953-0.2890625,0.7675781
		c-0.2226562,0.1923828-0.4960938,0.2880859-0.8144531,0.2880859h-2.3046875c-0.3203125,0-0.5605469-0.0722656-0.7207031-0.2158203
		c-0.1601562-0.1445312-0.3203125-0.3916016-0.4804688-0.7441406c-0.5742188-1.5673828-1.359375-2.671875-2.3515625-3.3125
		c-0.9921875-0.6396484-2.2246094-0.9599609-3.6953125-0.9599609c-1.9199219,0-3.4804688,0.5927734-4.6796875,1.7763672
		c-1.2011719,1.1845703-1.8476562,3.0888672-1.9453125,5.7119141c-0.03125,1.1523438-0.03125,2.2724609,0,3.3603516
		c0.0976562,2.65625,0.7441406,4.5683594,1.9453125,5.7353516c1.1992188,1.1689453,2.7597656,1.7529297,4.6796875,1.7529297
		c1.4707031,0,2.703125-0.3203125,3.6953125-0.9609375c0.9921875-0.6396484,1.7773438-1.7431641,2.3515625-3.3115234
		c0.1601562-0.3515625,0.3203125-0.5996094,0.4804688-0.7441406c0.1601562-0.1435547,0.4003906-0.2158203,0.7207031-0.2158203
		h2.3046875c0.3183594,0,0.5917969,0.0957031,0.8144531,0.2880859c0.2246094,0.1914062,0.3203125,0.4482422,0.2890625,0.7675781
		c-0.0332031,0.671875-0.1757812,1.3603516-0.4316406,2.0644531c-0.2578125,0.7041016-0.6660156,1.4160156-1.2246094,2.1357422
		c-0.5605469,0.7197266-1.2558594,1.3603516-2.0878906,1.9199219c-0.8320312,0.5605469-1.8320312,1.0078125-3,1.34375
		S228.1777344,139.2441406,226.7050781,139.2441406z"/>
	<path fill="#00133A" d="M243.3710938,138.7636719c-0.3203125,0-0.5849609-0.1035156-0.7919922-0.3115234
		c-0.2089844-0.2080078-0.3125-0.4726562-0.3125-0.7919922v-22.7529297c0-0.3193359,0.1035156-0.5830078,0.3125-0.7919922
		c0.2070312-0.2070312,0.4716797-0.3115234,0.7919922-0.3115234h2.2558594c0.3193359,0,0.5830078,0.1044922,0.7919922,0.3115234
		c0.2080078,0.2089844,0.3115234,0.4726562,0.3115234,0.7919922v2.1123047
		c0.8320312-1.0869141,1.8798828-1.9755859,3.1445312-2.6640625c1.2636719-0.6875,2.8876953-1.0322266,4.8720703-1.0322266
		c2.0791016,0,3.8476562,0.4560547,5.3037109,1.3681641s2.5517578,2.1767578,3.2880859,3.7919922
		c0.7353516,1.6162109,1.1035156,3.4970703,1.1035156,5.640625v13.5361328c0,0.3193359-0.0957031,0.5839844-0.2871094,0.7919922
		c-0.1923828,0.2080078-0.4492188,0.3115234-0.7685547,0.3115234h-2.3994141c-0.3203125,0-0.5849609-0.1035156-0.7919922-0.3115234
		c-0.2089844-0.2080078-0.3125-0.4726562-0.3125-0.7919922v-13.296875c0-2.2392578-0.5449219-3.9912109-1.6318359-5.2558594
		c-1.0888672-1.2636719-2.6884766-1.8955078-4.7998047-1.8955078c-1.984375,0-3.5761719,0.6318359-4.7763672,1.8955078
		c-1.2001953,1.2646484-1.7998047,3.0166016-1.7998047,5.2558594v13.296875c0,0.3193359-0.1044922,0.5839844-0.3125,0.7919922
		s-0.4716797,0.3115234-0.7919922,0.3115234H243.3710938z"/>
	<path fill="#00133A" d="M280.4599609,139.2441406c-3.296875,0-5.9208984-1.015625-7.8720703-3.0488281
		c-1.9521484-2.03125-3.0244141-4.8076172-3.2158203-8.328125c-0.0322266-0.4150391-0.0488281-0.9511719-0.0488281-1.6074219
		c0-0.6552734,0.0166016-1.1914062,0.0488281-1.6083984c0.1269531-2.2714844,0.6552734-4.2636719,1.5839844-5.9755859
		c0.9277344-1.7119141,2.1992188-3.03125,3.8154297-3.9599609c1.6152344-0.9277344,3.5117188-1.3925781,5.6884766-1.3925781
		c2.4316406,0,4.4716797,0.5126953,6.1201172,1.5361328c1.6474609,1.0244141,2.9033203,2.4804688,3.7675781,4.3681641
		c0.8642578,1.8886719,1.2958984,4.0966797,1.2958984,6.6240234v0.8164062c0,0.3525391-0.1044922,0.6240234-0.3115234,0.8154297
		c-0.2089844,0.1923828-0.4726562,0.2880859-0.7919922,0.2880859h-16.6083984c0,0.0322266,0,0.0957031,0,0.1923828
		c0,0.0957031,0,0.1757812,0,0.2402344c0.0634766,1.3125,0.3515625,2.5361328,0.8642578,3.671875
		c0.5117188,1.1357422,1.2480469,2.0566406,2.2080078,2.7597656c0.9599609,0.7041016,2.1113281,1.0556641,3.4560547,1.0556641
		c1.1513672,0,2.1113281-0.1748047,2.8798828-0.5273438c0.7675781-0.3525391,1.3916016-0.7441406,1.8720703-1.1767578
		c0.4794922-0.4316406,0.7988281-0.7597656,0.9599609-0.9833984c0.2880859-0.4160156,0.5117188-0.6640625,0.671875-0.7441406
		s0.4150391-0.1201172,0.7675781-0.1201172h2.3046875c0.3193359,0,0.5830078,0.0888672,0.7919922,0.2636719
		c0.2070312,0.1767578,0.2949219,0.4248047,0.2636719,0.7441406c-0.0322266,0.4804688-0.2880859,1.0644531-0.7675781,1.7519531
		c-0.4804688,0.6884766-1.1689453,1.3681641-2.0644531,2.0400391c-0.8964844,0.671875-1.984375,1.2246094-3.2636719,1.65625
		C283.5957031,139.0273438,282.1230469,139.2441406,280.4599609,139.2441406z M273.9316406,124.4599609h13.1523438v-0.1445312
		c0-1.4394531-0.2646484-2.7197266-0.7919922-3.8398438c-0.5283203-1.1201172-1.2890625-2.0078125-2.2802734-2.6640625
		c-0.9921875-0.6552734-2.1767578-0.9833984-3.5517578-0.9833984c-1.3769531,0-2.5527344,0.328125-3.5283203,0.9833984
		c-0.9765625,0.65625-1.7207031,1.5439453-2.2324219,2.6640625s-0.7675781,2.4003906-0.7675781,3.8398438V124.4599609z"/>
	<path fill="#00133A" d="M306.2021484,138.7636719c-1.7919922,0-3.2480469-0.34375-4.3681641-1.0322266
		c-1.1201172-0.6875-1.9365234-1.6630859-2.4472656-2.9277344c-0.5126953-1.2636719-0.7685547-2.7597656-0.7685547-4.4882812
		v-12.671875h-3.7441406c-0.3203125,0-0.5839844-0.1035156-0.7919922-0.3115234s-0.3115234-0.4716797-0.3115234-0.7919922
		v-1.6328125c0-0.3193359,0.1035156-0.5830078,0.3115234-0.7919922c0.2080078-0.2070312,0.4716797-0.3115234,0.7919922-0.3115234
		h3.7441406v-8.015625c0-0.3203125,0.1035156-0.5839844,0.3125-0.7919922c0.2070312-0.2080078,0.4716797-0.3125,0.7919922-0.3125
		h2.2558594c0.3193359,0,0.5830078,0.1044922,0.7919922,0.3125c0.2070312,0.2080078,0.3115234,0.4716797,0.3115234,0.7919922
		v8.015625h5.9521484c0.3193359,0,0.5839844,0.1044922,0.7919922,0.3115234c0.2080078,0.2089844,0.3125,0.4726562,0.3125,0.7919922
		v1.6328125c0,0.3203125-0.1044922,0.5839844-0.3125,0.7919922s-0.4726562,0.3115234-0.7919922,0.3115234h-5.9521484v12.3359375
		c0,1.5048828,0.2558594,2.6884766,0.7685547,3.5517578c0.5107422,0.8642578,1.4228516,1.296875,2.7353516,1.296875h2.9287109
		c0.3193359,0,0.5830078,0.1035156,0.7919922,0.3115234c0.2070312,0.2089844,0.3115234,0.4726562,0.3115234,0.7919922v1.7285156
		c0,0.3193359-0.1044922,0.5839844-0.3115234,0.7919922c-0.2089844,0.2080078-0.4726562,0.3115234-0.7919922,0.3115234H306.2021484z
		"/>
	<path fill="#00133A" d="M328.7138672,138.7636719c-0.3525391,0-0.6240234-0.1035156-0.8164062-0.3115234
		c-0.1914062-0.2080078-0.2880859-0.4726562-0.2880859-0.7919922v-31.3925781c0-0.3193359,0.0966797-0.5830078,0.2880859-0.7919922
		c0.1923828-0.2080078,0.4638672-0.3115234,0.8164062-0.3115234h2.5439453c0.3193359,0,0.5830078,0.1035156,0.7919922,0.3115234
		c0.2080078,0.2089844,0.3115234,0.4726562,0.3115234,0.7919922v31.3925781c0,0.3193359-0.1035156,0.5839844-0.3115234,0.7919922
		c-0.2089844,0.2080078-0.4726562,0.3115234-0.7919922,0.3115234H328.7138672z"/>
	<path fill="#00133A" d="M340.0410156,138.7636719c-0.3203125,0-0.5849609-0.1035156-0.7919922-0.3115234
		c-0.2089844-0.2080078-0.3125-0.4726562-0.3125-0.7919922v-22.7529297c0-0.3193359,0.1035156-0.5830078,0.3125-0.7919922
		c0.2070312-0.2070312,0.4716797-0.3115234,0.7919922-0.3115234h2.2558594c0.3193359,0,0.5830078,0.1044922,0.7919922,0.3115234
		c0.2080078,0.2089844,0.3115234,0.4726562,0.3115234,0.7919922v2.1123047
		c0.8320312-1.0869141,1.8798828-1.9755859,3.1445312-2.6640625c1.2636719-0.6875,2.8876953-1.0322266,4.8720703-1.0322266
		c2.0791016,0,3.8476562,0.4560547,5.3037109,1.3681641s2.5517578,2.1767578,3.2880859,3.7919922
		c0.7353516,1.6162109,1.1035156,3.4970703,1.1035156,5.640625v13.5361328c0,0.3193359-0.0957031,0.5839844-0.2871094,0.7919922
		c-0.1923828,0.2080078-0.4492188,0.3115234-0.7685547,0.3115234h-2.3994141c-0.3203125,0-0.5849609-0.1035156-0.7919922-0.3115234
		c-0.2089844-0.2080078-0.3125-0.4726562-0.3125-0.7919922v-13.296875c0-2.2392578-0.5449219-3.9912109-1.6318359-5.2558594
		c-1.0888672-1.2636719-2.6884766-1.8955078-4.7998047-1.8955078c-1.984375,0-3.5761719,0.6318359-4.7763672,1.8955078
		c-1.2001953,1.2646484-1.7998047,3.0166016-1.7998047,5.2558594v13.296875c0,0.3193359-0.1044922,0.5839844-0.3125,0.7919922
		s-0.4716797,0.3115234-0.7919922,0.3115234H340.0410156z"/>
	<path fill="#00133A" d="M376.4628906,138.7636719c-1.7919922,0-3.2480469-0.34375-4.3681641-1.0322266
		c-1.1201172-0.6875-1.9365234-1.6630859-2.4472656-2.9277344c-0.5126953-1.2636719-0.7685547-2.7597656-0.7685547-4.4882812
		v-12.671875h-3.7441406c-0.3203125,0-0.5839844-0.1035156-0.7919922-0.3115234s-0.3115234-0.4716797-0.3115234-0.7919922
		v-1.6328125c0-0.3193359,0.1035156-0.5830078,0.3115234-0.7919922c0.2080078-0.2070312,0.4716797-0.3115234,0.7919922-0.3115234
		h3.7441406v-8.015625c0-0.3203125,0.1035156-0.5839844,0.3125-0.7919922c0.2070312-0.2080078,0.4716797-0.3125,0.7919922-0.3125
		h2.2558594c0.3193359,0,0.5830078,0.1044922,0.7919922,0.3125c0.2070312,0.2080078,0.3115234,0.4716797,0.3115234,0.7919922
		v8.015625h5.9521484c0.3193359,0,0.5839844,0.1044922,0.7919922,0.3115234c0.2080078,0.2089844,0.3125,0.4726562,0.3125,0.7919922
		v1.6328125c0,0.3203125-0.1044922,0.5839844-0.3125,0.7919922s-0.4726562,0.3115234-0.7919922,0.3115234h-5.9521484v12.3359375
		c0,1.5048828,0.2558594,2.6884766,0.7685547,3.5517578c0.5107422,0.8642578,1.4228516,1.296875,2.7353516,1.296875h2.9287109
		c0.3193359,0,0.5830078,0.1035156,0.7919922,0.3115234c0.2070312,0.2089844,0.3115234,0.4726562,0.3115234,0.7919922v1.7285156
		c0,0.3193359-0.1044922,0.5839844-0.3115234,0.7919922c-0.2089844,0.2080078-0.4726562,0.3115234-0.7919922,0.3115234H376.4628906z
		"/>
	<path fill="#00133A" d="M394.2705078,139.2441406c-3.296875,0-5.9208984-1.015625-7.8720703-3.0488281
		c-1.9521484-2.03125-3.0244141-4.8076172-3.2158203-8.328125c-0.0322266-0.4150391-0.0488281-0.9511719-0.0488281-1.6074219
		c0-0.6552734,0.0166016-1.1914062,0.0488281-1.6083984c0.1269531-2.2714844,0.6552734-4.2636719,1.5839844-5.9755859
		c0.9277344-1.7119141,2.1992188-3.03125,3.8154297-3.9599609c1.6152344-0.9277344,3.5117188-1.3925781,5.6884766-1.3925781
		c2.4316406,0,4.4716797,0.5126953,6.1201172,1.5361328c1.6474609,1.0244141,2.9033203,2.4804688,3.7675781,4.3681641
		c0.8642578,1.8886719,1.2958984,4.0966797,1.2958984,6.6240234v0.8164062c0,0.3525391-0.1044922,0.6240234-0.3115234,0.8154297
		c-0.2089844,0.1923828-0.4726562,0.2880859-0.7919922,0.2880859h-16.6083984c0,0.0322266,0,0.0957031,0,0.1923828
		c0,0.0957031,0,0.1757812,0,0.2402344c0.0634766,1.3125,0.3515625,2.5361328,0.8642578,3.671875
		c0.5117188,1.1357422,1.2480469,2.0566406,2.2080078,2.7597656c0.9599609,0.7041016,2.1113281,1.0556641,3.4560547,1.0556641
		c1.1513672,0,2.1113281-0.1748047,2.8798828-0.5273438c0.7675781-0.3525391,1.3916016-0.7441406,1.8720703-1.1767578
		c0.4794922-0.4316406,0.7988281-0.7597656,0.9599609-0.9833984c0.2880859-0.4160156,0.5117188-0.6640625,0.671875-0.7441406
		s0.4150391-0.1201172,0.7675781-0.1201172h2.3046875c0.3193359,0,0.5830078,0.0888672,0.7919922,0.2636719
		c0.2070312,0.1767578,0.2949219,0.4248047,0.2636719,0.7441406c-0.0322266,0.4804688-0.2880859,1.0644531-0.7675781,1.7519531
		c-0.4804688,0.6884766-1.1689453,1.3681641-2.0644531,2.0400391c-0.8964844,0.671875-1.984375,1.2246094-3.2636719,1.65625
		C397.40625,139.0273438,395.9335938,139.2441406,394.2705078,139.2441406z M387.7421875,124.4599609h13.1523438v-0.1445312
		c0-1.4394531-0.2646484-2.7197266-0.7919922-3.8398438c-0.5283203-1.1201172-1.2890625-2.0078125-2.2802734-2.6640625
		c-0.9921875-0.6552734-2.1767578-0.9833984-3.5517578-0.9833984c-1.3769531,0-2.5527344,0.328125-3.5283203,0.9833984
		c-0.9765625,0.65625-1.7207031,1.5439453-2.2324219,2.6640625s-0.7675781,2.4003906-0.7675781,3.8398438V124.4599609z"/>
	<path fill="#00133A" d="M411.4638672,138.7636719c-0.3203125,0-0.5849609-0.1035156-0.7919922-0.3115234
		c-0.2089844-0.2080078-0.3125-0.4726562-0.3125-0.7919922v-22.7041016c0-0.3203125,0.1035156-0.5917969,0.3125-0.8164062
		c0.2070312-0.2236328,0.4716797-0.3359375,0.7919922-0.3359375h2.2080078c0.3193359,0,0.5917969,0.1123047,0.8154297,0.3359375
		c0.2236328,0.2246094,0.3359375,0.4960938,0.3359375,0.8164062v2.1113281
		c0.6396484-1.0869141,1.5195312-1.9033203,2.640625-2.4472656c1.1191406-0.5439453,2.4638672-0.8164062,4.0322266-0.8164062
		h1.9199219c0.3193359,0,0.5751953,0.1044922,0.7675781,0.3115234c0.1923828,0.2089844,0.2880859,0.4726562,0.2880859,0.7919922
		v1.96875c0,0.3203125-0.0957031,0.5761719-0.2880859,0.7675781c-0.1923828,0.1923828-0.4482422,0.2880859-0.7675781,0.2880859
		h-2.8808594c-1.7275391,0-3.0878906,0.5039062-4.0791016,1.5117188c-0.9931641,1.0087891-1.4882812,2.3759766-1.4882812,4.1044922
		v14.1123047c0,0.3193359-0.1123047,0.5839844-0.3359375,0.7919922c-0.2246094,0.2080078-0.4970703,0.3115234-0.8164062,0.3115234
		H411.4638672z"/>
	<path fill="#00133A" d="M438.0322266,139.2441406c-2.4326172,0-4.4648438-0.4648438-6.0966797-1.3925781
		s-2.8798828-2.2158203-3.7441406-3.8642578c-0.8632812-1.6474609-1.34375-3.5273438-1.4394531-5.6396484
		c-0.0322266-0.5439453-0.0478516-1.2392578-0.0478516-2.0878906c0-0.8476562,0.015625-1.5283203,0.0478516-2.0400391
		c0.0957031-2.1435547,0.5830078-4.0322266,1.4638672-5.6640625c0.8798828-1.6318359,2.1357422-2.9111328,3.7675781-3.8398438
		c1.6328125-0.9277344,3.6484375-1.3925781,6.0488281-1.3925781c2.3994141,0,4.4160156,0.4648438,6.0478516,1.3925781
		c1.6318359,0.9287109,2.8876953,2.2080078,3.7675781,3.8398438s1.3681641,3.5205078,1.4638672,5.6640625
		c0.0322266,0.5117188,0.0478516,1.1923828,0.0478516,2.0400391c0,0.8486328-0.015625,1.5439453-0.0478516,2.0878906
		c-0.0957031,2.1123047-0.5751953,3.9921875-1.4394531,5.6396484c-0.8642578,1.6484375-2.1123047,2.9365234-3.7441406,3.8642578
		S440.4628906,139.2441406,438.0322266,139.2441406z M438.0322266,135.5478516c1.9833984,0,3.5673828-0.6318359,4.7519531-1.8964844
		c1.1835938-1.2636719,1.8232422-3.1113281,1.9199219-5.5439453c0.03125-0.4794922,0.0478516-1.0869141,0.0478516-1.8242188
		c0-0.7353516-0.0166016-1.34375-0.0478516-1.8232422c-0.0966797-2.4316406-0.7363281-4.2802734-1.9199219-5.5439453
		c-1.1845703-1.2636719-2.7685547-1.8964844-4.7519531-1.8964844c-1.9853516,0-3.5761719,0.6328125-4.7763672,1.8964844
		s-1.8320312,3.1123047-1.8964844,5.5439453c-0.0322266,0.4794922-0.0478516,1.0878906-0.0478516,1.8232422
		c0,0.7373047,0.015625,1.3447266,0.0478516,1.8242188c0.0644531,2.4326172,0.6962891,4.2802734,1.8964844,5.5439453
		C434.4560547,134.9160156,436.046875,135.5478516,438.0322266,135.5478516z"/>
	<path fill="#00133A" d="M455.6513672,147.8837891c-0.3203125,0-0.5839844-0.1044922-0.7919922-0.3125
		c-0.2089844-0.2080078-0.3125-0.4716797-0.3125-0.7919922v-31.8720703c0-0.3193359,0.1035156-0.5830078,0.3125-0.7919922
		c0.2080078-0.2070312,0.4716797-0.3115234,0.7919922-0.3115234h2.2080078c0.3193359,0,0.5830078,0.1044922,0.7919922,0.3115234
		c0.2080078,0.2089844,0.3115234,0.4726562,0.3115234,0.7919922v2.1123047
		c0.7685547-1.0556641,1.7919922-1.9355469,3.0722656-2.6396484c1.2792969-0.7041016,2.8798828-1.0566406,4.7998047-1.0566406
		c1.7919922,0,3.3193359,0.3046875,4.5839844,0.9121094c1.2636719,0.6083984,2.3046875,1.4404297,3.1201172,2.4960938
		c0.8164062,1.0566406,1.4316406,2.2558594,1.8486328,3.6005859c0.4150391,1.34375,0.6396484,2.7832031,0.671875,4.3193359
		c0.03125,0.5126953,0.0478516,1.0566406,0.0478516,1.6318359c0,0.5761719-0.0166016,1.1210938-0.0478516,1.6328125
		c-0.0322266,1.5039062-0.2568359,2.9355469-0.671875,4.2958984c-0.4169922,1.3603516-1.0322266,2.5605469-1.8486328,3.5996094
		c-0.8154297,1.0400391-1.8564453,1.8720703-3.1201172,2.4960938c-1.2646484,0.6240234-2.7919922,0.9365234-4.5839844,0.9365234
		c-1.8554688,0-3.4160156-0.3447266-4.6796875-1.0322266c-1.2646484-0.6884766-2.296875-1.5439453-3.0957031-2.5683594v11.1357422
		c0,0.3203125-0.0966797,0.5839844-0.2880859,0.7919922c-0.1923828,0.2080078-0.4648438,0.3125-0.8164062,0.3125H455.6513672z
		 M465.8271484,135.3554688c1.6640625,0,2.9677734-0.359375,3.9121094-1.0800781
		c0.9433594-0.7197266,1.6240234-1.6630859,2.0400391-2.8320312c0.4150391-1.1669922,0.6552734-2.4238281,0.7197266-3.7675781
		c0.0322266-0.9277344,0.0322266-1.8554688,0-2.7841797c-0.0644531-1.34375-0.3046875-2.5996094-0.7197266-3.7675781
		c-0.4160156-1.1679688-1.0966797-2.1123047-2.0400391-2.8320312c-0.9443359-0.7207031-2.2480469-1.0800781-3.9121094-1.0800781
		c-1.5683594,0-2.8398438,0.3681641-3.8154297,1.1035156c-0.9765625,0.7363281-1.6972656,1.6728516-2.1601562,2.8085938
		c-0.4648438,1.1357422-0.7285156,2.2958984-0.7919922,3.4794922c-0.0322266,0.5126953-0.0478516,1.1210938-0.0478516,1.8242188
		c0,0.7041016,0.015625,1.328125,0.0478516,1.8720703c0.03125,1.1201172,0.2949219,2.2246094,0.7919922,3.3115234
		c0.4951172,1.0888672,1.2392578,1.984375,2.2314453,2.6884766S464.3232422,135.3554688,465.8271484,135.3554688z"/>
	<path fill="#00133A" d="M492.4775391,139.2441406c-3.296875,0-5.9208984-1.015625-7.8720703-3.0488281
		c-1.9521484-2.03125-3.0244141-4.8076172-3.2158203-8.328125c-0.0322266-0.4150391-0.0488281-0.9511719-0.0488281-1.6074219
		c0-0.6552734,0.0166016-1.1914062,0.0488281-1.6083984c0.1269531-2.2714844,0.6552734-4.2636719,1.5839844-5.9755859
		c0.9277344-1.7119141,2.1992188-3.03125,3.8154297-3.9599609c1.6152344-0.9277344,3.5117188-1.3925781,5.6884766-1.3925781
		c2.4316406,0,4.4716797,0.5126953,6.1201172,1.5361328c1.6474609,1.0244141,2.9033203,2.4804688,3.7675781,4.3681641
		c0.8642578,1.8886719,1.2958984,4.0966797,1.2958984,6.6240234v0.8164062c0,0.3525391-0.1044922,0.6240234-0.3115234,0.8154297
		c-0.2089844,0.1923828-0.4726562,0.2880859-0.7919922,0.2880859h-16.6083984c0,0.0322266,0,0.0957031,0,0.1923828
		c0,0.0957031,0,0.1757812,0,0.2402344c0.0634766,1.3125,0.3515625,2.5361328,0.8642578,3.671875
		c0.5117188,1.1357422,1.2480469,2.0566406,2.2080078,2.7597656c0.9599609,0.7041016,2.1113281,1.0556641,3.4560547,1.0556641
		c1.1513672,0,2.1113281-0.1748047,2.8798828-0.5273438c0.7675781-0.3525391,1.3916016-0.7441406,1.8720703-1.1767578
		c0.4794922-0.4316406,0.7988281-0.7597656,0.9599609-0.9833984c0.2880859-0.4160156,0.5117188-0.6640625,0.671875-0.7441406
		s0.4150391-0.1201172,0.7675781-0.1201172h2.3046875c0.3193359,0,0.5830078,0.0888672,0.7919922,0.2636719
		c0.2070312,0.1767578,0.2949219,0.4248047,0.2636719,0.7441406c-0.0322266,0.4804688-0.2880859,1.0644531-0.7675781,1.7519531
		c-0.4804688,0.6884766-1.1689453,1.3681641-2.0644531,2.0400391c-0.8964844,0.671875-1.984375,1.2246094-3.2636719,1.65625
		C495.6132812,139.0273438,494.140625,139.2441406,492.4775391,139.2441406z M485.9492188,124.4599609h13.1523438v-0.1445312
		c0-1.4394531-0.2646484-2.7197266-0.7919922-3.8398438c-0.5283203-1.1201172-1.2890625-2.0078125-2.2802734-2.6640625
		c-0.9921875-0.6552734-2.1767578-0.9833984-3.5517578-0.9833984c-1.3769531,0-2.5527344,0.328125-3.5283203,0.9833984
		c-0.9765625,0.65625-1.7207031,1.5439453-2.2324219,2.6640625s-0.7675781,2.4003906-0.7675781,3.8398438V124.4599609z"/>
	<path fill="#00133A" d="M509.6708984,138.7636719c-0.3203125,0-0.5849609-0.1035156-0.7919922-0.3115234
		c-0.2089844-0.2080078-0.3125-0.4726562-0.3125-0.7919922v-22.7041016c0-0.3203125,0.1035156-0.5917969,0.3125-0.8164062
		c0.2070312-0.2236328,0.4716797-0.3359375,0.7919922-0.3359375h2.2080078c0.3193359,0,0.5917969,0.1123047,0.8154297,0.3359375
		c0.2236328,0.2246094,0.3359375,0.4960938,0.3359375,0.8164062v2.1113281
		c0.6396484-1.0869141,1.5195312-1.9033203,2.640625-2.4472656c1.1191406-0.5439453,2.4638672-0.8164062,4.0322266-0.8164062
		h1.9199219c0.3193359,0,0.5751953,0.1044922,0.7675781,0.3115234c0.1923828,0.2089844,0.2880859,0.4726562,0.2880859,0.7919922
		v1.96875c0,0.3203125-0.0957031,0.5761719-0.2880859,0.7675781c-0.1923828,0.1923828-0.4482422,0.2880859-0.7675781,0.2880859
		h-2.8808594c-1.7275391,0-3.0878906,0.5039062-4.0791016,1.5117188c-0.9931641,1.0087891-1.4882812,2.3759766-1.4882812,4.1044922
		v14.1123047c0,0.3193359-0.1123047,0.5839844-0.3359375,0.7919922c-0.2246094,0.2080078-0.4970703,0.3115234-0.8164062,0.3115234
		H509.6708984z"/>
	<path fill="#00133A" d="M533.2285156,139.2441406c-1.6005859,0-3.0556641-0.3203125-4.3681641-0.9609375
		c-1.3125-0.6396484-2.3681641-1.5029297-3.1679688-2.5917969c-0.7998047-1.0869141-1.1992188-2.3193359-1.1992188-3.6953125
		c0-2.2080078,0.8955078-3.9677734,2.6875-5.2802734c1.7919922-1.3115234,4.1279297-2.1757812,7.0078125-2.5917969
		l7.1523438-1.0087891v-1.3916016c0-1.5361328-0.4404297-2.7363281-1.3203125-3.5996094
		c-0.8798828-0.8642578-2.3115234-1.2958984-4.2958984-1.2958984c-1.0556641,0-1.9521484,0.1601562-2.6875,0.4794922
		c-0.7363281,0.3203125-1.3203125,0.7041016-1.7519531,1.1523438c-0.4326172,0.4482422-0.7763672,0.8955078-1.0322266,1.34375
		c-0.1279297,0.2880859-0.2636719,0.4960938-0.4082031,0.6240234c-0.1435547,0.1279297-0.328125,0.1923828-0.5517578,0.1923828
		h-2.0644531c-0.2880859,0-0.5361328-0.1035156-0.7441406-0.3125c-0.2080078-0.2080078-0.3115234-0.4560547-0.3115234-0.7441406
		c0-0.4794922,0.1835938-1.0712891,0.5517578-1.7753906s0.9365234-1.3925781,1.7041016-2.0644531
		c0.7685547-0.671875,1.7519531-1.2392578,2.9521484-1.7041016c1.2001953-0.4628906,2.6640625-0.6962891,4.3916016-0.6962891
		c1.9199219,0,3.5361328,0.2490234,4.8486328,0.7441406c1.3115234,0.4970703,2.34375,1.1601562,3.0957031,1.9921875
		c0.7519531,0.8330078,1.2958984,1.7763672,1.6318359,2.8320312s0.5039062,2.1289062,0.5039062,3.2158203v15.5527344
		c0,0.3193359-0.1035156,0.5839844-0.3115234,0.7919922c-0.2089844,0.2080078-0.4726562,0.3115234-0.7919922,0.3115234h-2.2080078
		c-0.3525391,0-0.6240234-0.1035156-0.8164062-0.3115234c-0.1914062-0.2080078-0.2880859-0.4726562-0.2880859-0.7919922v-2.0644531
		c-0.4160156,0.5761719-0.9765625,1.1445312-1.6796875,1.7041016c-0.7041016,0.5605469-1.5839844,1.0244141-2.6396484,1.3916016
		C536.0605469,139.0595703,534.7646484,139.2441406,533.2285156,139.2441406z M534.2363281,135.6435547
		c1.3125,0,2.5126953-0.2792969,3.6005859-0.8398438c1.0869141-0.5595703,1.9443359-1.4316406,2.5683594-2.6162109
		c0.6230469-1.1835938,0.9355469-2.6708984,0.9355469-4.4638672v-1.34375l-5.5683594,0.8154297
		c-2.2724609,0.3203125-3.9833984,0.8564453-5.1357422,1.6083984s-1.7275391,1.7041016-1.7275391,2.8564453
		c0,0.8955078,0.2636719,1.6396484,0.7919922,2.2314453c0.5273438,0.5927734,1.1992188,1.0322266,2.015625,1.3203125
		S533.3730469,135.6435547,534.2363281,135.6435547z"/>
	<path fill="#00133A" d="M564.1630859,139.2441406c-1.9199219,0-3.5205078-0.3447266-4.7998047-1.0322266
		c-1.2802734-0.6884766-2.3037109-1.5439453-3.0722656-2.5683594v2.0166016c0,0.3193359-0.1035156,0.5839844-0.3115234,0.7919922
		c-0.2089844,0.2080078-0.4726562,0.3115234-0.7919922,0.3115234h-2.2080078c-0.3203125,0-0.5839844-0.1035156-0.7919922-0.3115234
		c-0.2089844-0.2080078-0.3125-0.4726562-0.3125-0.7919922v-31.8720703c0-0.3203125,0.1035156-0.5839844,0.3125-0.7919922
		c0.2080078-0.2080078,0.4716797-0.3125,0.7919922-0.3125h2.3037109c0.3515625,0,0.6240234,0.1044922,0.8164062,0.3125
		c0.1914062,0.2080078,0.2880859,0.4716797,0.2880859,0.7919922v11.0400391
		c0.7988281-0.9921875,1.8310547-1.8242188,3.0957031-2.4960938c1.2636719-0.671875,2.8242188-1.0087891,4.6796875-1.0087891
		c1.7919922,0,3.3193359,0.3125,4.5839844,0.9365234c1.2636719,0.6240234,2.3046875,1.4804688,3.1201172,2.5683594
		c0.8164062,1.0878906,1.4316406,2.3203125,1.8486328,3.6953125c0.4150391,1.3769531,0.6396484,2.8164062,0.671875,4.3203125
		c0.03125,0.5117188,0.0478516,0.9921875,0.0478516,1.4394531c0,0.4492188-0.0166016,0.9287109-0.0478516,1.4404297
		c-0.0322266,1.5361328-0.2568359,2.9921875-0.671875,4.3681641c-0.4169922,1.3759766-1.0322266,2.6005859-1.8486328,3.671875
		c-0.8154297,1.0722656-1.8564453,1.9199219-3.1201172,2.5439453
		C567.4824219,138.9316406,565.9550781,139.2441406,564.1630859,139.2441406z M563.1552734,135.3554688
		c1.6640625,0,2.9677734-0.359375,3.9121094-1.0800781c0.9433594-0.7197266,1.6240234-1.6630859,2.0400391-2.8320312
		c0.4150391-1.1669922,0.6552734-2.4238281,0.7197266-3.7675781c0.0322266-0.9277344,0.0322266-1.8554688,0-2.7841797
		c-0.0644531-1.34375-0.3046875-2.5996094-0.7197266-3.7675781c-0.4160156-1.1679688-1.0966797-2.1123047-2.0400391-2.8320312
		c-0.9443359-0.7207031-2.2480469-1.0800781-3.9121094-1.0800781c-1.5039062,0-2.7519531,0.3525391-3.7441406,1.0556641
		c-0.9921875,0.7041016-1.7363281,1.6005859-2.2314453,2.6884766c-0.4970703,1.0878906-0.7607422,2.1914062-0.7919922,3.3115234
		c-0.0322266,0.5126953-0.0478516,1.1279297-0.0478516,1.8476562c0,0.7207031,0.015625,1.3369141,0.0478516,1.8486328
		c0.0634766,1.1835938,0.3271484,2.3447266,0.7919922,3.4794922c0.4628906,1.1367188,1.1835938,2.0722656,2.1601562,2.8085938
		C560.3154297,134.9882812,561.5869141,135.3554688,563.1552734,135.3554688z"/>
	<path fill="#00133A" d="M580.2578125,109.1474609c-0.3203125,0-0.5849609-0.1035156-0.7919922-0.3115234
		c-0.2089844-0.2080078-0.3125-0.4716797-0.3125-0.7919922v-2.5917969c0-0.3203125,0.1035156-0.5839844,0.3125-0.7919922
		c0.2070312-0.2080078,0.4716797-0.3125,0.7919922-0.3125h3.0234375c0.3193359,0,0.5839844,0.1044922,0.7919922,0.3125
		s0.3125,0.4716797,0.3125,0.7919922v2.5917969c0,0.3203125-0.1044922,0.5839844-0.3125,0.7919922
		s-0.4726562,0.3115234-0.7919922,0.3115234H580.2578125z M580.6416016,138.7636719
		c-0.3203125,0-0.5849609-0.1035156-0.7919922-0.3115234c-0.2089844-0.2080078-0.3125-0.4726562-0.3125-0.7919922v-22.7529297
		c0-0.3193359,0.1035156-0.5830078,0.3125-0.7919922c0.2070312-0.2070312,0.4716797-0.3115234,0.7919922-0.3115234h2.3037109
		c0.3193359,0,0.5761719,0.1044922,0.7675781,0.3115234c0.1923828,0.2089844,0.2880859,0.4726562,0.2880859,0.7919922v22.7529297
		c0,0.3193359-0.0957031,0.5839844-0.2880859,0.7919922c-0.1914062,0.2080078-0.4482422,0.3115234-0.7675781,0.3115234H580.6416016z
		"/>
	<path fill="#00133A" d="M591.2822266,138.7636719c-0.3203125,0-0.5839844-0.1035156-0.7919922-0.3115234
		c-0.2089844-0.2080078-0.3125-0.4726562-0.3125-0.7919922v-31.8720703c0-0.3203125,0.1035156-0.5839844,0.3125-0.7919922
		c0.2080078-0.2080078,0.4716797-0.3125,0.7919922-0.3125h2.2558594c0.3515625,0,0.6240234,0.1044922,0.8164062,0.3125
		c0.1914062,0.2080078,0.2880859,0.4716797,0.2880859,0.7919922v31.8720703c0,0.3193359-0.0966797,0.5839844-0.2880859,0.7919922
		c-0.1923828,0.2080078-0.4648438,0.3115234-0.8164062,0.3115234H591.2822266z"/>
	<path fill="#00133A" d="M601.5166016,109.1474609c-0.3203125,0-0.5849609-0.1035156-0.7919922-0.3115234
		c-0.2089844-0.2080078-0.3125-0.4716797-0.3125-0.7919922v-2.5917969c0-0.3203125,0.1035156-0.5839844,0.3125-0.7919922
		c0.2070312-0.2080078,0.4716797-0.3125,0.7919922-0.3125h3.0234375c0.3193359,0,0.5839844,0.1044922,0.7919922,0.3125
		s0.3125,0.4716797,0.3125,0.7919922v2.5917969c0,0.3203125-0.1044922,0.5839844-0.3125,0.7919922
		s-0.4726562,0.3115234-0.7919922,0.3115234H601.5166016z M601.9003906,138.7636719
		c-0.3203125,0-0.5849609-0.1035156-0.7919922-0.3115234c-0.2089844-0.2080078-0.3125-0.4726562-0.3125-0.7919922v-22.7529297
		c0-0.3193359,0.1035156-0.5830078,0.3125-0.7919922c0.2070312-0.2070312,0.4716797-0.3115234,0.7919922-0.3115234h2.3037109
		c0.3193359,0,0.5761719,0.1044922,0.7675781,0.3115234c0.1923828,0.2089844,0.2880859,0.4726562,0.2880859,0.7919922v22.7529297
		c0,0.3193359-0.0957031,0.5839844-0.2880859,0.7919922c-0.1914062,0.2080078-0.4482422,0.3115234-0.7675781,0.3115234H601.9003906z
		"/>
	<path fill="#00133A" d="M621.7900391,138.7636719c-1.7919922,0-3.2480469-0.34375-4.3681641-1.0322266
		c-1.1201172-0.6875-1.9365234-1.6630859-2.4472656-2.9277344c-0.5126953-1.2636719-0.7685547-2.7597656-0.7685547-4.4882812
		v-12.671875h-3.7441406c-0.3203125,0-0.5839844-0.1035156-0.7919922-0.3115234s-0.3115234-0.4716797-0.3115234-0.7919922
		v-1.6328125c0-0.3193359,0.1035156-0.5830078,0.3115234-0.7919922c0.2080078-0.2070312,0.4716797-0.3115234,0.7919922-0.3115234
		h3.7441406v-8.015625c0-0.3203125,0.1035156-0.5839844,0.3125-0.7919922c0.2070312-0.2080078,0.4716797-0.3125,0.7919922-0.3125
		h2.2558594c0.3193359,0,0.5830078,0.1044922,0.7919922,0.3125c0.2070312,0.2080078,0.3115234,0.4716797,0.3115234,0.7919922
		v8.015625h5.9521484c0.3193359,0,0.5839844,0.1044922,0.7919922,0.3115234c0.2080078,0.2089844,0.3125,0.4726562,0.3125,0.7919922
		v1.6328125c0,0.3203125-0.1044922,0.5839844-0.3125,0.7919922s-0.4726562,0.3115234-0.7919922,0.3115234h-5.9521484v12.3359375
		c0,1.5048828,0.2558594,2.6884766,0.7685547,3.5517578c0.5107422,0.8642578,1.4228516,1.296875,2.7353516,1.296875h2.9287109
		c0.3193359,0,0.5830078,0.1035156,0.7919922,0.3115234c0.2070312,0.2089844,0.3115234,0.4726562,0.3115234,0.7919922v1.7285156
		c0,0.3193359-0.1044922,0.5839844-0.3115234,0.7919922c-0.2089844,0.2080078-0.4726562,0.3115234-0.7919922,0.3115234H621.7900391z
		"/>
	<path fill="#00133A" d="M635.7099609,147.8837891c-0.2568359,0-0.4794922-0.0957031-0.671875-0.2880859
		S634.75,147.1796875,634.75,146.9238281c0-0.1279297,0.015625-0.2568359,0.0478516-0.3837891
		c0.03125-0.1289062,0.0957031-0.2880859,0.1923828-0.4804688l3.6962891-8.7841797l-9.1689453-21.6474609
		c-0.1601562-0.3837891-0.2392578-0.6552734-0.2392578-0.8164062c0-0.2880859,0.0957031-0.5283203,0.2880859-0.7197266
		c0.1914062-0.1923828,0.4316406-0.2880859,0.7197266-0.2880859h2.3515625c0.3203125,0,0.5683594,0.0800781,0.7441406,0.2402344
		s0.3125,0.3525391,0.4082031,0.5761719l7.2958984,17.4716797l7.4882812-17.4716797
		c0.0957031-0.2236328,0.2314453-0.4160156,0.4082031-0.5761719c0.1748047-0.1601562,0.4394531-0.2402344,0.7919922-0.2402344
		h2.2558594c0.2880859,0,0.5273438,0.0957031,0.7197266,0.2880859c0.1923828,0.1914062,0.2880859,0.4160156,0.2880859,0.671875
		c0,0.1601562-0.0800781,0.4482422-0.2402344,0.8642578l-13.6318359,31.4394531
		c-0.0957031,0.2236328-0.2324219,0.4160156-0.4082031,0.5761719s-0.4404297,0.2402344-0.7919922,0.2402344H635.7099609z"/>
	<path fill="#00133A" d="M168.0834961,187.7636719c-0.3203125,0-0.5844727-0.1035156-0.7919922-0.3115234
		c-0.2084961-0.2080078-0.3120117-0.4726562-0.3120117-0.7919922v-28.2246094h-9.2158203
		c-0.3203125,0-0.5844727-0.1035156-0.7919922-0.3115234c-0.2084961-0.2080078-0.3120117-0.4716797-0.3120117-0.7919922v-2.0166016
		c0-0.3515625,0.1035156-0.6308594,0.3120117-0.8398438c0.2075195-0.2080078,0.4716797-0.3115234,0.7919922-0.3115234h23.1357422
		c0.3525391,0,0.6318359,0.1035156,0.8398438,0.3115234c0.2080078,0.2089844,0.3125,0.4882812,0.3125,0.8398438v2.0166016
		c0,0.3203125-0.1044922,0.5839844-0.3125,0.7919922s-0.4873047,0.3115234-0.8398438,0.3115234h-9.1679688v28.2246094
		c0,0.3193359-0.1040039,0.5839844-0.3120117,0.7919922c-0.2084961,0.2080078-0.4882812,0.3115234-0.8398438,0.3115234H168.0834961z
		"/>
	<path fill="#00133A" d="M191.6464844,188.2441406c-3.2958984,0-5.9208984-1.015625-7.8720703-3.0488281
		c-1.9521484-2.03125-3.0244141-4.8076172-3.2158203-8.328125c-0.0322266-0.4150391-0.0478516-0.9511719-0.0478516-1.6074219
		c0-0.6552734,0.015625-1.1914062,0.0478516-1.6083984c0.1269531-2.2714844,0.6552734-4.2636719,1.5839844-5.9755859
		c0.9277344-1.7119141,2.1992188-3.03125,3.8154297-3.9599609c1.6162109-0.9277344,3.5117188-1.3925781,5.6884766-1.3925781
		c2.4316406,0,4.4716797,0.5126953,6.1201172,1.5361328c1.6474609,1.0244141,2.9042969,2.4804688,3.7675781,4.3681641
		c0.8642578,1.8886719,1.2958984,4.0966797,1.2958984,6.6240234v0.8164062c0,0.3525391-0.1035156,0.6240234-0.3115234,0.8154297
		c-0.2089844,0.1923828-0.4726562,0.2880859-0.7919922,0.2880859h-16.6083984c0,0.0322266,0,0.0957031,0,0.1923828
		c0,0.0957031,0,0.1757812,0,0.2402344c0.0644531,1.3125,0.3515625,2.5361328,0.8642578,3.671875
		c0.5117188,1.1357422,1.2480469,2.0566406,2.2080078,2.7597656c0.9599609,0.7041016,2.1123047,1.0556641,3.4560547,1.0556641
		c1.1523438,0,2.1123047-0.1748047,2.8798828-0.5273438c0.7685547-0.3525391,1.3916016-0.7441406,1.8720703-1.1767578
		c0.4804688-0.4316406,0.7998047-0.7597656,0.9599609-0.9833984c0.2880859-0.4160156,0.5117188-0.6640625,0.671875-0.7441406
		s0.4160156-0.1201172,0.7685547-0.1201172h2.3037109c0.3193359,0,0.5830078,0.0888672,0.7919922,0.2636719
		c0.2080078,0.1767578,0.2958984,0.4248047,0.2636719,0.7441406c-0.0322266,0.4804688-0.2880859,1.0644531-0.7675781,1.7519531
		c-0.4804688,0.6884766-1.1689453,1.3681641-2.0644531,2.0400391s-1.984375,1.2246094-3.2636719,1.65625
		C194.7822266,188.0273438,193.3095703,188.2441406,191.6464844,188.2441406z M185.1181641,173.4599609h13.1523438v-0.1445312
		c0-1.4394531-0.2636719-2.7197266-0.7919922-3.8398438s-1.2880859-2.0078125-2.2802734-2.6640625
		c-0.9921875-0.6552734-2.1767578-0.9833984-3.5517578-0.9833984c-1.3759766,0-2.5527344,0.328125-3.5283203,0.9833984
		c-0.9765625,0.65625-1.7207031,1.5439453-2.2314453,2.6640625c-0.5126953,1.1201172-0.7685547,2.4003906-0.7685547,3.8398438
		V173.4599609z"/>
	<path fill="#00133A" d="M216.6162109,188.2441406c-1.7929688,0-3.3291016-0.2246094-4.6083984-0.6728516
		c-1.2802734-0.4472656-2.3203125-0.9912109-3.1201172-1.6318359c-0.7998047-0.6396484-1.3994141-1.2792969-1.7998047-1.9199219
		c-0.4003906-0.6396484-0.6162109-1.1523438-0.6474609-1.5361328c-0.0322266-0.3515625,0.0791016-0.6240234,0.3359375-0.8154297
		c0.2558594-0.1923828,0.5107422-0.2880859,0.7675781-0.2880859h2.1123047c0.1914062,0,0.34375,0.0234375,0.4560547,0.0722656
		c0.1113281,0.0478516,0.2636719,0.1835938,0.4560547,0.4072266c0.4150391,0.4492188,0.8798828,0.8964844,1.3916016,1.3447266
		s1.1435547,0.8154297,1.8964844,1.1035156c0.7509766,0.2880859,1.6875,0.4316406,2.8076172,0.4316406
		c1.6328125,0,2.9765625-0.3115234,4.0332031-0.9355469c1.0546875-0.6240234,1.5839844-1.5439453,1.5839844-2.7597656
		c0-0.7998047-0.2167969-1.4404297-0.6484375-1.9199219c-0.4316406-0.4804688-1.2011719-0.9121094-2.3046875-1.2958984
		c-1.1035156-0.3847656-2.6162109-0.7841797-4.5361328-1.2001953c-1.9199219-0.4482422-3.4404297-1-4.5595703-1.65625
		c-1.1210938-0.6552734-1.9199219-1.4404297-2.4003906-2.3515625c-0.4794922-0.9121094-0.7197266-1.9443359-0.7197266-3.0966797
		c0-1.1835938,0.3515625-2.328125,1.0556641-3.4316406c0.703125-1.1044922,1.7353516-2.0078125,3.0957031-2.7119141
		s3.0644531-1.0566406,5.1123047-1.0566406c1.6630859,0,3.0888672,0.2089844,4.2724609,0.6240234
		c1.1835938,0.4169922,2.1601562,0.9365234,2.9277344,1.5605469s1.34375,1.2402344,1.7285156,1.8476562
		c0.3828125,0.6083984,0.5917969,1.1210938,0.6230469,1.5361328c0.03125,0.3203125-0.0644531,0.5839844-0.2871094,0.7919922
		c-0.2246094,0.2089844-0.4804688,0.3125-0.7675781,0.3125h-2.0175781c-0.2226562,0-0.40625-0.0488281-0.5507812-0.1445312
		s-0.28125-0.2080078-0.4082031-0.3359375c-0.3203125-0.4150391-0.6953125-0.8320312-1.1289062-1.2480469
		c-0.4316406-0.4150391-0.9921875-0.7597656-1.6796875-1.0322266c-0.6875-0.2714844-1.5917969-0.4072266-2.7119141-0.4072266
		c-1.6005859,0-2.8007812,0.3359375-3.5996094,1.0078125c-0.8007812,0.671875-1.2001953,1.5195312-1.2001953,2.5439453
		c0,0.6083984,0.1757812,1.1513672,0.5283203,1.6318359c0.3515625,0.4794922,1.0234375,0.9121094,2.015625,1.2958984
		c0.9912109,0.3837891,2.4638672,0.8007812,4.4169922,1.2480469c2.1113281,0.4160156,3.7753906,0.9765625,4.9902344,1.6796875
		c1.2167969,0.7041016,2.0800781,1.5205078,2.59375,2.4482422c0.5097656,0.9287109,0.7675781,2,0.7675781,3.2158203
		c0,1.3447266-0.3925781,2.5761719-1.1757812,3.6962891c-0.7851562,1.1201172-1.9375,2.0087891-3.4570312,2.6640625
		S218.8554688,188.2441406,216.6162109,188.2441406z"/>
	<path fill="#00133A" d="M241.7871094,187.7636719c-1.7919922,0-3.2480469-0.34375-4.3681641-1.0322266
		c-1.1201172-0.6875-1.9365234-1.6630859-2.4472656-2.9277344c-0.5126953-1.2636719-0.7685547-2.7597656-0.7685547-4.4882812
		v-12.671875h-3.7441406c-0.3203125,0-0.5839844-0.1035156-0.7919922-0.3115234s-0.3115234-0.4716797-0.3115234-0.7919922
		v-1.6328125c0-0.3193359,0.1035156-0.5830078,0.3115234-0.7919922c0.2080078-0.2070312,0.4716797-0.3115234,0.7919922-0.3115234
		h3.7441406v-8.015625c0-0.3203125,0.1035156-0.5839844,0.3125-0.7919922c0.2070312-0.2080078,0.4716797-0.3125,0.7919922-0.3125
		h2.2558594c0.3193359,0,0.5830078,0.1044922,0.7919922,0.3125c0.2070312,0.2080078,0.3115234,0.4716797,0.3115234,0.7919922
		v8.015625h5.9521484c0.3193359,0,0.5839844,0.1044922,0.7919922,0.3115234c0.2080078,0.2089844,0.3125,0.4726562,0.3125,0.7919922
		v1.6328125c0,0.3203125-0.1044922,0.5839844-0.3125,0.7919922s-0.4726562,0.3115234-0.7919922,0.3115234h-5.9521484v12.3359375
		c0,1.5048828,0.2558594,2.6884766,0.7685547,3.5517578c0.5107422,0.8642578,1.4228516,1.296875,2.7353516,1.296875h2.9287109
		c0.3193359,0,0.5830078,0.1035156,0.7919922,0.3115234c0.2070312,0.2089844,0.3115234,0.4726562,0.3115234,0.7919922v1.7285156
		c0,0.3193359-0.1044922,0.5839844-0.3115234,0.7919922c-0.2089844,0.2080078-0.4726562,0.3115234-0.7919922,0.3115234H241.7871094z
		"/>
	<path fill="#00133A" d="M251.1181641,158.1474609c-0.3203125,0-0.5849609-0.1035156-0.7919922-0.3115234
		c-0.2089844-0.2080078-0.3125-0.4716797-0.3125-0.7919922v-2.5917969c0-0.3203125,0.1035156-0.5839844,0.3125-0.7919922
		c0.2070312-0.2080078,0.4716797-0.3125,0.7919922-0.3125h3.0234375c0.3193359,0,0.5839844,0.1044922,0.7919922,0.3125
		s0.3125,0.4716797,0.3125,0.7919922v2.5917969c0,0.3203125-0.1044922,0.5839844-0.3125,0.7919922
		s-0.4726562,0.3115234-0.7919922,0.3115234H251.1181641z M251.5019531,187.7636719
		c-0.3203125,0-0.5849609-0.1035156-0.7919922-0.3115234c-0.2089844-0.2080078-0.3125-0.4726562-0.3125-0.7919922v-22.7529297
		c0-0.3193359,0.1035156-0.5830078,0.3125-0.7919922c0.2070312-0.2070312,0.4716797-0.3115234,0.7919922-0.3115234h2.3037109
		c0.3193359,0,0.5761719,0.1044922,0.7675781,0.3115234c0.1923828,0.2089844,0.2880859,0.4726562,0.2880859,0.7919922v22.7529297
		c0,0.3193359-0.0957031,0.5839844-0.2880859,0.7919922c-0.1914062,0.2080078-0.4482422,0.3115234-0.7675781,0.3115234H251.5019531z
		"/>
	<path fill="#00133A" d="M262.1191406,187.7636719c-0.3203125,0-0.5849609-0.1035156-0.7919922-0.3115234
		c-0.2089844-0.2080078-0.3125-0.4726562-0.3125-0.7919922v-22.7529297c0-0.3193359,0.1035156-0.5830078,0.3125-0.7919922
		c0.2070312-0.2070312,0.4716797-0.3115234,0.7919922-0.3115234H264.375c0.3193359,0,0.5830078,0.1044922,0.7919922,0.3115234
		c0.2080078,0.2089844,0.3115234,0.4726562,0.3115234,0.7919922v2.1123047
		c0.8320312-1.0869141,1.8798828-1.9755859,3.1445312-2.6640625c1.2636719-0.6875,2.8876953-1.0322266,4.8720703-1.0322266
		c2.0791016,0,3.8476562,0.4560547,5.3037109,1.3681641s2.5517578,2.1767578,3.2880859,3.7919922
		c0.7353516,1.6162109,1.1035156,3.4970703,1.1035156,5.640625v13.5361328c0,0.3193359-0.0957031,0.5839844-0.2871094,0.7919922
		c-0.1923828,0.2080078-0.4492188,0.3115234-0.7685547,0.3115234h-2.3994141c-0.3203125,0-0.5849609-0.1035156-0.7919922-0.3115234
		c-0.2089844-0.2080078-0.3125-0.4726562-0.3125-0.7919922v-13.296875c0-2.2392578-0.5449219-3.9912109-1.6318359-5.2558594
		c-1.0888672-1.2636719-2.6884766-1.8955078-4.7998047-1.8955078c-1.984375,0-3.5761719,0.6318359-4.7763672,1.8955078
		c-1.2001953,1.2646484-1.7998047,3.0166016-1.7998047,5.2558594v13.296875c0,0.3193359-0.1044922,0.5839844-0.3125,0.7919922
		s-0.4716797,0.3115234-0.7919922,0.3115234H262.1191406z"/>
	<path fill="#00133A" d="M299.4726562,198.3232422c-2.1767578,0-3.9599609-0.2871094-5.3525391-0.8632812
		c-1.3916016-0.5761719-2.4804688-1.2724609-3.2636719-2.0878906c-0.7841797-0.8164062-1.34375-1.6328125-1.6796875-2.4482422
		c-0.3369141-0.8164062-0.5205078-1.4638672-0.5527344-1.9443359c-0.0322266-0.3203125,0.0722656-0.5927734,0.3125-0.8154297
		c0.2402344-0.2246094,0.5039062-0.3359375,0.7919922-0.3359375h2.3037109c0.2880859,0,0.5283203,0.0634766,0.7197266,0.1914062
		c0.1923828,0.1279297,0.3525391,0.3994141,0.4804688,0.8164062c0.1914062,0.4794922,0.4794922,1.015625,0.8642578,1.6074219
		c0.3837891,0.5917969,0.9755859,1.1044922,1.7753906,1.5361328c0.7998047,0.4326172,1.9199219,0.6484375,3.3603516,0.6484375
		c1.5039062,0,2.7675781-0.2001953,3.7919922-0.6005859c1.0234375-0.4003906,1.7998047-1.1035156,2.328125-2.1113281
		c0.5273438-1.0087891,0.7919922-2.3925781,0.7919922-4.1523438V184.5
		c-0.7685547,0.9921875-1.7763672,1.8164062-3.0244141,2.4716797c-1.2480469,0.65625-2.8164062,0.984375-4.7041016,0.984375
		c-1.7919922,0-3.328125-0.3125-4.6074219-0.9365234c-1.2802734-0.6240234-2.328125-1.4716797-3.1445312-2.5439453
		c-0.8154297-1.0712891-1.4238281-2.2958984-1.8242188-3.671875s-0.6318359-2.8154297-0.6953125-4.3203125
		c-0.0322266-0.8955078-0.0322266-1.7753906,0-2.6396484c0.0634766-1.5039062,0.2949219-2.9433594,0.6953125-4.3203125
		c0.4003906-1.375,1.0087891-2.6074219,1.8242188-3.6953125c0.8164062-1.0878906,1.8642578-1.9443359,3.1445312-2.5683594
		c1.2792969-0.6240234,2.8154297-0.9365234,4.6074219-0.9365234c1.9199219,0,3.5117188,0.3603516,4.7763672,1.0800781
		c1.2636719,0.7207031,2.2958984,1.5927734,3.0957031,2.6162109v-2.0634766c0-0.3203125,0.1035156-0.5917969,0.3125-0.8164062
		c0.2070312-0.2236328,0.4716797-0.3359375,0.7919922-0.3359375h2.2080078c0.3193359,0,0.5917969,0.1123047,0.8154297,0.3359375
		c0.2236328,0.2246094,0.3359375,0.4960938,0.3359375,0.8164062v23.2792969c0,2.1435547-0.359375,4.0478516-1.0800781,5.7119141
		c-0.7197266,1.6640625-1.9042969,2.9765625-3.5517578,3.9365234
		C304.4716797,197.84375,302.2558594,198.3232422,299.4726562,198.3232422z M299.3759766,184.1152344
		c1.5996094,0,2.8876953-0.3671875,3.8642578-1.1035156c0.9755859-0.7353516,1.6962891-1.6630859,2.1601562-2.7841797
		c0.4638672-1.1191406,0.7119141-2.2558594,0.7441406-3.4082031c0.03125-0.4472656,0.0478516-0.9990234,0.0478516-1.6552734
		s-0.0166016-1.2080078-0.0478516-1.65625c-0.0322266-1.1523438-0.2802734-2.2880859-0.7441406-3.4082031
		s-1.1845703-2.0478516-2.1601562-2.7841797c-0.9765625-0.7353516-2.2646484-1.1035156-3.8642578-1.1035156
		c-1.6005859,0-2.8798828,0.359375-3.8398438,1.0800781c-0.9599609,0.7197266-1.6484375,1.6640625-2.0634766,2.8320312
		c-0.4169922,1.1679688-0.65625,2.4238281-0.7207031,3.7675781c-0.0322266,0.8330078-0.0322266,1.6796875,0,2.5439453
		c0.0644531,1.34375,0.3037109,2.6005859,0.7207031,3.7685547c0.4150391,1.1679688,1.1035156,2.1113281,2.0634766,2.8320312
		C296.4960938,183.7558594,297.7753906,184.1152344,299.3759766,184.1152344z"/>
	<path fill="#00133A" d="M341.0869141,188.2441406c-2.7832031,0-5.1201172-0.4248047-7.0078125-1.2724609
		c-1.8886719-0.8476562-3.3359375-1.9511719-4.34375-3.3115234s-1.5439453-2.8085938-1.6083984-4.3447266
		c0-0.2558594,0.1035156-0.4873047,0.3125-0.6953125c0.2080078-0.2080078,0.4560547-0.3125,0.7441406-0.3125h2.4472656
		c0.3847656,0,0.6728516,0.0957031,0.8642578,0.2880859c0.1923828,0.1923828,0.3193359,0.4160156,0.3837891,0.671875
		c0.1601562,0.7685547,0.5527344,1.5283203,1.1767578,2.2802734s1.5029297,1.3759766,2.6396484,1.8720703
		c1.1357422,0.4960938,2.5996094,0.7441406,4.3916016,0.7441406c2.7519531,0,4.7763672-0.4882812,6.0722656-1.4648438
		c1.2958984-0.9755859,1.9443359-2.2792969,1.9443359-3.9111328c0-1.1201172-0.3447266-2.0234375-1.0322266-2.7128906
		c-0.6884766-0.6875-1.7363281-1.3027344-3.1435547-1.8476562c-1.4091797-0.5439453-3.2324219-1.1357422-5.4726562-1.7753906
		c-2.3359375-0.6728516-4.2714844-1.4082031-5.8076172-2.2080078s-2.6806641-1.7919922-3.4326172-2.9765625
		c-0.7519531-1.1835938-1.1279297-2.6875-1.1279297-4.5117188c0-1.7285156,0.4638672-3.2714844,1.3925781-4.6318359
		c0.9277344-1.3603516,2.2636719-2.4404297,4.0078125-3.2402344s3.8642578-1.2001953,6.3603516-1.2001953
		c1.9833984,0,3.7197266,0.2636719,5.2080078,0.7919922c1.4873047,0.5283203,2.7275391,1.2324219,3.7197266,2.1123047
		c0.9912109,0.8798828,1.7441406,1.8242188,2.2558594,2.8320312s0.7841797,1.9921875,0.8164062,2.9521484
		c0,0.2236328-0.0810547,0.4394531-0.2402344,0.6474609c-0.1601562,0.2089844-0.4160156,0.3125-0.7685547,0.3125h-2.5439453
		c-0.2236328,0-0.4560547-0.0644531-0.6953125-0.1923828c-0.2402344-0.1279297-0.4248047-0.3671875-0.5527344-0.7197266
		c-0.1914062-1.3115234-0.9277344-2.4160156-2.2080078-3.3125c-1.2802734-0.8955078-2.9443359-1.34375-4.9912109-1.34375
		c-2.0810547,0-3.7685547,0.4003906-5.0644531,1.2001953s-1.9443359,2.0478516-1.9443359,3.7441406
		c0,1.0878906,0.3046875,1.9912109,0.9121094,2.7119141c0.6074219,0.7197266,1.5673828,1.3515625,2.8798828,1.8955078
		c1.3125,0.5449219,3.0244141,1.1210938,5.1367188,1.7285156c2.5595703,0.7041016,4.6552734,1.4482422,6.2880859,2.2314453
		c1.6318359,0.7851562,2.8388672,1.7607422,3.6240234,2.9287109c0.7832031,1.1679688,1.1757812,2.6630859,1.1757812,4.4873047
		c0,2.0166016-0.5283203,3.7363281-1.5839844,5.1601562c-1.0566406,1.4248047-2.5371094,2.5126953-4.4404297,3.2636719
		C345.9267578,187.8671875,343.6796875,188.2441406,341.0869141,188.2441406z"/>
	<path fill="#00133A" d="M369.2197266,188.2441406c-3.296875,0-5.9208984-1.015625-7.8720703-3.0488281
		c-1.9521484-2.03125-3.0244141-4.8076172-3.2158203-8.328125c-0.0322266-0.4150391-0.0488281-0.9511719-0.0488281-1.6074219
		c0-0.6552734,0.0166016-1.1914062,0.0488281-1.6083984c0.1269531-2.2714844,0.6552734-4.2636719,1.5839844-5.9755859
		c0.9277344-1.7119141,2.1992188-3.03125,3.8154297-3.9599609c1.6152344-0.9277344,3.5117188-1.3925781,5.6884766-1.3925781
		c2.4316406,0,4.4716797,0.5126953,6.1201172,1.5361328c1.6474609,1.0244141,2.9033203,2.4804688,3.7675781,4.3681641
		c0.8642578,1.8886719,1.2958984,4.0966797,1.2958984,6.6240234v0.8164062c0,0.3525391-0.1044922,0.6240234-0.3115234,0.8154297
		c-0.2089844,0.1923828-0.4726562,0.2880859-0.7919922,0.2880859h-16.6083984c0,0.0322266,0,0.0957031,0,0.1923828
		c0,0.0957031,0,0.1757812,0,0.2402344c0.0634766,1.3125,0.3515625,2.5361328,0.8642578,3.671875
		c0.5117188,1.1357422,1.2480469,2.0566406,2.2080078,2.7597656c0.9599609,0.7041016,2.1113281,1.0556641,3.4560547,1.0556641
		c1.1513672,0,2.1113281-0.1748047,2.8798828-0.5273438c0.7675781-0.3525391,1.3916016-0.7441406,1.8720703-1.1767578
		c0.4794922-0.4316406,0.7988281-0.7597656,0.9599609-0.9833984c0.2880859-0.4160156,0.5117188-0.6640625,0.671875-0.7441406
		s0.4150391-0.1201172,0.7675781-0.1201172h2.3046875c0.3193359,0,0.5830078,0.0888672,0.7919922,0.2636719
		c0.2070312,0.1767578,0.2949219,0.4248047,0.2636719,0.7441406c-0.0322266,0.4804688-0.2880859,1.0644531-0.7675781,1.7519531
		c-0.4804688,0.6884766-1.1689453,1.3681641-2.0644531,2.0400391c-0.8964844,0.671875-1.984375,1.2246094-3.2636719,1.65625
		C372.3554688,188.0273438,370.8828125,188.2441406,369.2197266,188.2441406z M362.6914062,173.4599609H375.84375v-0.1445312
		c0-1.4394531-0.2646484-2.7197266-0.7919922-3.8398438c-0.5283203-1.1201172-1.2890625-2.0078125-2.2802734-2.6640625
		c-0.9921875-0.6552734-2.1767578-0.9833984-3.5517578-0.9833984c-1.3769531,0-2.5527344,0.328125-3.5283203,0.9833984
		c-0.9765625,0.65625-1.7207031,1.5439453-2.2324219,2.6640625s-0.7675781,2.4003906-0.7675781,3.8398438V173.4599609z"/>
	<path fill="#00133A" d="M386.4130859,187.7636719c-0.3203125,0-0.5849609-0.1035156-0.7919922-0.3115234
		c-0.2089844-0.2080078-0.3125-0.4726562-0.3125-0.7919922v-22.7041016c0-0.3203125,0.1035156-0.5917969,0.3125-0.8164062
		c0.2070312-0.2236328,0.4716797-0.3359375,0.7919922-0.3359375h2.2080078c0.3193359,0,0.5917969,0.1123047,0.8154297,0.3359375
		c0.2236328,0.2246094,0.3359375,0.4960938,0.3359375,0.8164062v2.1113281
		c0.6396484-1.0869141,1.5195312-1.9033203,2.640625-2.4472656c1.1191406-0.5439453,2.4638672-0.8164062,4.0322266-0.8164062
		h1.9199219c0.3193359,0,0.5751953,0.1044922,0.7675781,0.3115234c0.1923828,0.2089844,0.2880859,0.4726562,0.2880859,0.7919922
		v1.96875c0,0.3203125-0.0957031,0.5761719-0.2880859,0.7675781c-0.1923828,0.1923828-0.4482422,0.2880859-0.7675781,0.2880859
		h-2.8808594c-1.7275391,0-3.0878906,0.5039062-4.0791016,1.5117188c-0.9931641,1.0087891-1.4882812,2.3759766-1.4882812,4.1044922
		v14.1123047c0,0.3193359-0.1123047,0.5839844-0.3359375,0.7919922c-0.2246094,0.2080078-0.4970703,0.3115234-0.8164062,0.3115234
		H386.4130859z"/>
	<path fill="#00133A" d="M413.25,187.7636719c-0.4804688,0-0.8564453-0.1113281-1.1279297-0.3359375
		c-0.2724609-0.2236328-0.4882812-0.5117188-0.6484375-0.8642578l-8.8798828-22.2714844
		c-0.0644531-0.1601562-0.0957031-0.3193359-0.0957031-0.4804688c0-0.2880859,0.0957031-0.5283203,0.2880859-0.7197266
		c0.1914062-0.1923828,0.4316406-0.2880859,0.7197266-0.2880859h2.3037109c0.3515625,0,0.6240234,0.0957031,0.8164062,0.2880859
		c0.1914062,0.1914062,0.3037109,0.3681641,0.3359375,0.5283203l7.34375,18.9111328l7.2958984-18.9111328
		c0.0634766-0.1601562,0.1835938-0.3369141,0.3603516-0.5283203c0.1757812-0.1923828,0.4394531-0.2880859,0.7919922-0.2880859
		h2.3515625c0.2558594,0,0.4882812,0.0957031,0.6962891,0.2880859c0.2080078,0.1914062,0.3115234,0.4316406,0.3115234,0.7197266
		c0,0.1611328-0.0322266,0.3203125-0.0957031,0.4804688l-8.9277344,22.2714844
		c-0.1279297,0.3525391-0.328125,0.640625-0.5996094,0.8642578c-0.2724609,0.2246094-0.6650391,0.3359375-1.1767578,0.3359375
		H413.25z"/>
	<path fill="#00133A" d="M431.1054688,158.1474609c-0.3203125,0-0.5849609-0.1035156-0.7919922-0.3115234
		c-0.2089844-0.2080078-0.3125-0.4716797-0.3125-0.7919922v-2.5917969c0-0.3203125,0.1035156-0.5839844,0.3125-0.7919922
		c0.2070312-0.2080078,0.4716797-0.3125,0.7919922-0.3125h3.0234375c0.3193359,0,0.5839844,0.1044922,0.7919922,0.3125
		s0.3125,0.4716797,0.3125,0.7919922v2.5917969c0,0.3203125-0.1044922,0.5839844-0.3125,0.7919922
		s-0.4726562,0.3115234-0.7919922,0.3115234H431.1054688z M431.4892578,187.7636719
		c-0.3203125,0-0.5849609-0.1035156-0.7919922-0.3115234c-0.2089844-0.2080078-0.3125-0.4726562-0.3125-0.7919922v-22.7529297
		c0-0.3193359,0.1035156-0.5830078,0.3125-0.7919922c0.2070312-0.2070312,0.4716797-0.3115234,0.7919922-0.3115234h2.3037109
		c0.3193359,0,0.5761719,0.1044922,0.7675781,0.3115234c0.1923828,0.2089844,0.2880859,0.4726562,0.2880859,0.7919922v22.7529297
		c0,0.3193359-0.0957031,0.5839844-0.2880859,0.7919922c-0.1914062,0.2080078-0.4482422,0.3115234-0.7675781,0.3115234H431.4892578z
		"/>
	<path fill="#00133A" d="M451.2021484,188.2441406c-2.2724609,0-4.2324219-0.4404297-5.8798828-1.3203125
		c-1.6484375-0.8798828-2.9208984-2.1435547-3.8164062-3.7919922c-0.8955078-1.6474609-1.3759766-3.6240234-1.4394531-5.9277344
		c-0.0322266-0.4804688-0.0478516-1.1201172-0.0478516-1.9208984c0-0.7988281,0.015625-1.4394531,0.0478516-1.9199219
		c0.0634766-2.3037109,0.5439453-4.2792969,1.4394531-5.9277344c0.8955078-1.6474609,2.1679688-2.9111328,3.8164062-3.7919922
		c1.6474609-0.8798828,3.6074219-1.3203125,5.8798828-1.3203125c1.8554688,0,3.4482422,0.2568359,4.7763672,0.7685547
		c1.3271484,0.5117188,2.4238281,1.1679688,3.2880859,1.9677734c0.8632812,0.8007812,1.5117188,1.6640625,1.9433594,2.5917969
		c0.4326172,0.9287109,0.6640625,1.8085938,0.6962891,2.640625c0.03125,0.3203125-0.0644531,0.5751953-0.2880859,0.7675781
		s-0.4960938,0.2880859-0.8154297,0.2880859h-2.3046875c-0.3203125,0-0.5595703-0.0722656-0.7197266-0.2158203
		c-0.1601562-0.1445312-0.3203125-0.3916016-0.4804688-0.7441406c-0.5751953-1.5673828-1.3603516-2.671875-2.3515625-3.3125
		c-0.9921875-0.6396484-2.2246094-0.9599609-3.6962891-0.9599609c-1.9199219,0-3.4794922,0.5927734-4.6796875,1.7763672
		c-1.2001953,1.1845703-1.8476562,3.0888672-1.9443359,5.7119141c-0.0322266,1.1523438-0.0322266,2.2724609,0,3.3603516
		c0.0966797,2.65625,0.7441406,4.5683594,1.9443359,5.7353516c1.2001953,1.1689453,2.7597656,1.7529297,4.6796875,1.7529297
		c1.4716797,0,2.7041016-0.3203125,3.6962891-0.9609375c0.9912109-0.6396484,1.7763672-1.7431641,2.3515625-3.3115234
		c0.1601562-0.3515625,0.3203125-0.5996094,0.4804688-0.7441406c0.1601562-0.1435547,0.3994141-0.2158203,0.7197266-0.2158203
		h2.3046875c0.3193359,0,0.5917969,0.0957031,0.8154297,0.2880859c0.2236328,0.1914062,0.3193359,0.4482422,0.2880859,0.7675781
		c-0.0322266,0.671875-0.1757812,1.3603516-0.4316406,2.0644531c-0.2568359,0.7041016-0.6650391,1.4160156-1.2246094,2.1357422
		s-1.2558594,1.3603516-2.0878906,1.9199219c-0.8320312,0.5605469-1.8320312,1.0078125-3,1.34375
		S452.6738281,188.2441406,451.2021484,188.2441406z"/>
	<path fill="#00133A" d="M476.9150391,188.2441406c-3.296875,0-5.9208984-1.015625-7.8720703-3.0488281
		c-1.9521484-2.03125-3.0244141-4.8076172-3.2158203-8.328125c-0.0322266-0.4150391-0.0488281-0.9511719-0.0488281-1.6074219
		c0-0.6552734,0.0166016-1.1914062,0.0488281-1.6083984c0.1269531-2.2714844,0.6552734-4.2636719,1.5839844-5.9755859
		c0.9277344-1.7119141,2.1992188-3.03125,3.8154297-3.9599609c1.6152344-0.9277344,3.5117188-1.3925781,5.6884766-1.3925781
		c2.4316406,0,4.4716797,0.5126953,6.1201172,1.5361328c1.6474609,1.0244141,2.9033203,2.4804688,3.7675781,4.3681641
		c0.8642578,1.8886719,1.2958984,4.0966797,1.2958984,6.6240234v0.8164062c0,0.3525391-0.1044922,0.6240234-0.3115234,0.8154297
		c-0.2089844,0.1923828-0.4726562,0.2880859-0.7919922,0.2880859h-16.6083984c0,0.0322266,0,0.0957031,0,0.1923828
		c0,0.0957031,0,0.1757812,0,0.2402344c0.0634766,1.3125,0.3515625,2.5361328,0.8642578,3.671875
		c0.5117188,1.1357422,1.2480469,2.0566406,2.2080078,2.7597656c0.9599609,0.7041016,2.1113281,1.0556641,3.4560547,1.0556641
		c1.1513672,0,2.1113281-0.1748047,2.8798828-0.5273438c0.7675781-0.3525391,1.3916016-0.7441406,1.8720703-1.1767578
		c0.4794922-0.4316406,0.7988281-0.7597656,0.9599609-0.9833984c0.2880859-0.4160156,0.5117188-0.6640625,0.671875-0.7441406
		s0.4150391-0.1201172,0.7675781-0.1201172h2.3046875c0.3193359,0,0.5830078,0.0888672,0.7919922,0.2636719
		c0.2070312,0.1767578,0.2949219,0.4248047,0.2636719,0.7441406c-0.0322266,0.4804688-0.2880859,1.0644531-0.7675781,1.7519531
		c-0.4804688,0.6884766-1.1689453,1.3681641-2.0644531,2.0400391c-0.8964844,0.671875-1.984375,1.2246094-3.2636719,1.65625
		C480.0507812,188.0273438,478.578125,188.2441406,476.9150391,188.2441406z M470.3867188,173.4599609h13.1523438v-0.1445312
		c0-1.4394531-0.2646484-2.7197266-0.7919922-3.8398438c-0.5283203-1.1201172-1.2890625-2.0078125-2.2802734-2.6640625
		c-0.9921875-0.6552734-2.1767578-0.9833984-3.5517578-0.9833984c-1.3769531,0-2.5527344,0.328125-3.5283203,0.9833984
		c-0.9765625,0.65625-1.7207031,1.5439453-2.2324219,2.6640625s-0.7675781,2.4003906-0.7675781,3.8398438V173.4599609z"/>
	<path fill="#00133A" d="M501.8847656,188.2441406c-1.7929688,0-3.3291016-0.2246094-4.6083984-0.6728516
		c-1.2802734-0.4472656-2.3203125-0.9912109-3.1201172-1.6318359c-0.7998047-0.6396484-1.4003906-1.2792969-1.7998047-1.9199219
		c-0.4003906-0.6396484-0.6162109-1.1523438-0.6484375-1.5361328c-0.0322266-0.3515625,0.0800781-0.6240234,0.3359375-0.8154297
		c0.2558594-0.1923828,0.5117188-0.2880859,0.7685547-0.2880859h2.1123047c0.1914062,0,0.3427734,0.0234375,0.4560547,0.0722656
		c0.1113281,0.0478516,0.2636719,0.1835938,0.4550781,0.4072266c0.4160156,0.4492188,0.8798828,0.8964844,1.3925781,1.3447266
		c0.5117188,0.4482422,1.1435547,0.8154297,1.8955078,1.1035156s1.6875,0.4316406,2.8085938,0.4316406
		c1.6318359,0,2.9755859-0.3115234,4.0322266-0.9355469c1.0556641-0.6240234,1.5839844-1.5439453,1.5839844-2.7597656
		c0-0.7998047-0.2167969-1.4404297-0.6484375-1.9199219c-0.4316406-0.4804688-1.2001953-0.9121094-2.3037109-1.2958984
		c-1.1044922-0.3847656-2.6162109-0.7841797-4.5361328-1.2001953c-1.9199219-0.4482422-3.4404297-1-4.5605469-1.65625
		c-1.1201172-0.6552734-1.9199219-1.4404297-2.3994141-2.3515625c-0.4804688-0.9121094-0.7197266-1.9443359-0.7197266-3.0966797
		c0-1.1835938,0.3515625-2.328125,1.0556641-3.4316406c0.703125-1.1044922,1.7353516-2.0078125,3.0957031-2.7119141
		s3.0634766-1.0566406,5.1123047-1.0566406c1.6630859,0,3.0878906,0.2089844,4.2714844,0.6240234
		c1.1835938,0.4169922,2.1601562,0.9365234,2.9287109,1.5605469c0.7675781,0.6240234,1.34375,1.2402344,1.7275391,1.8476562
		c0.3837891,0.6083984,0.5917969,1.1210938,0.6240234,1.5361328c0.03125,0.3203125-0.0644531,0.5839844-0.2880859,0.7919922
		c-0.2236328,0.2089844-0.4794922,0.3125-0.7675781,0.3125h-2.0166016c-0.2236328,0-0.4072266-0.0488281-0.5517578-0.1445312
		c-0.1435547-0.0957031-0.2802734-0.2080078-0.4082031-0.3359375c-0.3203125-0.4150391-0.6953125-0.8320312-1.1279297-1.2480469
		c-0.4316406-0.4150391-0.9921875-0.7597656-1.6796875-1.0322266c-0.6884766-0.2714844-1.5927734-0.4072266-2.7119141-0.4072266
		c-1.6005859,0-2.8007812,0.3359375-3.6005859,1.0078125s-1.1992188,1.5195312-1.1992188,2.5439453
		c0,0.6083984,0.1748047,1.1513672,0.5273438,1.6318359c0.3525391,0.4794922,1.0244141,0.9121094,2.0166016,1.2958984
		c0.9912109,0.3837891,2.4638672,0.8007812,4.4160156,1.2480469c2.1113281,0.4160156,3.7753906,0.9765625,4.9912109,1.6796875
		c1.2158203,0.7041016,2.0800781,1.5205078,2.5927734,2.4482422c0.5107422,0.9287109,0.7675781,2,0.7675781,3.2158203
		c0,1.3447266-0.3925781,2.5761719-1.1757812,3.6962891c-0.7841797,1.1201172-1.9365234,2.0087891-3.4560547,2.6640625
		C506.0039062,187.9150391,504.1240234,188.2441406,501.8847656,188.2441406z"/>
</g>
</svg>
