<?xml version="1.0" encoding="utf-8"?>
<!-- Generator: Adobe Illustrator 25.1.0, SVG Export Plug-In . SVG Version: 6.00 Build 0)  -->
<svg version="1.1" id="Layer_1" xmlns="http://www.w3.org/2000/svg" xmlns:xlink="http://www.w3.org/1999/xlink" x="0px" y="0px"
	 viewBox="0 0 74.753 26.04" enable-background="new 0 0 74.753 26.04" xml:space="preserve">
<g>
	<path fill="#E5E5E5" d="M11.571,2.888h2.768c0.539,0,0.941,0.114,1.208,0.344s0.4,0.576,0.4,1.04c0,0.39-0.076,0.684-0.229,0.884
		c-0.151,0.2-0.396,0.338-0.731,0.412V5.6c0.362,0.08,0.621,0.216,0.775,0.408c0.155,0.191,0.232,0.498,0.232,0.92
		c0,0.485-0.13,0.851-0.388,1.096c-0.259,0.245-0.685,0.368-1.276,0.368h-2.76C11.571,8.392,11.571,2.888,11.571,2.888z
		 M14.275,5.036c0.096-0.029,0.162-0.081,0.199-0.156c0.038-0.074,0.057-0.187,0.057-0.336c0-0.154-0.018-0.269-0.052-0.344
		c-0.035-0.074-0.1-0.125-0.192-0.152c-0.094-0.026-0.244-0.039-0.452-0.039h-0.88V5.08h0.88C14.032,5.08,14.179,5.065,14.275,5.036
		z M14.323,7.228c0.096-0.029,0.162-0.081,0.2-0.156c0.037-0.074,0.056-0.192,0.056-0.352c0-0.166-0.018-0.288-0.052-0.368
		c-0.035-0.08-0.102-0.135-0.2-0.164s-0.249-0.044-0.452-0.044h-0.92v1.128h0.92C14.078,7.272,14.227,7.257,14.323,7.228z"/>
	<path fill="#E5E5E5" d="M20.743,8.392l-0.328-1.04h-1.96l-0.312,1.04H16.75l1.761-5.504h1.888l1.76,5.504H20.743z M19.447,4.12
		h-0.04l-0.632,2.105h1.312L19.447,4.12z"/>
	<path fill="#E5E5E5" d="M25.996,8.416c-0.274,0.027-0.531,0.04-0.771,0.04c-0.693,0-1.206-0.085-1.536-0.256
		c-0.331-0.171-0.55-0.448-0.656-0.832s-0.16-0.96-0.16-1.727c0-0.758,0.055-1.328,0.164-1.712c0.109-0.385,0.329-0.664,0.66-0.841
		c0.331-0.176,0.84-0.264,1.528-0.264c0.24,0,0.493,0.015,0.76,0.044s0.488,0.065,0.664,0.108v1.056
		c-0.544-0.053-0.904-0.08-1.08-0.08c-0.438,0-0.738,0.033-0.904,0.101C24.5,4.119,24.394,4.258,24.35,4.469
		c-0.046,0.21-0.068,0.601-0.068,1.172c0,0.57,0.022,0.961,0.068,1.172c0.045,0.211,0.15,0.35,0.315,0.416
		c0.166,0.066,0.467,0.1,0.904,0.1c0.395,0,0.766-0.026,1.112-0.08V8.32C26.499,8.357,26.271,8.389,25.996,8.416z"/>
	<path fill="#E5E5E5" d="M30.17,6.24c0-0.299-0.013-0.507-0.036-0.624c-0.024-0.117-0.071-0.191-0.141-0.224
		s-0.197-0.048-0.384-0.048c-0.181,0-0.313,0.025-0.396,0.075C29.131,5.47,29.076,5.557,29.05,5.68
		c-0.027,0.122-0.04,0.317-0.04,0.584v2.128h-1.288v-4.08h1.224L28.977,4.8h0.072c0.208-0.368,0.6-0.553,1.176-0.553
		c0.347,0,0.609,0.061,0.788,0.181c0.179,0.119,0.297,0.29,0.356,0.512s0.088,0.522,0.088,0.9v2.552H30.17V6.24z"/>
	<path fill="#E5E5E5" d="M36.185,6.671h-2.439c0,0.257,0.02,0.436,0.06,0.536c0.04,0.102,0.128,0.168,0.265,0.2
		c0.136,0.032,0.38,0.048,0.731,0.048c0.379,0,0.787-0.021,1.225-0.063v0.92c-0.171,0.043-0.399,0.077-0.685,0.104
		c-0.285,0.027-0.566,0.04-0.844,0.04c-0.624,0-1.079-0.067-1.364-0.204c-0.285-0.136-0.468-0.342-0.548-0.619
		s-0.12-0.702-0.12-1.273c0-0.56,0.04-0.981,0.12-1.264c0.08-0.283,0.255-0.495,0.524-0.637c0.269-0.141,0.691-0.212,1.268-0.212
		s0.99,0.068,1.244,0.204c0.253,0.136,0.41,0.339,0.472,0.608s0.092,0.702,0.092,1.3L36.185,6.671
		C36.184,6.671,36.185,6.671,36.185,6.671z M33.953,5.24c-0.086,0.037-0.142,0.111-0.168,0.22c-0.027,0.109-0.04,0.292-0.04,0.549
		h1.231c0-0.257-0.016-0.44-0.048-0.553c-0.031-0.111-0.088-0.185-0.168-0.22c-0.08-0.034-0.211-0.052-0.392-0.052
		C34.177,5.184,34.038,5.203,33.953,5.24z"/>
	<path fill="#E5E5E5" d="M37.736,8.392v-3.08h-0.735v-1h0.735V3.128h1.305v1.185h0.88v1h-0.88v3.08L37.736,8.392L37.736,8.392z"/>
	<path fill="#E5E5E5" d="M11.555,16.392v-5.504h1.393v5.504H11.555z"/>
	<path fill="#E5E5E5" d="M16.62,14.24c0-0.299-0.013-0.507-0.036-0.624c-0.024-0.117-0.071-0.191-0.141-0.224
		s-0.197-0.048-0.384-0.048c-0.181,0-0.314,0.025-0.396,0.075c-0.083,0.051-0.138,0.138-0.164,0.261
		c-0.027,0.122-0.04,0.317-0.04,0.584v2.128h-1.288v-4.08h1.224l0.032,0.488H15.5c0.208-0.368,0.6-0.553,1.176-0.553
		c0.347,0,0.609,0.061,0.788,0.181c0.179,0.119,0.297,0.29,0.356,0.512s0.088,0.521,0.088,0.9v2.552H16.62V14.24z"/>
	<path fill="#E5E5E5" d="M19.535,16.392v-3.08h-0.736v-1h0.736v-1.185h1.304v1.185h0.88v1h-0.88v3.08H19.535z"/>
	<path fill="#E5E5E5" d="M26.247,14.671h-2.44c0,0.257,0.021,0.436,0.06,0.536c0.04,0.102,0.128,0.168,0.264,0.2
		s0.38,0.048,0.732,0.048c0.378,0,0.786-0.021,1.224-0.064v0.92c-0.171,0.043-0.398,0.077-0.684,0.104s-0.567,0.04-0.845,0.04
		c-0.624,0-1.078-0.067-1.363-0.204c-0.285-0.136-0.469-0.342-0.548-0.619c-0.08-0.277-0.12-0.702-0.12-1.273
		c0-0.56,0.04-0.981,0.12-1.264c0.079-0.283,0.254-0.495,0.523-0.637c0.27-0.141,0.692-0.212,1.269-0.212
		c0.575,0,0.99,0.068,1.243,0.204c0.254,0.136,0.411,0.339,0.473,0.608c0.06,0.269,0.092,0.702,0.092,1.3
		C26.247,14.36,26.247,14.671,26.247,14.671z M24.015,13.24c-0.085,0.037-0.141,0.111-0.168,0.22
		c-0.026,0.109-0.04,0.292-0.04,0.549h1.232c0-0.257-0.016-0.44-0.048-0.553c-0.032-0.111-0.088-0.185-0.168-0.22
		c-0.08-0.034-0.211-0.052-0.393-0.052C24.239,13.184,24.101,13.203,24.015,13.24z"/>
	<path fill="#E5E5E5" d="M27.271,12.312h1.225l0.032,0.696h0.071c0.102-0.283,0.254-0.481,0.456-0.593
		c0.203-0.111,0.475-0.168,0.816-0.168v1.216c-0.347,0-0.612,0.042-0.796,0.124c-0.185,0.083-0.316,0.226-0.396,0.429
		c-0.08,0.202-0.12,0.49-0.12,0.863v1.513h-1.288C27.271,16.392,27.271,12.312,27.271,12.312z"/>
	<path fill="#E5E5E5" d="M31.307,16.276c-0.267-0.12-0.435-0.317-0.508-0.592c-0.071-0.274-0.107-0.719-0.107-1.332
		c0-0.619,0.036-1.064,0.107-1.336c0.072-0.273,0.241-0.469,0.508-0.588c0.268-0.12,0.704-0.181,1.313-0.181
		s1.045,0.061,1.312,0.181c0.267,0.119,0.437,0.315,0.509,0.588c0.071,0.271,0.107,0.717,0.107,1.336
		c0,0.613-0.036,1.058-0.107,1.332c-0.072,0.274-0.242,0.472-0.509,0.592s-0.703,0.18-1.312,0.18S31.574,16.396,31.307,16.276z
		 M33.079,15.388c0.083-0.046,0.133-0.135,0.152-0.269c0.019-0.133,0.027-0.389,0.027-0.768c0-0.384-0.009-0.643-0.027-0.776
		c-0.02-0.133-0.069-0.221-0.152-0.264s-0.236-0.064-0.46-0.064s-0.377,0.021-0.46,0.064s-0.134,0.131-0.152,0.264
		c-0.019,0.134-0.027,0.393-0.027,0.776c0,0.379,0.009,0.635,0.027,0.768c0.019,0.134,0.069,0.223,0.152,0.269
		c0.083,0.045,0.236,0.067,0.46,0.067S32.996,15.433,33.079,15.388z"/>
	<path fill="#E5E5E5" d="M35.577,12.312h1.225l0.032,0.488h0.071c0.112-0.208,0.267-0.352,0.464-0.433s0.427-0.12,0.688-0.12
		c0.331,0,0.591,0.061,0.78,0.185c0.188,0.122,0.329,0.334,0.42,0.636s0.136,0.724,0.136,1.268c0,0.55-0.044,0.977-0.132,1.28
		s-0.227,0.519-0.416,0.645c-0.189,0.125-0.449,0.188-0.78,0.188c-0.271,0-0.5-0.033-0.684-0.1
		c-0.185-0.067-0.335-0.196-0.452-0.389h-0.064v2.024h-1.288V12.312z M37.914,15.304c0.079-0.038,0.132-0.122,0.155-0.252
		c0.024-0.131,0.036-0.364,0.036-0.7s-0.012-0.569-0.036-0.7c-0.023-0.131-0.076-0.216-0.155-0.256
		c-0.08-0.04-0.225-0.061-0.433-0.061c-0.16,0-0.28,0.019-0.359,0.057c-0.08,0.037-0.14,0.104-0.177,0.2
		c-0.031,0.074-0.053,0.17-0.063,0.287c-0.011,0.118-0.017,0.275-0.017,0.473c0,0.202,0.004,0.361,0.013,0.476
		c0.008,0.115,0.027,0.204,0.06,0.269c0.037,0.101,0.096,0.17,0.176,0.208c0.08,0.037,0.203,0.056,0.368,0.056
		C37.689,15.36,37.834,15.341,37.914,15.304z"/>
	<path fill="#E5E5E5" d="M44.042,14.671h-2.44c0,0.257,0.021,0.436,0.061,0.536c0.04,0.102,0.128,0.168,0.264,0.2
		s0.38,0.048,0.732,0.048c0.378,0,0.786-0.021,1.224-0.064v0.92c-0.171,0.043-0.398,0.077-0.684,0.104
		c-0.286,0.027-0.567,0.04-0.845,0.04c-0.624,0-1.078-0.067-1.363-0.204c-0.285-0.136-0.469-0.342-0.548-0.619
		c-0.08-0.277-0.12-0.702-0.12-1.273c0-0.56,0.04-0.981,0.12-1.264c0.079-0.283,0.254-0.495,0.523-0.637
		c0.27-0.141,0.692-0.212,1.269-0.212c0.575,0,0.99,0.068,1.243,0.204c0.254,0.136,0.411,0.339,0.473,0.608
		c0.061,0.269,0.092,0.702,0.092,1.3C44.042,14.36,44.042,14.671,44.042,14.671z M41.81,13.24c-0.085,0.037-0.141,0.111-0.168,0.22
		c-0.026,0.109-0.04,0.292-0.04,0.549h1.232c0-0.257-0.016-0.44-0.048-0.553c-0.032-0.111-0.088-0.185-0.168-0.22
		c-0.08-0.034-0.211-0.052-0.393-0.052C42.034,13.184,41.896,13.203,41.81,13.24z"/>
	<path fill="#E5E5E5" d="M45.065,12.312h1.225l0.032,0.696h0.071c0.102-0.283,0.254-0.481,0.456-0.593
		c0.203-0.111,0.475-0.168,0.815-0.168v1.216c-0.346,0-0.611,0.042-0.795,0.124c-0.185,0.083-0.316,0.226-0.396,0.429
		c-0.08,0.202-0.12,0.49-0.12,0.863v1.513h-1.288C45.065,16.392,45.065,12.312,45.065,12.312z"/>
	<path fill="#E5E5E5" d="M48.647,16.167c-0.191-0.191-0.288-0.506-0.288-0.943c0-0.32,0.037-0.568,0.112-0.744
		c0.074-0.176,0.204-0.304,0.388-0.384c0.185-0.08,0.449-0.12,0.796-0.12c0.262,0,0.638,0.011,1.128,0.032v-0.144
		c0-0.202-0.022-0.345-0.067-0.428c-0.046-0.083-0.131-0.135-0.256-0.156c-0.126-0.021-0.349-0.032-0.668-0.032
		c-0.4,0-0.798,0.021-1.192,0.064v-0.928c0.501-0.091,1.035-0.137,1.6-0.137c0.561,0,0.973,0.059,1.236,0.177
		c0.264,0.117,0.437,0.29,0.517,0.519c0.079,0.229,0.119,0.56,0.119,0.992v2.456H50.84l-0.032-0.473h-0.063
		c-0.14,0.219-0.308,0.363-0.505,0.433s-0.432,0.104-0.703,0.104C49.136,16.456,48.84,16.36,48.647,16.167z M50.496,15.472
		c0.085-0.032,0.151-0.088,0.199-0.168c0.059-0.102,0.088-0.267,0.088-0.496v-0.16h-0.728c-0.144,0-0.248,0.011-0.312,0.032
		s-0.108,0.062-0.133,0.124c-0.023,0.061-0.036,0.161-0.036,0.3c0,0.117,0.014,0.205,0.04,0.264c0.027,0.059,0.079,0.099,0.156,0.12
		s0.201,0.032,0.372,0.032C50.293,15.52,50.41,15.503,50.496,15.472z"/>
	<path fill="#E5E5E5" d="M54.995,16.34c-0.195-0.078-0.349-0.221-0.46-0.429h-0.072l-0.032,0.481h-1.224v-5.944h1.288v2.296h0.063
		c0.117-0.191,0.269-0.321,0.452-0.388s0.412-0.101,0.684-0.101c0.331,0,0.591,0.064,0.78,0.189s0.328,0.34,0.416,0.644
		c0.088,0.305,0.132,0.729,0.132,1.273c0,0.55-0.045,0.975-0.136,1.276c-0.091,0.301-0.23,0.513-0.42,0.636
		c-0.189,0.122-0.449,0.184-0.78,0.184C55.42,16.456,55.189,16.417,54.995,16.34z M55.543,15.308c0.08-0.04,0.132-0.126,0.156-0.256
		c0.023-0.131,0.035-0.364,0.035-0.7s-0.012-0.568-0.035-0.696c-0.024-0.128-0.076-0.212-0.156-0.252s-0.225-0.06-0.433-0.06
		c-0.149,0-0.263,0.015-0.34,0.044s-0.137,0.084-0.18,0.164c-0.037,0.08-0.062,0.181-0.076,0.304s-0.02,0.288-0.02,0.496
		s0.006,0.375,0.02,0.5s0.039,0.226,0.076,0.3c0.043,0.08,0.103,0.136,0.18,0.168s0.19,0.048,0.34,0.048
		C55.318,15.368,55.463,15.348,55.543,15.308z"/>
	<path fill="#E5E5E5" d="M58.029,11.503v-1.056h1.319v1.056H58.029z M58.037,16.392v-4.08h1.304v4.08H58.037z"/>
	<path fill="#E5E5E5" d="M60.476,16.392v-5.944h1.304v5.944H60.476z"/>
	<path fill="#E5E5E5" d="M62.905,11.503v-1.056h1.319v1.056H62.905z M62.913,16.392v-4.08h1.304v4.08
		C64.217,16.392,62.913,16.392,62.913,16.392z"/>
	<path fill="#E5E5E5" d="M65.849,16.392v-3.08h-0.736v-1h0.736v-1.185h1.304v1.185h0.88v1h-0.88v3.08
		C67.152,16.392,65.849,16.392,65.849,16.392z"/>
	<path fill="#E5E5E5" d="M69.883,18.012c-0.264-0.02-0.48-0.044-0.651-0.076v-0.912l0.376,0.008l0.736,0.008
		c0.346,0,0.589-0.02,0.728-0.06s0.226-0.113,0.26-0.22c0.035-0.107,0.052-0.302,0.052-0.584V15.84h-0.063
		c-0.106,0.186-0.256,0.321-0.448,0.403c-0.191,0.083-0.427,0.124-0.704,0.124c-0.347,0-0.609-0.059-0.788-0.176
		s-0.297-0.287-0.355-0.508c-0.059-0.222-0.088-0.521-0.088-0.9v-2.472h1.288v2.08c0,0.299,0.012,0.505,0.035,0.62
		c0.024,0.114,0.071,0.188,0.141,0.22s0.197,0.048,0.384,0.048c0.182,0,0.313-0.025,0.396-0.076
		c0.082-0.051,0.137-0.136,0.164-0.256c0.026-0.12,0.039-0.314,0.039-0.58v-2.056h1.288v3.624c0,0.549-0.04,0.964-0.12,1.244
		c-0.079,0.279-0.263,0.493-0.548,0.64s-0.734,0.22-1.348,0.22C70.404,18.04,70.147,18.031,69.883,18.012z"/>
	<path fill="#E5E5E5" d="M12.635,24.392v-4.32h-1.519v-1.184h4.439v1.184h-1.527v4.32C14.027,24.392,12.635,24.392,12.635,24.392z"
		/>
	<path fill="#E5E5E5" d="M19.413,22.671h-2.44c0,0.257,0.02,0.435,0.06,0.536c0.04,0.102,0.128,0.168,0.265,0.2
		c0.136,0.032,0.38,0.048,0.731,0.048c0.379,0,0.787-0.021,1.225-0.063v0.92c-0.171,0.043-0.399,0.077-0.685,0.104
		c-0.285,0.027-0.566,0.04-0.844,0.04c-0.624,0-1.079-0.067-1.364-0.204c-0.285-0.136-0.468-0.342-0.548-0.619
		s-0.12-0.702-0.12-1.272c0-0.56,0.04-0.981,0.12-1.264s0.255-0.495,0.524-0.637c0.269-0.141,0.691-0.212,1.268-0.212
		s0.99,0.068,1.244,0.204c0.253,0.136,0.41,0.339,0.472,0.608s0.092,0.702,0.092,1.3L19.413,22.671L19.413,22.671z M17.182,21.24
		c-0.086,0.037-0.142,0.111-0.168,0.22c-0.027,0.109-0.04,0.292-0.04,0.549h1.231c0-0.257-0.016-0.44-0.048-0.553
		c-0.031-0.111-0.088-0.185-0.168-0.22c-0.08-0.034-0.211-0.052-0.392-0.052C17.405,21.184,17.267,21.203,17.182,21.24z"/>
	<path fill="#E5E5E5" d="M21.241,24.424c-0.307-0.021-0.574-0.049-0.804-0.08v-0.929c0.459,0.043,0.88,0.065,1.264,0.065
		c0.256,0,0.438-0.008,0.544-0.024c0.107-0.016,0.175-0.044,0.204-0.084s0.044-0.107,0.044-0.204c0-0.08-0.009-0.137-0.027-0.172
		c-0.02-0.034-0.055-0.06-0.108-0.076c-0.054-0.016-0.146-0.031-0.28-0.048l-0.952-0.12c-0.319-0.042-0.534-0.164-0.644-0.363
		c-0.109-0.2-0.164-0.5-0.164-0.9c0-0.357,0.069-0.625,0.208-0.804s0.327-0.296,0.565-0.353c0.237-0.056,0.545-0.084,0.924-0.084
		c0.261,0,0.527,0.011,0.8,0.032c0.271,0.021,0.49,0.051,0.656,0.088v0.92c-0.438-0.042-0.83-0.063-1.177-0.063
		c-0.234,0-0.402,0.005-0.504,0.016c-0.101,0.011-0.172,0.036-0.212,0.076s-0.06,0.105-0.06,0.196c0,0.08,0.007,0.136,0.02,0.168
		c0.014,0.031,0.046,0.056,0.097,0.071c0.05,0.017,0.134,0.032,0.252,0.049l0.943,0.111c0.208,0.027,0.371,0.073,0.488,0.141
		c0.117,0.066,0.209,0.184,0.276,0.352c0.066,0.168,0.1,0.412,0.1,0.732c0,0.378-0.065,0.664-0.196,0.855
		c-0.131,0.192-0.308,0.317-0.531,0.376c-0.225,0.059-0.518,0.088-0.881,0.088C21.829,24.456,21.548,24.445,21.241,24.424z"/>
	<path fill="#E5E5E5" d="M25.125,24.392v-3.08H24.39v-1h0.735v-1.185h1.305v1.185h0.88v1h-0.88v3.08H25.125z"/>
	<path fill="#E5E5E5" d="M28.204,19.503v-1.056h1.32v1.056H28.204z M28.212,24.392v-4.08h1.305v4.08H28.212z"/>
	<path fill="#E5E5E5" d="M33.099,22.24c0-0.299-0.012-0.507-0.036-0.624c-0.023-0.117-0.07-0.191-0.14-0.224
		s-0.197-0.048-0.384-0.048c-0.182,0-0.313,0.025-0.396,0.075c-0.082,0.051-0.137,0.138-0.164,0.261
		c-0.026,0.122-0.04,0.317-0.04,0.584v2.128H30.65v-4.08h1.225l0.032,0.488h0.071c0.208-0.368,0.601-0.553,1.177-0.553
		c0.347,0,0.608,0.06,0.787,0.181c0.179,0.119,0.298,0.29,0.356,0.512s0.088,0.521,0.088,0.9v2.552h-1.288L33.099,22.24
		L33.099,22.24z"/>
	<path fill="#E5E5E5" d="M36.378,26.008c-0.272-0.021-0.491-0.046-0.656-0.072v-0.912c0.438,0.011,0.808,0.016,1.112,0.016
		c0.362,0,0.614-0.019,0.756-0.056s0.231-0.112,0.271-0.224c0.04-0.112,0.061-0.31,0.061-0.593v-0.296h-0.056
		c-0.112,0.192-0.262,0.323-0.448,0.393s-0.414,0.104-0.681,0.104c-0.336,0-0.6-0.062-0.792-0.184
		c-0.191-0.123-0.332-0.331-0.42-0.624c-0.088-0.294-0.132-0.709-0.132-1.248s0.046-0.957,0.136-1.256
		c0.091-0.299,0.232-0.509,0.425-0.628c0.191-0.12,0.453-0.181,0.783-0.181c0.257,0,0.484,0.04,0.685,0.12s0.355,0.225,0.468,0.433
		h0.064l0.031-0.488h1.225v3.616c0,0.549-0.042,0.965-0.124,1.248c-0.083,0.282-0.27,0.497-0.561,0.644
		c-0.29,0.146-0.745,0.22-1.363,0.22C36.911,26.04,36.649,26.029,36.378,26.008z M37.658,23.236
		c0.079-0.034,0.138-0.098,0.176-0.188c0.037-0.074,0.061-0.166,0.071-0.275s0.017-0.263,0.017-0.46
		c0-0.192-0.006-0.343-0.017-0.452s-0.034-0.198-0.071-0.268c-0.038-0.097-0.097-0.163-0.176-0.2
		c-0.08-0.037-0.198-0.057-0.353-0.057c-0.203,0-0.344,0.02-0.424,0.057s-0.134,0.12-0.16,0.248s-0.04,0.352-0.04,0.672
		s0.014,0.544,0.04,0.672s0.08,0.211,0.16,0.248s0.221,0.056,0.424,0.056C37.46,23.288,37.578,23.271,37.658,23.236z"/>
	<path fill="#E5E5E5" d="M42.401,24.32v-1.088c0.651,0.063,1.2,0.096,1.648,0.096c0.261,0,0.461-0.011,0.6-0.032
		s0.237-0.056,0.296-0.104c0.054-0.043,0.087-0.095,0.101-0.156c0.013-0.062,0.02-0.147,0.02-0.26c0-0.133-0.011-0.229-0.031-0.288
		c-0.021-0.059-0.064-0.1-0.128-0.124c-0.064-0.023-0.177-0.047-0.337-0.068l-1.016-0.128c-0.362-0.042-0.639-0.134-0.828-0.275
		s-0.317-0.324-0.384-0.548c-0.066-0.225-0.1-0.504-0.1-0.841c0-0.475,0.088-0.834,0.264-1.079c0.176-0.246,0.412-0.407,0.708-0.484
		s0.673-0.116,1.132-0.116c0.336,0,0.645,0.014,0.924,0.04c0.28,0.026,0.586,0.069,0.916,0.128v1.065
		c-0.635-0.069-1.154-0.104-1.56-0.104c-0.427,0-0.704,0.032-0.832,0.096c-0.069,0.032-0.113,0.078-0.132,0.137
		c-0.02,0.059-0.028,0.142-0.028,0.248c0,0.133,0.009,0.228,0.028,0.284s0.059,0.096,0.12,0.119
		c0.061,0.024,0.169,0.047,0.323,0.068l1.168,0.144c0.235,0.027,0.429,0.075,0.58,0.145c0.152,0.069,0.279,0.187,0.38,0.352
		c0.155,0.229,0.232,0.595,0.232,1.097c0,0.522-0.083,0.916-0.248,1.18s-0.387,0.435-0.664,0.516s-0.638,0.12-1.08,0.12
		C43.695,24.456,43.005,24.411,42.401,24.32z"/>
	<path fill="#E5E5E5" d="M51.165,22.671h-2.439c0,0.257,0.02,0.435,0.061,0.536c0.039,0.102,0.127,0.168,0.264,0.2
		c0.135,0.032,0.379,0.048,0.732,0.048c0.377,0,0.785-0.021,1.223-0.063v0.92c-0.17,0.043-0.398,0.077-0.684,0.104
		c-0.285,0.027-0.566,0.04-0.844,0.04c-0.625,0-1.078-0.067-1.365-0.204c-0.284-0.136-0.467-0.342-0.547-0.619
		s-0.12-0.702-0.12-1.272c0-0.56,0.04-0.981,0.12-1.264c0.08-0.283,0.254-0.495,0.523-0.637c0.27-0.141,0.693-0.212,1.268-0.212
		c0.576,0,0.992,0.068,1.244,0.204c0.254,0.136,0.412,0.339,0.473,0.608s0.092,0.702,0.092,1.3L51.165,22.671L51.165,22.671z
		 M48.933,21.24c-0.084,0.037-0.141,0.111-0.168,0.22c-0.025,0.109-0.039,0.292-0.039,0.549h1.232c0-0.257-0.018-0.44-0.049-0.553
		c-0.031-0.111-0.088-0.185-0.168-0.22c-0.08-0.034-0.211-0.052-0.393-0.052C49.157,21.184,49.019,21.203,48.933,21.24z"/>
	<path fill="#E5E5E5" d="M52.189,20.312h1.224l0.032,0.696h0.072c0.101-0.283,0.253-0.48,0.456-0.593
		c0.202-0.111,0.475-0.168,0.815-0.168v1.216c-0.347,0-0.612,0.042-0.796,0.124c-0.184,0.083-0.316,0.226-0.396,0.429
		c-0.08,0.202-0.12,0.49-0.12,0.863v1.513h-1.288L52.189,20.312L52.189,20.312z"/>
	<path fill="#E5E5E5" d="M56.704,24.392l-1.217-4.08H56.8l0.752,2.896h0.08l0.736-2.896h1.288l-1.217,4.08
		C58.44,24.392,56.704,24.392,56.704,24.392z"/>
	<path fill="#E5E5E5" d="M60.521,19.503v-1.056h1.319v1.056H60.521z M60.529,24.392v-4.08h1.304v4.08H60.529z"/>
	<path fill="#E5E5E5" d="M64.623,24.456c-0.539,0-0.935-0.078-1.188-0.235c-0.254-0.157-0.415-0.378-0.484-0.66
		c-0.069-0.283-0.104-0.685-0.104-1.208c0-0.507,0.036-0.902,0.108-1.188c0.072-0.285,0.234-0.509,0.488-0.672
		c0.253-0.162,0.644-0.244,1.172-0.244c0.459,0,0.864,0.046,1.216,0.137v0.928c-0.288-0.043-0.579-0.065-0.872-0.065
		c-0.251,0-0.431,0.028-0.54,0.084c-0.109,0.057-0.182,0.156-0.216,0.301c-0.035,0.144-0.052,0.384-0.052,0.72
		s0.017,0.577,0.052,0.724c0.034,0.146,0.106,0.247,0.216,0.3c0.109,0.054,0.292,0.08,0.548,0.08c0.283,0,0.582-0.021,0.896-0.063
		v0.928C65.463,24.411,65.05,24.456,64.623,24.456z"/>
	<path fill="#E5E5E5" d="M70.474,22.671h-2.44c0,0.257,0.021,0.435,0.061,0.536c0.04,0.102,0.128,0.168,0.264,0.2
		s0.38,0.048,0.732,0.048c0.378,0,0.786-0.021,1.224-0.063v0.92c-0.171,0.043-0.398,0.077-0.685,0.104
		c-0.285,0.027-0.566,0.04-0.844,0.04c-0.624,0-1.078-0.067-1.364-0.204c-0.285-0.136-0.468-0.342-0.548-0.619
		s-0.12-0.702-0.12-1.272c0-0.56,0.04-0.981,0.12-1.264s0.255-0.495,0.524-0.637c0.27-0.141,0.692-0.212,1.268-0.212
		s0.991,0.068,1.244,0.204c0.254,0.136,0.411,0.339,0.473,0.608c0.061,0.27,0.092,0.702,0.092,1.3L70.474,22.671
		C70.473,22.671,70.474,22.671,70.474,22.671z M68.241,21.24c-0.085,0.037-0.142,0.111-0.168,0.22s-0.04,0.292-0.04,0.549h1.232
		c0-0.257-0.017-0.44-0.048-0.553c-0.032-0.111-0.089-0.185-0.168-0.22c-0.08-0.034-0.211-0.052-0.393-0.052
		C68.466,21.184,68.326,21.203,68.241,21.24z"/>
	<path fill="#E5E5E5" d="M72.301,24.424c-0.307-0.021-0.574-0.049-0.804-0.08v-0.929c0.459,0.043,0.88,0.065,1.265,0.065
		c0.256,0,0.437-0.008,0.544-0.024c0.106-0.016,0.174-0.044,0.203-0.084s0.045-0.107,0.045-0.204c0-0.08-0.01-0.137-0.028-0.172
		c-0.019-0.034-0.055-0.06-0.108-0.076s-0.146-0.031-0.279-0.048l-0.952-0.12c-0.32-0.042-0.535-0.164-0.645-0.363
		c-0.109-0.2-0.164-0.5-0.164-0.9c0-0.357,0.069-0.625,0.208-0.804s0.327-0.296,0.564-0.353c0.237-0.056,0.545-0.084,0.924-0.084
		c0.262,0,0.528,0.011,0.8,0.032s0.491,0.051,0.656,0.088v0.92c-0.438-0.042-0.829-0.063-1.176-0.063
		c-0.235,0-0.403,0.005-0.504,0.016c-0.102,0.011-0.173,0.036-0.212,0.076c-0.04,0.04-0.061,0.105-0.061,0.196
		c0,0.08,0.007,0.136,0.021,0.168c0.013,0.031,0.045,0.056,0.096,0.071c0.051,0.017,0.135,0.032,0.252,0.049l0.944,0.111
		c0.208,0.027,0.37,0.073,0.487,0.141c0.117,0.066,0.21,0.184,0.276,0.352s0.1,0.412,0.1,0.732c0,0.378-0.065,0.664-0.195,0.855
		c-0.131,0.192-0.309,0.317-0.532,0.376c-0.225,0.059-0.518,0.088-0.88,0.088C72.89,24.456,72.607,24.445,72.301,24.424z"/>
</g>
<polygon fill="#24D352" points="4.881,0 0,2.818 0,8.455 4.881,11.273 9.763,8.455 9.763,2.818 "/>
</svg>
