<?xml version="1.0" encoding="utf-8"?>
<!-- Generator: Adobe Illustrator 25.2.1, SVG Export Plug-In . SVG Version: 6.00 Build 0)  -->
<svg version="1.1" id="bacshark-logo-icon-light-solid"
	 xmlns="http://www.w3.org/2000/svg" xmlns:xlink="http://www.w3.org/1999/xlink" x="0px" y="0px" viewBox="0 0 181.424 218.052"
	 enable-background="new 0 0 181.424 218.052" xml:space="preserve">
<g>
	<path fill="#256868" d="M179.956,23.299c-7.544-18.149-41.161-23.904-70.11-23.25C66.321,1.042,14.348,16.236,3.089,47.246
		c-5.726,15.771-2.985,30.499,4.075,52.163c6.34,19.453,17.149,38.683,32.126,57.154c5.603,6.91,50.726,61.489,77.963,61.489
		c3.209,0,6.17-0.758,8.79-2.44c6.183-3.974,5.186-12.706,3.676-25.924c-2.114-18.51-5.309-46.482,8.335-79.515
		c9.708-23.504,21.101-39.587,29.419-51.329C177.446,44.767,184.651,34.596,179.956,23.299z"/>
</g>
</svg>
