<?xml version="1.0" encoding="utf-8"?>
<!-- Generator: Adobe Illustrator 25.2.1, SVG Export Plug-In . SVG Version: 6.00 Build 0)  -->
<svg version="1.1" id="bacshark-logo-icon-dark" xmlns="http://www.w3.org/2000/svg" xmlns:xlink="http://www.w3.org/1999/xlink"
	 x="0px" y="0px" viewBox="0 0 181.425 218.052" enable-background="new 0 0 181.425 218.052" xml:space="preserve">
<path fill="#00133A" d="M179.956,23.299c-7.544-18.149-41.161-23.904-70.11-23.25C66.321,1.042,14.348,16.236,3.089,47.246
	c-5.726,15.771-2.985,30.499,4.075,52.163c6.34,19.453,17.149,38.683,32.126,57.154c5.603,6.91,50.726,61.489,77.963,61.489
	c3.209,0,6.17-0.758,8.79-2.44c6.183-3.974,5.186-12.706,3.676-25.924c-2.114-18.51-5.309-46.482,8.335-79.515
	c9.708-23.504,21.101-39.587,29.419-51.329C177.446,44.767,184.651,34.596,179.956,23.299z M45.504,151.524
	C31.146,133.816,20.806,115.448,14.77,96.93c-6.507-19.965-9.098-33.361-4.162-46.954c9.532-26.255,57.23-40.966,99.421-41.929
	c1.508-0.034,2.998-0.052,4.472-0.052c9.03,0,17.408,0.643,24.856,1.834c1.665,1.592,2.88,3.285,3.616,5.056
	c2.87,6.905-1.749,13.911-11.623,27.849c-8.539,12.054-20.233,28.562-30.286,52.9c-14.432,34.942-11.096,64.149-8.889,83.477
	c0.911,7.971,1.942,17.005-0.053,18.286c-0.162,0.104-0.332,0.192-0.5,0.283C76.096,185.816,58.436,167.475,45.504,151.524z
	 M160.946,54.219c-8.539,12.054-20.233,28.562-30.286,52.899c-14.432,34.942-11.096,64.15-8.889,83.478
	c0.91,7.97,1.942,17.003-0.053,18.285c-1.359,0.873-2.978,1.282-4.817,1.282c-4.893-0.001-11.344-2.911-18.54-7.668
	c4.018-4.497,3.092-12.653,1.763-24.292c-2.114-18.51-5.309-46.482,8.335-79.515c9.708-23.505,21.101-39.587,29.42-51.33
	c9.854-13.91,16.998-24.007,12.637-35.143c11.587,3.21,19.537,8.099,22.053,14.153C175.439,33.275,170.82,40.281,160.946,54.219z"/>
</svg>
