<?xml version="1.0" encoding="utf-8"?>
<!-- Generator: Adobe Illustrator 25.2.1, SVG Export Plug-In . SVG Version: 6.00 Build 0)  -->
<svg version="1.1" id="bacshark-logo-dark-solid" xmlns="http://www.w3.org/2000/svg" xmlns:xlink="http://www.w3.org/1999/xlink"
	 x="0px" y="0px" viewBox="0 0 468.571 218.052" enable-background="new 0 0 468.571 218.052" xml:space="preserve">
<g>
	<g>
		<g>
			<path fill="#FFFFFF" d="M190.649,112.255c3.904,0,6.898,0.998,8.982,2.994c2.083,1.996,3.125,4.814,3.125,8.455
				c0,1.931-0.439,3.707-1.316,5.33c-0.878,1.623-2.161,2.917-3.85,3.882c-1.689,0.965-3.783,1.491-6.284,1.579l-0.066-1.843
				c1.535,0,3.114,0.221,4.738,0.658c1.622,0.439,3.114,1.142,4.474,2.105c1.359,0.966,2.478,2.237,3.356,3.816
				c0.877,1.579,1.316,3.532,1.316,5.856c0,2.5-0.417,4.606-1.25,6.316c-0.834,1.711-1.941,3.071-3.323,4.08
				c-1.382,1.01-2.917,1.733-4.606,2.171c-1.689,0.439-3.411,0.658-5.165,0.658h-17.24c-0.747,0-1.382-0.263-1.908-0.789
				s-0.79-1.162-0.79-1.908V114.95c0-0.745,0.263-1.382,0.79-1.908s1.162-0.789,1.908-0.789h17.109V112.255z M189.925,117.453
				h-14.147l0.79-1.119v16.318l-0.724-0.855h14.147c1.93,0,3.586-0.625,4.968-1.875s2.073-3.081,2.073-5.494
				c0-2.237-0.625-3.958-1.875-5.165C193.906,118.057,192.163,117.453,189.925,117.453z M190.386,137.062h-14.278l0.46-0.461v17.174
				l-0.526-0.592h14.607c2.544,0,4.639-0.658,6.284-1.975c1.645-1.315,2.467-3.355,2.467-6.119c0-2.148-0.439-3.794-1.316-4.935
				c-0.878-1.141-2.007-1.941-3.389-2.402C193.314,137.292,191.877,137.062,190.386,137.062z"/>
			<path fill="#FFFFFF" d="M229.8,119.098l-15.463,37.638c-0.176,0.526-0.483,0.954-0.921,1.283
				c-0.439,0.329-0.899,0.493-1.381,0.493c-0.834,0-1.448-0.229-1.843-0.69s-0.615-0.997-0.658-1.612
				c0-0.307,0.043-0.636,0.131-0.987l17.042-41.388c0.263-0.614,0.625-1.074,1.085-1.382c0.46-0.307,0.976-0.438,1.546-0.395
				c0.569,0,1.085,0.154,1.546,0.46c0.46,0.308,0.778,0.747,0.954,1.316l16.976,40.993c0.132,0.352,0.198,0.702,0.198,1.053
				c0,0.79-0.263,1.426-0.79,1.908c-0.526,0.483-1.119,0.724-1.777,0.724c-0.57,0-1.075-0.164-1.513-0.493
				c-0.439-0.329-0.768-0.778-0.987-1.349l-15.66-37.638L229.8,119.098z M217.627,146.01l2.237-5.132h19.542l0.987,5.132H217.627z"
				/>
			<path fill="#FFFFFF" d="M289.348,115.281c0.746,0.396,1.185,0.987,1.316,1.776c0.132,0.79-0.065,1.536-0.592,2.237
				c-0.396,0.526-0.9,0.823-1.514,0.889c-0.615,0.065-1.229-0.055-1.843-0.362c-1.447-0.877-3.005-1.567-4.672-2.072
				c-1.667-0.504-3.421-0.757-5.264-0.757c-2.589,0-4.958,0.439-7.106,1.316c-2.149,0.878-4.014,2.139-5.593,3.783
				s-2.808,3.586-3.685,5.823c-0.879,2.237-1.316,4.694-1.316,7.37c0,2.895,0.461,5.483,1.382,7.764s2.182,4.223,3.783,5.823
				c1.601,1.603,3.465,2.819,5.593,3.652c2.128,0.834,4.442,1.25,6.942,1.25c1.798,0,3.53-0.24,5.198-0.724
				c1.666-0.482,3.224-1.185,4.672-2.105c0.613-0.307,1.238-0.417,1.875-0.329c0.636,0.088,1.151,0.395,1.547,0.921
				c0.569,0.702,0.777,1.438,0.625,2.204c-0.154,0.769-0.582,1.35-1.283,1.744c-1.098,0.658-2.348,1.25-3.751,1.776
				c-1.404,0.526-2.862,0.944-4.376,1.25c-1.513,0.307-3.017,0.461-4.507,0.461c-3.158,0-6.142-0.549-8.949-1.645
				c-2.808-1.097-5.297-2.665-7.468-4.705c-2.171-2.04-3.872-4.518-5.1-7.436c-1.229-2.917-1.842-6.218-1.842-9.902
				c0-3.378,0.592-6.503,1.777-9.377c1.184-2.873,2.829-5.362,4.935-7.469c2.105-2.105,4.573-3.739,7.402-4.901
				s5.911-1.744,9.245-1.744c2.28,0,4.496,0.296,6.646,0.889C285.576,113.274,287.549,114.142,289.348,115.281z"/>
			<path fill="#FFFFFF" d="M302.32,152.902c-0.353-0.571-0.518-1.177-0.495-1.814c0.021-0.638,0.385-1.198,1.089-1.684
				c0.483-0.307,1.023-0.438,1.617-0.396c0.594,0.044,1.132,0.33,1.617,0.857c1.231,1.452,2.64,2.607,4.224,3.466
				c1.584,0.857,3.52,1.287,5.809,1.287c1.012-0.044,2.056-0.22,3.135-0.528c1.077-0.308,1.979-0.847,2.706-1.617
				c0.726-0.77,1.089-1.792,1.089-3.069c0-1.23-0.374-2.211-1.122-2.937c-0.749-0.727-1.728-1.32-2.938-1.782
				s-2.497-0.868-3.86-1.221c-1.452-0.396-2.883-0.836-4.29-1.32c-1.409-0.483-2.673-1.11-3.795-1.881
				c-1.122-0.77-2.024-1.737-2.706-2.904c-0.683-1.165-1.023-2.606-1.023-4.322c0-1.98,0.539-3.696,1.617-5.148
				s2.519-2.574,4.323-3.366s3.805-1.188,6.006-1.188c1.231,0,2.519,0.144,3.861,0.429c1.342,0.287,2.65,0.771,3.927,1.452
				c1.275,0.683,2.397,1.617,3.366,2.805c0.396,0.44,0.615,0.99,0.66,1.65c0.043,0.66-0.243,1.254-0.858,1.782
				c-0.484,0.353-1.023,0.518-1.617,0.494c-0.594-0.021-1.089-0.23-1.485-0.627c-0.968-1.144-2.145-2.013-3.53-2.606
				c-1.387-0.594-2.916-0.892-4.587-0.892c-1.013,0-2.024,0.165-3.036,0.495c-1.013,0.33-1.859,0.848-2.541,1.552
				c-0.683,0.704-1.023,1.694-1.023,2.97c0.044,1.188,0.439,2.156,1.188,2.904c0.747,0.748,1.759,1.353,3.036,1.814
				c1.275,0.462,2.683,0.914,4.224,1.354c1.407,0.353,2.761,0.759,4.059,1.221s2.476,1.067,3.531,1.814
				c1.057,0.749,1.892,1.706,2.508,2.871c0.616,1.167,0.925,2.63,0.925,4.39c0,2.024-0.573,3.773-1.717,5.247
				c-1.145,1.475-2.651,2.597-4.521,3.365c-1.871,0.77-3.884,1.155-6.039,1.155c-2.421,0-4.818-0.451-7.194-1.353
				S304.036,155.146,302.32,152.902z"/>
			<path fill="#FFFFFF" d="M352.084,123.665c2.904,0,5.202,0.627,6.896,1.881c1.693,1.254,2.904,2.927,3.631,5.016
				c0.726,2.091,1.089,4.412,1.089,6.963v18.084c0,0.749-0.254,1.387-0.759,1.914c-0.507,0.528-1.134,0.792-1.882,0.792
				c-0.792,0-1.43-0.264-1.914-0.792c-0.484-0.527-0.726-1.165-0.726-1.914v-18.084c0-1.627-0.242-3.123-0.726-4.487
				c-0.485-1.363-1.287-2.453-2.409-3.268c-1.122-0.813-2.651-1.221-4.587-1.221c-1.805,0-3.455,0.407-4.95,1.221
				c-1.496,0.814-2.685,1.904-3.564,3.268c-0.88,1.364-1.319,2.86-1.319,4.487v18.084c0,0.749-0.254,1.387-0.76,1.914
				c-0.506,0.528-1.133,0.792-1.881,0.792s-1.375-0.264-1.881-0.792c-0.506-0.527-0.759-1.165-0.759-1.914v-43.428
				c0-0.748,0.253-1.386,0.759-1.914s1.133-0.792,1.881-0.792c0.792,0,1.43,0.264,1.914,0.792s0.727,1.166,0.727,1.914v19.668
				l-1.32,1.452c0.22-1.144,0.703-2.299,1.452-3.465c0.747-1.166,1.693-2.211,2.838-3.135c1.144-0.925,2.419-1.661,3.828-2.212
				C349.069,123.94,350.543,123.665,352.084,123.665z"/>
			<path fill="#FFFFFF" d="M401.253,123.862c0.792,0,1.43,0.254,1.914,0.76s0.727,1.133,0.727,1.881v29.105
				c0,0.749-0.254,1.387-0.76,1.914c-0.506,0.528-1.133,0.792-1.881,0.792c-0.792,0-1.43-0.264-1.914-0.792
				c-0.484-0.527-0.726-1.165-0.726-1.914v-6.27l1.254-0.132c0,1.013-0.33,2.079-0.99,3.2c-0.66,1.122-1.562,2.179-2.706,3.169
				c-1.145,0.989-2.497,1.805-4.059,2.441c-1.562,0.638-3.224,0.957-4.983,0.957c-3.036,0-5.741-0.78-8.117-2.343
				c-2.377-1.562-4.258-3.685-5.644-6.369c-1.386-2.684-2.079-5.742-2.079-9.174c0-3.476,0.693-6.545,2.079-9.207
				s3.267-4.752,5.644-6.271c2.376-1.518,5.016-2.276,7.92-2.276c1.891,0,3.651,0.308,5.279,0.924s3.047,1.452,4.257,2.508
				s2.156,2.223,2.839,3.498c0.682,1.276,1.022,2.553,1.022,3.828l-1.716-0.396v-7.193c0-0.748,0.241-1.375,0.726-1.881
				S400.461,123.862,401.253,123.862z M387.657,154.091c2.199,0,4.146-0.571,5.841-1.716c1.693-1.144,3.014-2.695,3.96-4.653
				c0.946-1.957,1.419-4.168,1.419-6.633c0-2.42-0.473-4.598-1.419-6.534c-0.946-1.936-2.267-3.476-3.96-4.62
				c-1.694-1.144-3.642-1.716-5.841-1.716c-2.156,0-4.082,0.561-5.775,1.683c-1.694,1.122-3.025,2.651-3.992,4.587
				c-0.969,1.938-1.452,4.137-1.452,6.601c0,2.465,0.483,4.676,1.452,6.633c0.967,1.958,2.298,3.51,3.992,4.653
				C383.575,153.52,385.501,154.091,387.657,154.091z"/>
			<path fill="#FFFFFF" d="M416.3,158.314c-0.749,0-1.376-0.264-1.881-0.792c-0.507-0.527-0.76-1.165-0.76-1.914v-28.71
				c0-0.792,0.253-1.44,0.76-1.946c0.505-0.506,1.132-0.76,1.881-0.76c0.792,0,1.429,0.254,1.914,0.76
				c0.483,0.506,0.726,1.154,0.726,1.946v8.646l-0.792-1.386c0.265-1.364,0.736-2.695,1.419-3.993
				c0.682-1.298,1.551-2.464,2.607-3.498c1.056-1.033,2.266-1.849,3.63-2.442c1.363-0.594,2.859-0.891,4.488-0.891
				c0.967,0,1.858,0.23,2.673,0.692c0.813,0.462,1.221,1.112,1.221,1.947c0,0.924-0.242,1.617-0.726,2.079
				c-0.485,0.462-1.035,0.693-1.65,0.693c-0.572,0-1.122-0.133-1.65-0.396c-0.527-0.264-1.188-0.396-1.979-0.396
				c-1.101,0-2.189,0.308-3.267,0.924c-1.079,0.616-2.069,1.463-2.971,2.541s-1.628,2.31-2.178,3.695
				c-0.551,1.387-0.825,2.871-0.825,4.455v16.038c0,0.749-0.254,1.387-0.759,1.914C417.674,158.051,417.048,158.314,416.3,158.314z"
				/>
			<path fill="#FFFFFF" d="M443.293,158.314c-0.792,0-1.441-0.264-1.946-0.792c-0.507-0.527-0.759-1.165-0.759-1.914V112.18
				c0-0.748,0.252-1.386,0.759-1.914c0.505-0.528,1.154-0.792,1.946-0.792c0.748,0,1.375,0.264,1.882,0.792
				c0.505,0.528,0.759,1.166,0.759,1.914v43.428c0,0.749-0.254,1.387-0.759,1.914C444.668,158.051,444.041,158.314,443.293,158.314z
				 M465.205,123.995c0.704,0,1.309,0.275,1.815,0.824c0.505,0.551,0.759,1.134,0.759,1.749c0,0.705-0.353,1.364-1.056,1.98
				l-21.384,18.678l-0.198-6.204l18.149-16.235C463.862,124.259,464.501,123.995,465.205,123.995z M465.931,158.249
				c-0.792,0-1.452-0.286-1.98-0.858l-14.058-14.981l3.96-3.631l13.926,14.916c0.528,0.572,0.792,1.232,0.792,1.98
				c0,0.792-0.309,1.419-0.924,1.881C467.031,158.018,466.459,158.249,465.931,158.249z"/>
		</g>
	</g>
	<path fill="#82D8B3" d="M179.956,23.299c-7.544-18.149-41.161-23.904-70.11-23.25C66.321,1.042,14.348,16.236,3.089,47.246
		c-5.726,15.771-2.985,30.499,4.075,52.163c6.34,19.453,17.149,38.683,32.126,57.154c5.603,6.91,50.726,61.489,77.963,61.489
		c3.209,0,6.17-0.758,8.79-2.44c6.183-3.974,5.186-12.706,3.676-25.924c-2.114-18.51-5.309-46.482,8.335-79.515
		c9.708-23.504,21.101-39.587,29.419-51.329C177.446,44.767,184.651,34.596,179.956,23.299z"/>
</g>
</svg>
