<?xml version="1.0" encoding="utf-8"?>
<!-- Generator: Adobe Illustrator 25.2.1, SVG Export Plug-In . SVG Version: 6.00 Build 0)  -->
<svg version="1.1" id="bacshark-logo-dark" xmlns="http://www.w3.org/2000/svg" xmlns:xlink="http://www.w3.org/1999/xlink" x="0px"
	 y="0px" viewBox="0 0 533.726 218.052" enable-background="new 0 0 533.726 218.052" xml:space="preserve">
<g>
	<path fill="#FFFFFF" d="M180.021,122.01c5.223,0,9.228,1.336,12.016,4.006c2.787,2.672,4.181,6.441,4.181,11.311
		c0,2.583-0.587,4.961-1.76,7.131c-1.175,2.171-2.891,3.904-5.15,5.193c-2.259,1.292-5.061,1.996-8.406,2.113l-0.088-2.464
		c2.054,0,4.166,0.294,6.338,0.881c2.17,0.587,4.166,1.526,5.985,2.817c1.819,1.291,3.315,2.993,4.49,5.106
		c1.173,2.113,1.76,4.724,1.76,7.835c0,3.344-0.559,6.161-1.672,8.45c-1.116,2.289-2.597,4.109-4.446,5.457
		c-1.849,1.351-3.903,2.319-6.162,2.906c-2.259,0.588-4.563,0.881-6.91,0.881h-23.063c-0.999,0-1.849-0.353-2.553-1.057
		c-0.704-0.704-1.056-1.553-1.056-2.553v-54.4c0-0.997,0.352-1.849,1.056-2.553c0.704-0.704,1.554-1.057,2.553-1.057H180.021z
		 M179.053,128.964h-18.926l1.056-1.496v21.831l-0.968-1.144h18.926c2.582,0,4.797-0.836,6.646-2.508
		c1.849-1.674,2.773-4.123,2.773-7.351c0-2.992-0.836-5.295-2.509-6.91C184.379,129.772,182.046,128.964,179.053,128.964z
		 M179.669,155.196h-19.101l0.616-0.615v22.975l-0.704-0.793h19.542c3.403,0,6.206-0.881,8.407-2.64
		c2.201-1.761,3.301-4.49,3.301-8.186c0-2.875-0.587-5.076-1.76-6.603c-1.174-1.525-2.685-2.597-4.533-3.213
		C183.586,155.505,181.663,155.196,179.669,155.196z"/>
	<path fill="#FFFFFF" d="M255.011,178.964L232.3,124.122c-0.235-0.761-0.66-1.348-1.276-1.76c-0.617-0.41-1.307-0.616-2.069-0.616
		c-0.764-0.058-1.453,0.119-2.069,0.528c-0.616,0.411-1.1,1.028-1.452,1.848l-22.799,55.37c-0.118,0.47-0.176,0.911-0.176,1.321
		c0.057,0.822,0.352,1.54,0.88,2.156c0.529,0.616,1.35,0.925,2.465,0.925c0.645,0,1.261-0.221,1.848-0.66
		c0.586-0.44,0.997-1.012,1.233-1.717l5.895-14.349h27.784l5.933,14.26c0.293,0.764,0.734,1.365,1.321,1.805
		c0.586,0.439,1.261,0.66,2.024,0.66c0.88,0,1.673-0.321,2.377-0.968c0.704-0.646,1.056-1.497,1.056-2.553
		C255.275,179.904,255.187,179.435,255.011,178.964z M217.601,160.302l10.983-26.733l11.123,26.733H217.601z"/>
	<path fill="#FFFFFF" d="M303.866,126.06c0.997,0.528,1.585,1.32,1.76,2.376c0.176,1.057-0.088,2.055-0.792,2.993
		c-0.528,0.704-1.204,1.1-2.025,1.189c-0.822,0.088-1.644-0.073-2.465-0.485c-1.937-1.173-4.021-2.098-6.25-2.774
		c-2.231-0.673-4.577-1.011-7.042-1.011c-3.463,0-6.632,0.587-9.507,1.76c-2.875,1.174-5.369,2.861-7.482,5.062
		c-2.113,2.2-3.756,4.797-4.929,7.79c-1.175,2.992-1.761,6.28-1.761,9.858c0,3.874,0.617,7.337,1.849,10.388
		c1.233,3.052,2.919,5.649,5.062,7.79c2.141,2.143,4.635,3.772,7.482,4.885c2.846,1.116,5.942,1.674,9.287,1.674
		c2.406,0,4.723-0.323,6.954-0.969c2.229-0.644,4.313-1.583,6.25-2.817c0.821-0.409,1.657-0.557,2.509-0.44
		c0.85,0.119,1.54,0.529,2.069,1.233c0.762,0.939,1.041,1.923,0.836,2.949c-0.206,1.027-0.779,1.804-1.717,2.332
		c-1.468,0.881-3.14,1.674-5.017,2.378c-1.879,0.704-3.829,1.262-5.854,1.672c-2.024,0.41-4.036,0.617-6.03,0.617
		c-4.225,0-8.216-0.736-11.972-2.201c-3.756-1.466-7.086-3.565-9.991-6.294c-2.905-2.728-5.18-6.044-6.822-9.946
		c-1.643-3.902-2.465-8.319-2.465-13.249c0-4.518,0.792-8.7,2.377-12.544c1.584-3.842,3.785-7.174,6.601-9.99
		c2.817-2.817,6.118-5.002,9.903-6.558c3.785-1.553,7.907-2.332,12.367-2.332c3.051,0,6.015,0.396,8.891,1.188
		C298.818,123.375,301.459,124.534,303.866,126.06z"/>
	<path fill="#FFFFFF" d="M320.25,176.389c-0.472-0.764-0.692-1.574-0.662-2.429c0.029-0.852,0.514-1.603,1.457-2.251
		c0.647-0.412,1.368-0.588,2.163-0.53c0.794,0.06,1.514,0.442,2.163,1.148c1.647,1.943,3.532,3.488,5.651,4.635
		c2.119,1.148,4.708,1.722,7.77,1.722c1.353-0.057,2.751-0.294,4.194-0.707c1.442-0.41,2.649-1.133,3.62-2.162
		s1.457-2.399,1.457-4.106c0-1.647-0.5-2.958-1.501-3.93c-1.001-0.971-2.31-1.765-3.929-2.383c-1.619-0.618-3.341-1.161-5.165-1.634
		c-1.943-0.529-3.856-1.117-5.739-1.765c-1.885-0.648-3.576-1.487-5.077-2.516c-1.501-1.029-2.708-2.325-3.62-3.885
		c-0.913-1.559-1.368-3.488-1.368-5.784c0-2.648,0.721-4.945,2.163-6.886c1.442-1.943,3.369-3.444,5.783-4.503
		c2.413-1.06,5.091-1.59,8.035-1.59c1.647,0,3.369,0.192,5.166,0.575c1.795,0.383,3.546,1.029,5.253,1.941
		c1.707,0.913,3.208,2.163,4.503,3.753c0.53,0.589,0.824,1.323,0.883,2.207c0.057,0.883-0.325,1.677-1.148,2.384
		c-0.648,0.472-1.368,0.692-2.163,0.662c-0.795-0.029-1.457-0.31-1.987-0.839c-1.295-1.53-2.869-2.693-4.723-3.488
		c-1.854-0.794-3.9-1.191-6.136-1.191c-1.355,0-2.708,0.221-4.062,0.662c-1.355,0.442-2.487,1.134-3.399,2.075
		c-0.913,0.942-1.368,2.267-1.368,3.973c0.058,1.59,0.588,2.885,1.589,3.885c1,1.002,2.354,1.809,4.062,2.429
		c1.706,0.618,3.589,1.222,5.651,1.809c1.883,0.472,3.693,1.015,5.43,1.633c1.736,0.618,3.311,1.428,4.724,2.429
		c1.413,1.002,2.53,2.282,3.355,3.841c0.824,1.56,1.237,3.518,1.237,5.871c0,2.708-0.766,5.048-2.296,7.02
		c-1.531,1.973-3.547,3.474-6.048,4.503c-2.502,1.029-5.196,1.546-8.079,1.546c-3.238,0-6.445-0.605-9.624-1.811
		C325.283,181.496,322.546,179.392,320.25,176.389z"/>
	<path fill="#FFFFFF" d="M384.246,137.274c3.885,0,6.96,0.839,9.227,2.516c2.265,1.677,3.885,3.915,4.857,6.711
		c0.971,2.796,1.457,5.901,1.457,9.315v24.193c0,1.001-0.34,1.854-1.015,2.561c-0.677,0.705-1.517,1.06-2.517,1.06
		c-1.06,0-1.913-0.354-2.561-1.06c-0.648-0.707-0.971-1.56-0.971-2.561v-24.193c0-2.178-0.325-4.179-0.971-6.004
		c-0.649-1.824-1.722-3.28-3.223-4.37c-1.501-1.09-3.547-1.634-6.136-1.634c-2.414,0-4.622,0.545-6.622,1.634
		c-2.001,1.09-3.591,2.546-4.768,4.37c-1.178,1.825-1.766,3.827-1.766,6.004v24.193c0,1.001-0.34,1.854-1.016,2.561
		c-0.677,0.705-1.516,1.06-2.516,1.06c-1.001,0-1.84-0.354-2.516-1.06c-0.677-0.707-1.016-1.56-1.016-2.561v-58.097
		c0-1.001,0.338-1.855,1.016-2.561c0.676-0.707,1.515-1.06,2.516-1.06c1.06,0,1.912,0.353,2.561,1.06
		c0.647,0.705,0.971,1.56,0.971,2.561v26.312c0,0-0.825-1.133,0.176-2.694c1-1.559,2.265-2.958,3.797-4.194
		c1.53-1.236,3.237-2.221,5.121-2.958C380.214,137.643,382.185,137.274,384.246,137.274z"/>
	<path fill="#FFFFFF" d="M447.817,137.54c1.06,0,1.912,0.34,2.561,1.015c0.647,0.678,0.971,1.517,0.971,2.516v38.938
		c0,1.001-0.34,1.854-1.016,2.561c-0.677,0.705-1.516,1.06-2.516,1.06c-1.06,0-1.913-0.354-2.561-1.06
		c-0.648-0.707-0.971-1.56-0.971-2.561v-8.389l1.678-0.176c0,1.355-0.442,2.781-1.325,4.283c-0.883,1.501-2.09,2.913-3.62,4.238
		c-1.531,1.325-3.341,2.414-5.43,3.267c-2.09,0.852-4.313,1.28-6.666,1.28c-4.062,0-7.681-1.045-10.86-3.135
		c-3.179-2.088-5.695-4.929-7.549-8.519c-1.854-3.59-2.781-7.682-2.781-12.274c0-4.648,0.927-8.754,2.781-12.317
		c1.854-3.56,4.37-6.357,7.549-8.387c3.179-2.032,6.71-3.047,10.595-3.047c2.53,0,4.885,0.413,7.063,1.236
		c2.177,0.826,4.075,1.943,5.695,3.356c1.619,1.412,2.884,2.972,3.797,4.68c0.912,1.708,1.368,3.414,1.368,5.12l-2.296-0.529v-9.625
		c0-0.999,0.323-1.838,0.971-2.516C445.904,137.879,446.758,137.54,447.817,137.54z M429.629,177.978
		c2.942,0,5.547-0.764,7.814-2.295c2.265-1.53,4.031-3.604,5.298-6.224c1.265-2.619,1.898-5.577,1.898-8.875
		c0-3.236-0.633-6.149-1.898-8.74c-1.267-2.591-3.032-4.65-5.298-6.181c-2.267-1.53-4.872-2.297-7.814-2.297
		c-2.885,0-5.461,0.751-7.726,2.252c-2.267,1.501-4.047,3.547-5.341,6.136c-1.295,2.591-1.943,5.534-1.943,8.829
		c0,3.297,0.647,6.255,1.943,8.875c1.294,2.619,3.075,4.694,5.341,6.224C424.168,177.214,426.744,177.978,429.629,177.978z"/>
	<path fill="#FFFFFF" d="M465.555,183.63c-1.001,0-1.84-0.354-2.516-1.06c-0.677-0.707-1.016-1.56-1.016-2.561v-38.408
		c0-1.06,0.338-1.927,1.016-2.605c0.676-0.675,1.515-1.015,2.516-1.015c1.06,0,1.912,0.34,2.561,1.015
		c0.647,0.678,0.971,1.546,0.971,2.605v11.566l-1.06-1.854c0.353-1.824,0.985-3.604,1.898-5.342c0.912-1.735,2.075-3.296,3.488-4.68
		c1.413-1.382,3.031-2.472,4.856-3.266c1.824-0.796,3.826-1.193,6.004-1.193c1.294,0,2.486,0.31,3.576,0.928
		c1.088,0.618,1.634,1.487,1.634,2.605c0,1.236-0.325,2.162-0.971,2.78c-0.649,0.619-1.385,0.959-2.207,0.928
		c-0.748-0.029-1.443-0.288-2.182-0.549c-0.745-0.263-1.695-0.478-2.754-0.478c-1.472,0-2.849,0.38-4.291,1.203
		c-1.444,0.826-2.891,2.72-3.974,4.399c-1.019,1.582-2.178,4.091-2.914,5.945c-0.736,1.854-1.103,3.841-1.103,5.96v19.456
		c0,1.001-0.34,1.854-1.016,2.561C467.394,183.276,466.555,183.63,465.555,183.63z"/>
	<path fill="#FFFFFF" d="M499.908,183.63c-1.06,0-1.928-0.354-2.604-1.06c-0.677-0.707-1.015-1.56-1.015-2.561v-58.097
		c0-1.001,0.338-1.855,1.015-2.561c0.676-0.707,1.545-1.06,2.604-1.06c1.001,0,1.839,0.353,2.517,1.06
		c0.676,0.705,1.015,1.56,1.015,2.561v58.097c0,1.001-0.339,1.854-1.015,2.561C501.748,183.276,500.909,183.63,499.908,183.63z
		 M529.222,137.716c0.941,0,1.751,0.368,2.428,1.104c0.676,0.737,1.016,1.515,1.016,2.34c0,0.942-0.472,1.825-1.413,2.648
		l-28.607,24.988l-0.265-8.3l24.281-21.721C527.426,138.069,528.28,137.716,529.222,137.716z M530.194,183.541
		c-1.06,0-1.943-0.381-2.649-1.147l-18.807-20.043l5.298-4.856l18.63,19.955c0.706,0.766,1.06,1.649,1.06,2.648
		c0,1.06-0.413,1.898-1.237,2.518C531.665,183.232,530.9,183.541,530.194,183.541z"/>
	<path fill="#FFFFFF" d="M179.956,23.299c-7.544-18.149-41.161-23.904-70.11-23.25C66.321,1.042,14.348,16.236,3.089,47.246
		c-5.726,15.771-2.985,30.499,4.075,52.163c6.34,19.453,17.149,38.683,32.126,57.154c5.603,6.91,50.726,61.489,77.963,61.489
		c3.209,0,6.17-0.758,8.79-2.44c6.183-3.974,5.186-12.706,3.676-25.924c-2.114-18.51-5.309-46.482,8.335-79.515
		c9.708-23.504,21.101-39.587,29.419-51.329C177.446,44.767,184.651,34.596,179.956,23.299z M45.504,151.524
		C31.146,133.816,20.806,115.448,14.77,96.93c-6.507-19.965-9.098-33.361-4.162-46.954c9.532-26.255,57.23-40.966,99.421-41.929
		c1.508-0.034,2.998-0.052,4.472-0.052c9.03,0,17.408,0.643,24.856,1.834c1.665,1.592,2.88,3.285,3.616,5.056
		c2.87,6.905-1.749,13.911-11.623,27.849c-8.539,12.054-20.233,28.562-30.286,52.9c-14.432,34.942-11.096,64.149-8.889,83.477
		c0.911,7.971,1.942,17.005-0.053,18.286c-0.162,0.104-0.332,0.192-0.5,0.283C76.096,185.816,58.436,167.475,45.504,151.524z
		 M160.946,54.219c-8.539,12.054-20.233,28.562-30.286,52.899c-14.432,34.942-11.096,64.15-8.889,83.478
		c0.91,7.97,1.942,17.003-0.053,18.285c-1.359,0.873-2.978,1.282-4.817,1.282c-4.893-0.001-11.344-2.911-18.54-7.668
		c4.018-4.497,3.092-12.653,1.763-24.292c-2.114-18.51-5.309-46.482,8.335-79.515c9.708-23.505,21.101-39.587,29.42-51.33
		c9.854-13.91,16.998-24.007,12.637-35.143c11.587,3.21,19.537,8.099,22.053,14.153C175.439,33.275,170.82,40.281,160.946,54.219z"
		/>
</g>
</svg>
