<?xml version="1.0" encoding="utf-8"?>
<!-- Generator: Adobe Illustrator 25.2.1, SVG Export Plug-In . SVG Version: 6.00 Build 0)  -->
<svg version="1.1" id="bacshark-logo-dark-solid" xmlns="http://www.w3.org/2000/svg" xmlns:xlink="http://www.w3.org/1999/xlink"
	 x="0px" y="0px" viewBox="0 0 468.6 218.1" style="enable-background:new 0 0 468.6 218.1;" xml:space="preserve">
<style type="text/css">
	.st0{fill:#E5E5E5;}
	.st1{fill:#69C7C3;}
</style>
<g>
	<g>
		<g>
			<path class="st0" d="M190.6,112.3c3.9,0,6.9,1,9,3c2.1,2,3.1,4.8,3.1,8.5c0,1.9-0.4,3.7-1.3,5.3c-0.9,1.6-2.2,2.9-3.9,3.9
				c-1.7,1-3.8,1.5-6.3,1.6l-0.1-1.8c1.5,0,3.1,0.2,4.7,0.7c1.6,0.4,3.1,1.1,4.5,2.1c1.4,1,2.5,2.2,3.4,3.8c0.9,1.6,1.3,3.5,1.3,5.9
				c0,2.5-0.4,4.6-1.2,6.3c-0.8,1.7-1.9,3.1-3.3,4.1c-1.4,1-2.9,1.7-4.6,2.2c-1.7,0.4-3.4,0.7-5.2,0.7h-17.2c-0.7,0-1.4-0.3-1.9-0.8
				s-0.8-1.2-0.8-1.9v-40.7c0-0.7,0.3-1.4,0.8-1.9s1.2-0.8,1.9-0.8L190.6,112.3L190.6,112.3z M189.9,117.5h-14.1l0.8-1.1v16.3
				l-0.7-0.9H190c1.9,0,3.6-0.6,5-1.9s2.1-3.1,2.1-5.5c0-2.2-0.6-4-1.9-5.2C193.9,118.1,192.2,117.5,189.9,117.5z M190.4,137.1
				h-14.3l0.5-0.5v17.2l-0.5-0.6h14.6c2.5,0,4.6-0.7,6.3-2c1.6-1.3,2.5-3.4,2.5-6.1c0-2.1-0.4-3.8-1.3-4.9c-0.9-1.1-2-1.9-3.4-2.4
				C193.3,137.3,191.9,137.1,190.4,137.1z"/>
			<path class="st0" d="M229.8,119.1l-15.5,37.6c-0.2,0.5-0.5,1-0.9,1.3c-0.4,0.3-0.9,0.5-1.4,0.5c-0.8,0-1.4-0.2-1.8-0.7
				s-0.6-1-0.7-1.6c0-0.3,0-0.6,0.1-1l17-41.4c0.3-0.6,0.6-1.1,1.1-1.4c0.5-0.3,1-0.4,1.5-0.4c0.6,0,1.1,0.2,1.5,0.5
				c0.5,0.3,0.8,0.7,1,1.3l17,41c0.1,0.4,0.2,0.7,0.2,1.1c0,0.8-0.3,1.4-0.8,1.9c-0.5,0.5-1.1,0.7-1.8,0.7c-0.6,0-1.1-0.2-1.5-0.5
				c-0.4-0.3-0.8-0.8-1-1.3L228.3,119L229.8,119.1z M217.6,146l2.2-5.1h19.5l1,5.1H217.6z"/>
			<path class="st0" d="M289.3,115.3c0.7,0.4,1.2,1,1.3,1.8c0.1,0.8-0.1,1.5-0.6,2.2c-0.4,0.5-0.9,0.8-1.5,0.9
				c-0.6,0.1-1.2-0.1-1.8-0.4c-1.4-0.9-3-1.6-4.7-2.1c-1.7-0.5-3.4-0.8-5.3-0.8c-2.6,0-5,0.4-7.1,1.3c-2.1,0.9-4,2.1-5.6,3.8
				s-2.8,3.6-3.7,5.8c-0.9,2.2-1.3,4.7-1.3,7.4c0,2.9,0.5,5.5,1.4,7.8s2.2,4.2,3.8,5.8c1.6,1.6,3.5,2.8,5.6,3.7
				c2.1,0.8,4.4,1.2,6.9,1.2c1.8,0,3.5-0.2,5.2-0.7c1.7-0.5,3.2-1.2,4.7-2.1c0.6-0.3,1.2-0.4,1.9-0.3c0.6,0.1,1.2,0.4,1.5,0.9
				c0.6,0.7,0.8,1.4,0.6,2.2c-0.2,0.8-0.6,1.4-1.3,1.7c-1.1,0.7-2.3,1.2-3.8,1.8c-1.4,0.5-2.9,0.9-4.4,1.2c-1.5,0.3-3,0.5-4.5,0.5
				c-3.2,0-6.1-0.5-8.9-1.6c-2.8-1.1-5.3-2.7-7.5-4.7c-2.2-2-3.9-4.5-5.1-7.4c-1.2-2.9-1.8-6.2-1.8-9.9c0-3.4,0.6-6.5,1.8-9.4
				c1.2-2.9,2.8-5.4,4.9-7.5c2.1-2.1,4.6-3.7,7.4-4.9s5.9-1.7,9.2-1.7c2.3,0,4.5,0.3,6.6,0.9C285.6,113.3,287.5,114.1,289.3,115.3z"
				/>
			<path class="st0" d="M302.3,152.9c-0.4-0.6-0.5-1.2-0.5-1.8c0-0.6,0.4-1.2,1.1-1.7c0.5-0.3,1-0.4,1.6-0.4c0.6,0,1.1,0.3,1.6,0.9
				c1.2,1.5,2.6,2.6,4.2,3.5c1.6,0.9,3.5,1.3,5.8,1.3c1,0,2.1-0.2,3.1-0.5c1.1-0.3,2-0.8,2.7-1.6c0.7-0.8,1.1-1.8,1.1-3.1
				c0-1.2-0.4-2.2-1.1-2.9c-0.7-0.7-1.7-1.3-2.9-1.8s-2.5-0.9-3.9-1.2c-1.5-0.4-2.9-0.8-4.3-1.3c-1.4-0.5-2.7-1.1-3.8-1.9
				c-1.1-0.8-2-1.7-2.7-2.9c-0.7-1.2-1-2.6-1-4.3c0-2,0.5-3.7,1.6-5.1s2.5-2.6,4.3-3.4s3.8-1.2,6-1.2c1.2,0,2.5,0.1,3.9,0.4
				c1.3,0.3,2.6,0.8,3.9,1.5c1.3,0.7,2.4,1.6,3.4,2.8c0.4,0.4,0.6,1,0.7,1.6c0,0.7-0.2,1.3-0.9,1.8c-0.5,0.4-1,0.5-1.6,0.5
				c-0.6,0-1.1-0.2-1.5-0.6c-1-1.1-2.1-2-3.5-2.6c-1.4-0.6-2.9-0.9-4.6-0.9c-1,0-2,0.2-3,0.5c-1,0.3-1.9,0.8-2.5,1.6
				c-0.7,0.7-1,1.7-1,3c0,1.2,0.4,2.2,1.2,2.9c0.7,0.7,1.8,1.4,3,1.8c1.3,0.5,2.7,0.9,4.2,1.4c1.4,0.4,2.8,0.8,4.1,1.2
				s2.5,1.1,3.5,1.8c1.1,0.7,1.9,1.7,2.5,2.9c0.6,1.2,0.9,2.6,0.9,4.4c0,2-0.6,3.8-1.7,5.2c-1.1,1.5-2.7,2.6-4.5,3.4
				c-1.9,0.8-3.9,1.2-6,1.2c-2.4,0-4.8-0.5-7.2-1.4S304,155.1,302.3,152.9z"/>
			<path class="st0" d="M352.1,123.7c2.9,0,5.2,0.6,6.9,1.9c1.7,1.3,2.9,2.9,3.6,5c0.7,2.1,1.1,4.4,1.1,7v18.1
				c0,0.7-0.3,1.4-0.8,1.9c-0.5,0.5-1.1,0.8-1.9,0.8c-0.8,0-1.4-0.3-1.9-0.8c-0.5-0.5-0.7-1.2-0.7-1.9v-18.1c0-1.6-0.2-3.1-0.7-4.5
				c-0.5-1.4-1.3-2.5-2.4-3.3c-1.1-0.8-2.7-1.2-4.6-1.2c-1.8,0-3.5,0.4-5,1.2c-1.5,0.8-2.7,1.9-3.6,3.3c-0.9,1.4-1.3,2.9-1.3,4.5
				v18.1c0,0.7-0.3,1.4-0.8,1.9c-0.5,0.5-1.1,0.8-1.9,0.8s-1.4-0.3-1.9-0.8c-0.5-0.5-0.8-1.2-0.8-1.9v-43.4c0-0.7,0.3-1.4,0.8-1.9
				s1.1-0.8,1.9-0.8c0.8,0,1.4,0.3,1.9,0.8s0.7,1.2,0.7,1.9v19.7l-1.3,1.5c0.2-1.1,0.7-2.3,1.5-3.5c0.7-1.2,1.7-2.2,2.8-3.1
				c1.1-0.9,2.4-1.7,3.8-2.2C349.1,123.9,350.5,123.7,352.1,123.7z"/>
			<path class="st0" d="M401.3,123.9c0.8,0,1.4,0.3,1.9,0.8s0.7,1.1,0.7,1.9v29.1c0,0.7-0.3,1.4-0.8,1.9c-0.5,0.5-1.1,0.8-1.9,0.8
				c-0.8,0-1.4-0.3-1.9-0.8c-0.5-0.5-0.7-1.2-0.7-1.9v-6.3l1.3-0.1c0,1-0.3,2.1-1,3.2c-0.7,1.1-1.6,2.2-2.7,3.2
				c-1.1,1-2.5,1.8-4.1,2.4c-1.6,0.6-3.2,1-5,1c-3,0-5.7-0.8-8.1-2.3c-2.4-1.6-4.3-3.7-5.6-6.4c-1.4-2.7-2.1-5.7-2.1-9.2
				c0-3.5,0.7-6.5,2.1-9.2s3.3-4.8,5.6-6.3c2.4-1.5,5-2.3,7.9-2.3c1.9,0,3.7,0.3,5.3,0.9s3,1.5,4.3,2.5s2.2,2.2,2.8,3.5
				c0.7,1.3,1,2.6,1,3.8l-1.7-0.4v-7.2c0-0.7,0.2-1.4,0.7-1.9S400.5,123.9,401.3,123.9z M387.7,154.1c2.2,0,4.1-0.6,5.8-1.7
				c1.7-1.1,3-2.7,4-4.7c0.9-2,1.4-4.2,1.4-6.6c0-2.4-0.5-4.6-1.4-6.5c-0.9-1.9-2.3-3.5-4-4.6c-1.7-1.1-3.6-1.7-5.8-1.7
				c-2.2,0-4.1,0.6-5.8,1.7c-1.7,1.1-3,2.7-4,4.6c-1,1.9-1.5,4.1-1.5,6.6c0,2.5,0.5,4.7,1.5,6.6c1,2,2.3,3.5,4,4.7
				C383.6,153.5,385.5,154.1,387.7,154.1z"/>
			<path class="st0" d="M416.3,158.3c-0.7,0-1.4-0.3-1.9-0.8c-0.5-0.5-0.8-1.2-0.8-1.9v-28.7c0-0.8,0.3-1.4,0.8-1.9
				c0.5-0.5,1.1-0.8,1.9-0.8c0.8,0,1.4,0.3,1.9,0.8c0.5,0.5,0.7,1.2,0.7,1.9v8.6l-0.8-1.4c0.3-1.4,0.7-2.7,1.4-4
				c0.7-1.3,1.6-2.5,2.6-3.5c1.1-1,2.3-1.8,3.6-2.4c1.4-0.6,2.9-0.9,4.5-0.9c1,0,1.9,0.2,2.7,0.7c0.8,0.5,1.2,1.1,1.2,1.9
				c0,0.9-0.2,1.6-0.7,2.1c-0.5,0.5-1,0.7-1.6,0.7c-0.6,0-1.1-0.1-1.6-0.4c-0.5-0.3-1.2-0.4-2-0.4c-1.1,0-2.2,0.3-3.3,0.9
				c-1.1,0.6-2.1,1.5-3,2.5s-1.6,2.3-2.2,3.7c-0.6,1.4-0.8,2.9-0.8,4.5v16c0,0.7-0.3,1.4-0.8,1.9C417.7,158.1,417,158.3,416.3,158.3
				z"/>
			<path class="st0" d="M443.3,158.3c-0.8,0-1.4-0.3-1.9-0.8c-0.5-0.5-0.8-1.2-0.8-1.9v-43.4c0-0.7,0.3-1.4,0.8-1.9
				c0.5-0.5,1.2-0.8,1.9-0.8c0.7,0,1.4,0.3,1.9,0.8c0.5,0.5,0.8,1.2,0.8,1.9v43.4c0,0.7-0.3,1.4-0.8,1.9
				C444.7,158.1,444,158.3,443.3,158.3z M465.2,124c0.7,0,1.3,0.3,1.8,0.8c0.5,0.6,0.8,1.1,0.8,1.7c0,0.7-0.4,1.4-1.1,2l-21.4,18.7
				l-0.2-6.2l18.1-16.2C463.9,124.3,464.5,124,465.2,124z M465.9,158.2c-0.8,0-1.5-0.3-2-0.9l-14.1-15l4-3.6l13.9,14.9
				c0.5,0.6,0.8,1.2,0.8,2c0,0.8-0.3,1.4-0.9,1.9C467,158,466.5,158.2,465.9,158.2z"/>
		</g>
	</g>
	<path class="st1" d="M180,23.3C172.4,5.1,138.8-0.6,109.8,0C66.3,1,14.3,16.2,3.1,47.2c-5.7,15.8-3,30.5,4.1,52.2
		c6.3,19.5,17.1,38.7,32.1,57.2c5.6,6.9,50.7,61.5,78,61.5c3.2,0,6.2-0.8,8.8-2.4c6.2-4,5.2-12.7,3.7-25.9
		c-2.1-18.5-5.3-46.5,8.3-79.5c9.7-23.5,21.1-39.6,29.4-51.3C177.4,44.8,184.7,34.6,180,23.3z"/>
</g>
</svg>
